#include <pitches.h>

int melody0[] = {
NOTE_D5,
NOTE_CS5,
NOTE_C5,
NOTE_B4,
NOTE_B4,
NOTE_AS4,
NOTE_A4,
NOTE_GS4,
NOTE_GS4,
NOTE_G4,
NOTE_FS4,
NOTE_F4,
NOTE_F4,
NOTE_D4,
NOTE_D4,
NOTE_A4,
NOTE_G4,
NOTE_A4,
NOTE_B4,
NOTE_AS4,
NOTE_A4,
NOTE_G4,
NOTE_C5,
NOTE_D5,
NOTE_D5,
NOTE_CS5,
NOTE_C5,
NOTE_B4,
NOTE_C5,
NOTE_E5,
NOTE_D5,
NOTE_C5,
NOTE_B4,
NOTE_C5,
NOTE_G5,
NOTE_G5,
NOTE_FS5,
NOTE_E5,
NOTE_D5,
NOTE_FS5,
NOTE_A4,
NOTE_D5,
NOTE_FS5,
NOTE_A4,
NOTE_D5,
NOTE_D4,
NOTE_D5,
NOTE_D4,
NOTE_C5,
NOTE_B4,
NOTE_A4,
NOTE_B4,
NOTE_C5,
NOTE_F5,
NOTE_G4,
NOTE_C5,
NOTE_F5,
NOTE_DS5,
NOTE_C5,
NOTE_AS4,
NOTE_G4,
NOTE_AS4,
NOTE_C5,
NOTE_AS4,
NOTE_C5,
NOTE_G4,
NOTE_D4,
NOTE_F4,
NOTE_FS4,
NOTE_D4,
NOTE_D4,
NOTE_A4,
NOTE_G4,
NOTE_A4,
NOTE_B4,
NOTE_AS4,
NOTE_A4,
NOTE_G4,
NOTE_C5,
NOTE_D5,
NOTE_D5,
NOTE_CS5,
NOTE_C5,
NOTE_B4,
NOTE_C5,
NOTE_E5,
NOTE_D5,
NOTE_C5,
NOTE_B4,
NOTE_C5,
NOTE_G5,
NOTE_G5,
NOTE_FS5,
NOTE_E5,
NOTE_D5,
NOTE_FS5,
NOTE_A4,
NOTE_D5,
NOTE_FS5,
NOTE_A4,
NOTE_D5,
NOTE_D4,
NOTE_D5,
NOTE_D4,
NOTE_C5,
NOTE_B4,
NOTE_A4,
NOTE_B4,
NOTE_C5,
NOTE_F5,
NOTE_G4,
NOTE_C5,
NOTE_F5,
NOTE_DS5,
NOTE_C5,
NOTE_AS4,
NOTE_G4,
NOTE_AS4,
NOTE_C5,
NOTE_AS4,
NOTE_C5,
NOTE_G4,
NOTE_D4,
NOTE_F4,
NOTE_FS4,
NOTE_D4,
NOTE_D4,
NOTE_A4,
NOTE_G4,
NOTE_A4,
};

int start_time0[] = {
0.0,
87209.25,
174418.5,
261627.75,
348837.0,
436046.25,
523255.5,
610464.75,
697674.0,
784883.25,
872092.5,
959301.75,
1046511.0,
1395348.0,
1744185.0,
2267440.5,
2441859.0,
2616277.5,
2790696.0,
3139533.0,
3313951.5,
3662788.5,
3837207.0,
4186044.0,
4709299.5,
5058136.5,
5232555.0,
5406973.5,
5581392.0,
5930229.0,
6104647.5,
6453484.5,
6627903.0,
6976740.0,
7499995.5,
7848832.5,
8023251.0,
8197669.5,
8372088.0,
8546506.5,
8720925.0,
8895343.5,
9069762.0,
9244180.5,
9418599.0,
9593017.5,
9767436.0,
10116273.0,
10290691.5,
10639528.5,
10813947.0,
10988365.5,
11162784.0,
11337202.5,
11511621.0,
11686039.5,
11860458.0,
12034876.5,
12209295.0,
12383713.5,
12558132.0,
13081387.5,
13430224.5,
13604643.0,
13779061.5,
13953480.0,
14302317.0,
14476735.5,
14999991.0,
15348828.0,
15872083.5,
16220920.5,
16395339.0,
16569757.5,
16744176.0,
17093013.0,
17267431.5,
17616268.5,
17790687.0,
18139524.0,
18662779.5,
19011616.5,
19186035.0,
19360453.5,
19534872.0,
19883709.0,
20058127.5,
20406964.5,
20581383.0,
20930220.0,
21453475.5,
21802312.5,
21976731.0,
22151149.5,
22325568.0,
22499986.5,
22674405.0,
22848823.5,
23023242.0,
23197660.5,
23372079.0,
23546497.5,
23720916.0,
24069753.0,
24244171.5,
24593008.5,
24767427.0,
24941845.5,
25116264.0,
25290682.5,
25465101.0,
25639519.5,
25813938.0,
25988356.5,
26162775.0,
26337193.5,
26511612.0,
27034867.5,
27383704.5,
27558123.0,
27732541.5,
27906960.0,
28255797.0,
28430215.5,
28953471.0,
29302308.0,
29825563.5,
30174400.5,
30348819.0,
30523237.5,
};

int duration0[] = {
87209.25,
87209.25,
87209.25,
87209.25,
87209.25,
87209.25,
87209.25,
87209.25,
87209.25,
87209.25,
87209.25,
87209.25,
348837.0,
87209.25,
87209.25,
174418.5,
174418.5,
174418.5,
348837.0,
174418.5,
348837.0,
174418.5,
348837.0,
174418.5,
348837.0,
174418.5,
174418.5,
174418.5,
348837.0,
174418.5,
348837.0,
174418.5,
348837.0,
174418.5,
348837.0,
174418.5,
174418.5,
174418.5,
174418.5,
174418.5,
174418.5,
174418.5,
174418.5,
174418.5,
174418.5,
174418.5,
174418.5,
174418.5,
348837.0,
174418.5,
174418.5,
174418.5,
174418.5,
174418.5,
174418.5,
174418.5,
174418.5,
174418.5,
174418.5,
174418.5,
174418.5,
348837.0,
174418.5,
174418.5,
174418.5,
348837.0,
174418.5,
523255.5,
348837.0,
174418.5,
348837.0,
174418.5,
174418.5,
174418.5,
348837.0,
174418.5,
348837.0,
174418.5,
348837.0,
174418.5,
348837.0,
174418.5,
174418.5,
174418.5,
348837.0,
174418.5,
348837.0,
174418.5,
348837.0,
174418.5,
348837.0,
174418.5,
174418.5,
174418.5,
174418.5,
174418.5,
174418.5,
174418.5,
174418.5,
174418.5,
174418.5,
174418.5,
174418.5,
174418.5,
348837.0,
174418.5,
174418.5,
174418.5,
174418.5,
174418.5,
174418.5,
174418.5,
174418.5,
174418.5,
174418.5,
174418.5,
174418.5,
348837.0,
174418.5,
174418.5,
174418.5,
348837.0,
174418.5,
523255.5,
348837.0,
174418.5,
348837.0,
174418.5,
174418.5,
174418.5,
};

int melody1[] = {
NOTE_B5,
NOTE_AS5,
NOTE_A5,
NOTE_GS5,
NOTE_GS5,
NOTE_G5,
NOTE_FS5,
NOTE_F5,
NOTE_F5,
NOTE_E5,
NOTE_DS5,
NOTE_D5,
NOTE_D5,
NOTE_G4,
NOTE_G4,
NOTE_D4,
NOTE_D5,
NOTE_F5,
NOTE_FS5,
NOTE_G5,
NOTE_D5,
NOTE_F5,
NOTE_FS5,
NOTE_G5,
NOTE_G5,
NOTE_G5,
NOTE_AS5,
NOTE_B5,
NOTE_C6,
NOTE_G5,
NOTE_AS5,
NOTE_B5,
NOTE_C6,
NOTE_C6,
NOTE_C6,
NOTE_B5,
NOTE_C6,
NOTE_D6,
NOTE_F6,
NOTE_D6,
NOTE_C6,
NOTE_D6,
NOTE_C6,
NOTE_C5,
NOTE_AS5,
NOTE_G5,
NOTE_F5,
NOTE_G5,
NOTE_G5,
NOTE_G4,
NOTE_G4,
NOTE_D5,
NOTE_F5,
NOTE_FS5,
NOTE_G5,
NOTE_D5,
NOTE_F5,
NOTE_FS5,
NOTE_G5,
NOTE_G5,
NOTE_G5,
NOTE_AS5,
NOTE_B5,
NOTE_C6,
NOTE_G5,
NOTE_AS5,
NOTE_B5,
NOTE_C6,
NOTE_C6,
NOTE_C6,
NOTE_B5,
NOTE_C6,
NOTE_D6,
NOTE_F6,
NOTE_D6,
NOTE_C6,
NOTE_D6,
NOTE_C6,
NOTE_C5,
NOTE_AS5,
NOTE_G5,
NOTE_F5,
NOTE_G5,
NOTE_G5,
NOTE_G4,
NOTE_G4,
NOTE_D5,
NOTE_F5,
NOTE_FS5,
};

int start_time1[] = {
0.0,
87209.25,
174418.5,
261627.75,
348837.0,
436046.25,
523255.5,
610464.75,
697674.0,
784883.25,
872092.5,
959301.75,
1046511.0,
1395348.0,
1744185.0,
2093022.0,
2267440.5,
2441859.0,
2616277.5,
2790696.0,
3139533.0,
3313951.5,
3837207.0,
4186044.0,
4709299.5,
5058136.5,
5232555.0,
5406973.5,
5581392.0,
5930229.0,
6104647.5,
6627903.0,
6976740.0,
7499995.5,
7848832.5,
8023251.0,
8197669.5,
8372088.0,
10290691.5,
10639528.5,
10813947.0,
10988365.5,
11162784.0,
12558132.0,
13081387.5,
13430224.5,
13604643.0,
13779061.5,
13953480.0,
15348828.0,
15872083.5,
16220920.5,
16395339.0,
16569757.5,
16744176.0,
17093013.0,
17267431.5,
17790687.0,
18139524.0,
18662779.5,
19011616.5,
19186035.0,
19360453.5,
19534872.0,
19883709.0,
20058127.5,
20581383.0,
20930220.0,
21453475.5,
21802312.5,
21976731.0,
22151149.5,
22325568.0,
24244171.5,
24593008.5,
24767427.0,
24941845.5,
25116264.0,
26511612.0,
27034867.5,
27383704.5,
27558123.0,
27732541.5,
27906960.0,
29302308.0,
29825563.5,
30174400.5,
30348819.0,
30523237.5,
};

int duration1[] = {
87209.25,
87209.25,
87209.25,
87209.25,
87209.25,
87209.25,
87209.25,
87209.25,
87209.25,
87209.25,
87209.25,
87209.25,
348837.0,
87209.25,
87209.25,
87209.25,
174418.5,
174418.5,
174418.5,
348837.0,
174418.5,
523255.5,
348837.0,
174418.5,
348837.0,
174418.5,
174418.5,
174418.5,
348837.0,
174418.5,
523255.5,
348837.0,
174418.5,
348837.0,
174418.5,
174418.5,
174418.5,
1918603.5,
348837.0,
174418.5,
174418.5,
174418.5,
1395348.0,
174418.5,
348837.0,
174418.5,
174418.5,
174418.5,
1395348.0,
174418.5,
348837.0,
174418.5,
174418.5,
174418.5,
348837.0,
174418.5,
523255.5,
348837.0,
174418.5,
348837.0,
174418.5,
174418.5,
174418.5,
348837.0,
174418.5,
523255.5,
348837.0,
174418.5,
348837.0,
174418.5,
174418.5,
174418.5,
1918603.5,
348837.0,
174418.5,
174418.5,
174418.5,
1395348.0,
174418.5,
348837.0,
174418.5,
174418.5,
174418.5,
1395348.0,
174418.5,
348837.0,
174418.5,
174418.5,
174418.5,
};

int melody2[] = {
NOTE_D5,
NOTE_CS5,
NOTE_C5,
NOTE_B4,
NOTE_G4,
NOTE_G4,
NOTE_G4,
NOTE_G4,
NOTE_G4,
NOTE_G4,
NOTE_G4,
NOTE_D5,
NOTE_G4,
NOTE_D5,
NOTE_G4,
NOTE_D5,
NOTE_G4,
NOTE_D5,
NOTE_G4,
NOTE_AS4,
NOTE_C5,
NOTE_G4,
NOTE_C5,
NOTE_G4,
NOTE_C5,
NOTE_G4,
NOTE_B4,
NOTE_C5,
NOTE_C5,
NOTE_B4,
NOTE_A4,
NOTE_FS4,
NOTE_A4,
NOTE_FS4,
NOTE_A4,
NOTE_FS4,
NOTE_A4,
NOTE_FS4,
NOTE_A4,
NOTE_FS4,
NOTE_A4,
NOTE_FS4,
NOTE_D5,
NOTE_A4,
NOTE_E4,
NOTE_C5,
NOTE_E4,
NOTE_C5,
NOTE_E4,
NOTE_F4,
NOTE_G4,
NOTE_E4,
NOTE_E4,
NOTE_C5,
NOTE_B4,
NOTE_AS4,
NOTE_A4,
NOTE_G4,
NOTE_AS4,
NOTE_G4,
NOTE_AS4,
NOTE_G4,
NOTE_AS4,
NOTE_G4,
NOTE_D5,
NOTE_G4,
NOTE_D5,
NOTE_G4,
NOTE_G4,
NOTE_G4,
NOTE_D5,
NOTE_G4,
NOTE_D5,
NOTE_G4,
NOTE_D5,
NOTE_G4,
NOTE_D5,
NOTE_G4,
NOTE_AS4,
NOTE_C5,
NOTE_G4,
NOTE_C5,
NOTE_G4,
NOTE_C5,
NOTE_G4,
NOTE_B4,
NOTE_C5,
NOTE_C5,
NOTE_B4,
NOTE_A4,
NOTE_FS4,
NOTE_A4,
NOTE_FS4,
NOTE_A4,
NOTE_FS4,
NOTE_A4,
NOTE_FS4,
NOTE_A4,
NOTE_FS4,
NOTE_A4,
NOTE_FS4,
NOTE_D5,
NOTE_A4,
NOTE_E4,
NOTE_C5,
NOTE_E4,
NOTE_C5,
NOTE_E4,
NOTE_F4,
NOTE_G4,
NOTE_E4,
NOTE_E4,
NOTE_C5,
NOTE_B4,
NOTE_AS4,
NOTE_A4,
NOTE_G4,
NOTE_AS4,
NOTE_G4,
NOTE_AS4,
NOTE_G4,
NOTE_AS4,
NOTE_G4,
NOTE_D5,
NOTE_G4,
NOTE_D5,
NOTE_G4,
NOTE_G4,
};

int start_time2[] = {
0.0,
348837.0,
697674.0,
1046511.0,
1395348.0,
1744185.0,
2093022.0,
2267440.5,
2441859.0,
2616277.5,
2790696.0,
2965114.5,
3139533.0,
3488370.0,
3662788.5,
4011625.5,
4186044.0,
4709299.5,
5058136.5,
5232555.0,
5406973.5,
5581392.0,
5755810.5,
5930229.0,
6279066.0,
6453484.5,
6802321.5,
6976740.0,
7499995.5,
8023251.0,
8197669.5,
8372088.0,
8546506.5,
8895343.5,
9069762.0,
9244180.5,
9593017.5,
9767436.0,
9941854.5,
10290691.5,
10465110.0,
10639528.5,
10813947.0,
10988365.5,
11162784.0,
11337202.5,
11686039.5,
11860458.0,
12034876.5,
12209295.0,
12383713.5,
12558132.0,
13081387.5,
13255806.0,
13430224.5,
13604643.0,
13779061.5,
13953480.0,
14127898.5,
14476735.5,
14651154.0,
14825572.5,
15174409.5,
15348828.0,
15523246.5,
15697665.0,
16046502.0,
16220920.5,
16569757.5,
16744176.0,
16918594.5,
17093013.0,
17441850.0,
17616268.5,
17965105.5,
18139524.0,
18662779.5,
19011616.5,
19186035.0,
19360453.5,
19534872.0,
19709290.5,
19883709.0,
20232546.0,
20406964.5,
20755801.5,
20930220.0,
21453475.5,
21976731.0,
22151149.5,
22325568.0,
22499986.5,
22848823.5,
23023242.0,
23197660.5,
23546497.5,
23720916.0,
23895334.5,
24244171.5,
24418590.0,
24593008.5,
24767427.0,
24941845.5,
25116264.0,
25290682.5,
25639519.5,
25813938.0,
25988356.5,
26162775.0,
26337193.5,
26511612.0,
27034867.5,
27209286.0,
27383704.5,
27558123.0,
27732541.5,
27906960.0,
28081378.5,
28430215.5,
28604634.0,
28779052.5,
29127889.5,
29302308.0,
29476726.5,
29651145.0,
29999982.0,
30174400.5,
30523237.5,
};

int duration2[] = {
174418.5,
174418.5,
174418.5,
174418.5,
87209.25,
87209.25,
87209.25,
87209.25,
87209.25,
87209.25,
174418.5,
174418.5,
174418.5,
174418.5,
174418.5,
174418.5,
174418.5,
348837.0,
174418.5,
174418.5,
174418.5,
174418.5,
174418.5,
174418.5,
174418.5,
174418.5,
174418.5,
174418.5,
523255.5,
174418.5,
174418.5,
174418.5,
174418.5,
174418.5,
174418.5,
174418.5,
174418.5,
174418.5,
174418.5,
174418.5,
174418.5,
174418.5,
174418.5,
174418.5,
174418.5,
174418.5,
174418.5,
174418.5,
174418.5,
174418.5,
174418.5,
174418.5,
174418.5,
174418.5,
174418.5,
174418.5,
174418.5,
174418.5,
174418.5,
174418.5,
174418.5,
174418.5,
174418.5,
174418.5,
174418.5,
174418.5,
174418.5,
174418.5,
174418.5,
174418.5,
174418.5,
174418.5,
174418.5,
174418.5,
174418.5,
174418.5,
348837.0,
174418.5,
174418.5,
174418.5,
174418.5,
174418.5,
174418.5,
174418.5,
174418.5,
174418.5,
174418.5,
523255.5,
174418.5,
174418.5,
174418.5,
174418.5,
174418.5,
174418.5,
174418.5,
174418.5,
174418.5,
174418.5,
174418.5,
174418.5,
174418.5,
174418.5,
174418.5,
174418.5,
174418.5,
174418.5,
174418.5,
174418.5,
174418.5,
174418.5,
174418.5,
174418.5,
174418.5,
174418.5,
174418.5,
174418.5,
174418.5,
174418.5,
174418.5,
174418.5,
174418.5,
174418.5,
174418.5,
174418.5,
174418.5,
174418.5,
174418.5,
174418.5,
};



int main_cycle_usec = 10;
int master_time = 0;

int notepin0 = 3;
int notepin2 = 5;
int notepin1 = 25;

int elapsed0 = 0;
int elapsed1 = 0;
int elapsed2 = 0;

int state0 = 0;
int state1 = 0;
int state2 = 0;

void setup() {
  Serial.begin(9600);
  pinMode(13, OUTPUT);
  pinMode(notepin0, OUTPUT);
  pinMode(notepin1, OUTPUT);
  pinMode(notepin2, OUTPUT);

  digitalWrite(13, HIGH);
  delay(500);
  digitalWrite(13, LOW);
  delay(500);
  digitalWrite(13, HIGH);
  delay(500);
  digitalWrite(13, LOW);
  delay(500);
//  tone(3, 40);
//  tone(9, 440);
  
}

float current_time;

int size0 = sizeof(melody0)/sizeof(melody0[0]);
int size1 = sizeof(melody1)/sizeof(melody1[0]);
int size2 = sizeof(melody2)/sizeof(melody2[0]);


void loop() {
  Serial.println(size0);
  Serial.println(size1);
  Serial.println(size2);
  
  int usec2 = 0;//(1000000/freq2)/2;

  int end0 = 0;
  int end1 = 0;
  int end2 = 0;

  int i = -1;
  int j = -1;
  int k = -1;
    
  int note0_active = 0;
  float note0_start = 0;
  float note0_end = micros();
  float wait_time0 = 0;
  
  int note1_active = 0;
  float note1_start = 0;
  float note1_end = micros();
  float wait_time1 = 0;
  
  int note2_active = 0;
  float note2_start = 0;
  float note2_end = micros();
  float wait_time2 = 0;

  float start_time = micros();

  while(1){

    current_time = micros();


    // ### VOICE 0 ### //
        
    if (!note0_active){
      // Check if voice is already done, do nothing if True
      if (end0){
        i;
      }
      // Check if note needs to start
      else if ((current_time - note0_end) >= wait_time0){
        i++;
//        Serial.print("I: ");
//        Serial.println(i);
        note0_active = 1;
        analogWriteFrequency(notepin0, melody0[i]);
        analogWrite(notepin0, 128);
        note0_start = micros();
      }
    }
    else{
      // Check if note needs to end      
      if ((current_time - note0_start) >= duration0[i]){
        note0_active = 0;
        analogWrite(notepin0, 0);

        // Check if already at song end
        if (i+1 == size0){
//          Serial.println("END0");
          end0 = 1;
        }
        else{
          note0_end = micros();
          wait_time0 = start_time0[i+1] - (start_time0[i] + duration0[i]); // consider hardcoding this to reduce cycle time
        }
      }  
    }



    // ### VOICE 1 ### //
    
    if (!note1_active){
      // Check if voice is already done, do nothing if True
      if (end1){
        j;
      }
      // Check if note needs to start
      else if ((current_time - note1_end) >= wait_time1){
        j++;
//        Serial.print("J: ");
//        Serial.println(j);
        note1_active = 1;
        analogWriteFrequency(notepin1, melody1[j]);
        analogWrite(notepin1, 128);
        note1_start = micros();
      }
    }
    else{
      // Check if note needs to end      
      if ((current_time - note1_start) >= duration1[j]){
        note1_active = 0;
        analogWrite(notepin1, 0);

        // Check if already at song end
        if (j+1 == size1){
//          Serial.println("END1");
          end1 = 1;
        }
        else{
          note1_end = micros();
          wait_time1 = start_time1[j+1] - (start_time1[j] + duration1[j]); // consider hardcoding this to reduce cycle time
        }
      }
    }


    // ### VOICE 2 ### //

    if (!note2_active){
      // Check if voice is already done, do nothing if True
      if (end2){
        k;
      }
      // Check if note needs to start
      else if ((current_time - note2_end) >= wait_time2){
        k++;
//        Serial.print("k: ");
//        Serial.println(k);
        note2_active = 1;
        analogWriteFrequency(notepin2, melody2[k]);
        analogWrite(notepin2, 128);
        note2_start = micros();
      }
    }
    else{
      // Check if note needs to end      
      if ((current_time - note2_start) >= duration2[k]){
        note2_active = 0;
        analogWrite(notepin2, 0);

        // Check if already at song end
        if (k+1 == size2){
//          Serial.println("END2");
          end2 = 1;
        }
        else{
          note2_end = micros();
          wait_time2 = start_time2[k+1] - (start_time2[k] + duration2[k]); // consider hardcoding this to reduce cycle time
        }
      }
    }
//
//    if (!note2_active){
//      // Check if voice is already done, do nothing if True
//      if (end2){
//        k;
//      }
//      // Check if note needs to start
//      else if ((current_time - note2_end) >= wait_time2){
//        k++;
////        Serial.print("K: ");
////        Serial.println(k);
//        note2_active = 1;
//        digitalWrite(notepin2, HIGH);
//        elapsed2 = 0;
//        note2_start = micros();
//        usec2 = (1000000/melody2[k])/2;
//      }
//    }
//    else{
//      // Check if note needs to end      
//      if ((current_time - note2_start) >= duration2[k]){
//        note2_active = 0;
//        digitalWrite(notepin2, LOW);
//
//        // Check if already at song end
//        if (k+1 == size2){
////          Serial.println("END2");
//          end2 = 1;
//        }
//        else{
//          note2_end = micros();
//          wait_time2 = start_time2[k+1] - (start_time2[k] + duration2[k]); // consider hardcoding this to reduce cycle time
//        }
//      }

//      // If didn't end, check proper note state and set if needed
//      if (elapsed2 > usec2){
//        state2 = !state2;
//        digitalWrite(notepin2, state2);
//        elapsed2 = 0;
//      }      
//    }

    // If all voices are finished, break out of while loop and play song again
    if (end0 & end1 & end2){
      break;
    }

//    elapsed2 += main_cycle_usec;
    delayMicroseconds(main_cycle_usec);
  }

  digitalWrite(13, HIGH);
  delay(500);
  digitalWrite(13, LOW);
  delay(500);
  digitalWrite(13, HIGH);
  delay(500);
  digitalWrite(13, LOW);
  delay(500);
}
