#include <pitches.h>

int melody0[] = {
NOTE_G4,
NOTE_G4,
NOTE_D4,
NOTE_G4,
NOTE_F4,
NOTE_F4,
NOTE_G4,
NOTE_A4,
NOTE_AS4,
NOTE_AS4,
NOTE_G4,
NOTE_AS4,
NOTE_A4,
NOTE_A4,
NOTE_AS4,
NOTE_C5,
NOTE_D5,
NOTE_C5,
NOTE_C5,
NOTE_C5,
NOTE_D5,
NOTE_C5,
NOTE_B4,
NOTE_A4,
NOTE_G4,
NOTE_D4,
NOTE_G4,
NOTE_G4,
NOTE_A4,
NOTE_B4,
NOTE_C5,
NOTE_D5,
NOTE_D5,
NOTE_D5,
NOTE_DS5,
NOTE_F5,
NOTE_G5,
NOTE_G5,
NOTE_G5,
NOTE_F5,
NOTE_DS5,
NOTE_F5,
NOTE_DS5,
NOTE_D5,
NOTE_D5,
NOTE_DS5,
NOTE_D5,
NOTE_C5,
NOTE_C5,
NOTE_D5,
NOTE_DS5,
NOTE_D5,
NOTE_C5,
NOTE_AS4,
NOTE_AS4,
NOTE_C5,
NOTE_D5,
NOTE_C5,
NOTE_AS4,
NOTE_A4,
NOTE_A4,
NOTE_B4,
NOTE_CS5,
NOTE_E5,
NOTE_D5,
NOTE_D4,
NOTE_C4,
NOTE_C4,
NOTE_C4,
NOTE_D4,
NOTE_G4,
NOTE_D4,
NOTE_G4,
NOTE_G4,
NOTE_A4,
NOTE_B4,
NOTE_C5,
NOTE_D5,
NOTE_D5,
NOTE_D5,
NOTE_DS5,
NOTE_F5,
NOTE_G5,
NOTE_G5,
NOTE_G5,
NOTE_F5,
NOTE_DS5,
NOTE_F5,
NOTE_DS5,
NOTE_D5,
NOTE_D5,
NOTE_DS5,
NOTE_D5,
NOTE_C5,
NOTE_C5,
NOTE_D5,
NOTE_DS5,
NOTE_D5,
NOTE_C5,
NOTE_AS4,
NOTE_A4,
NOTE_AS4,
NOTE_C5,
NOTE_AS4,
NOTE_C5,
NOTE_D5,
NOTE_D5,
NOTE_D5,
NOTE_C5,
NOTE_AS4,
NOTE_D5,
NOTE_AS4,
NOTE_G4,
NOTE_FS4,
NOTE_FS4,
NOTE_E4,
NOTE_FS4,
NOTE_G4,
NOTE_A4,
NOTE_AS4,
NOTE_C5,
NOTE_AS4,
NOTE_A4,
NOTE_AS4,
NOTE_D5,
NOTE_DS5,
NOTE_F5,
NOTE_G5,
NOTE_D5,
NOTE_G5,
NOTE_G5,
NOTE_A5,
NOTE_AS5,
NOTE_C6,
NOTE_A5,
NOTE_F5,
NOTE_C5,
NOTE_C5,
NOTE_D5,
NOTE_F5,
NOTE_DS5,
NOTE_D5,
NOTE_C5,
NOTE_D5,
NOTE_G4,
NOTE_G4,
NOTE_G4,
NOTE_FS4,
NOTE_G4,
NOTE_A4,
NOTE_AS4,
NOTE_C5,
NOTE_D5,
NOTE_D5,
NOTE_C5,
NOTE_D5,
NOTE_AS5,
NOTE_A5,
NOTE_G5,
NOTE_D5,
NOTE_D5,
NOTE_D5,
NOTE_AS4,
NOTE_G5,
NOTE_GS5,
NOTE_AS5,
NOTE_C6,
NOTE_C6,
NOTE_D6,
NOTE_DS6,
NOTE_F6,
NOTE_DS6,
NOTE_D6,
NOTE_D5,
NOTE_D5,
NOTE_D5,
NOTE_E5,
NOTE_E5,
NOTE_E5,
NOTE_FS5,
NOTE_G4,
NOTE_D4,
NOTE_G4,
NOTE_G4,
NOTE_A4,
NOTE_B4,
NOTE_C5,
NOTE_D5,
NOTE_D5,
NOTE_D5,
NOTE_DS5,
NOTE_F5,
NOTE_G5,
NOTE_G5,
NOTE_G5,
NOTE_F5,
NOTE_DS5,
NOTE_F5,
NOTE_DS5,
NOTE_D5,
NOTE_D5,
NOTE_DS5,
NOTE_D5,
NOTE_C5,
NOTE_C5,
NOTE_D5,
NOTE_DS5,
NOTE_D5,
NOTE_C5,
NOTE_AS4,
NOTE_AS4,
NOTE_C5,
NOTE_D5,
NOTE_C5,
NOTE_AS4,
NOTE_A4,
NOTE_A4,
NOTE_B4,
NOTE_CS5,
NOTE_E5,
NOTE_D5,
NOTE_D4,
NOTE_C4,
NOTE_C4,
NOTE_C4,
NOTE_D4,
NOTE_G4,
NOTE_D4,
NOTE_G4,
NOTE_G4,
NOTE_A4,
NOTE_B4,
NOTE_C5,
NOTE_D5,
NOTE_D5,
NOTE_D5,
NOTE_DS5,
NOTE_F5,
NOTE_G5,
NOTE_G5,
NOTE_G5,
NOTE_F5,
NOTE_DS5,
NOTE_F5,
NOTE_DS5,
NOTE_D5,
NOTE_D5,
NOTE_DS5,
NOTE_D5,
NOTE_C5,
NOTE_C5,
NOTE_D5,
NOTE_DS5,
NOTE_D5,
NOTE_C5,
NOTE_AS4,
NOTE_A4,
NOTE_AS4,
NOTE_C5,
NOTE_AS4,
NOTE_C5,
NOTE_D5,
NOTE_D5,
NOTE_D5,
NOTE_C5,
NOTE_AS4,
NOTE_D5,
NOTE_AS4,
NOTE_G4,
NOTE_FS4,
NOTE_FS4,
NOTE_E4,
NOTE_FS4,
NOTE_G4,
NOTE_A4,
NOTE_AS4,
NOTE_C5,
NOTE_AS4,
NOTE_A4,
NOTE_AS4,
NOTE_D5,
NOTE_DS5,
NOTE_F5,
NOTE_G5,
NOTE_D5,
NOTE_G5,
NOTE_G5,
NOTE_A5,
NOTE_AS5,
NOTE_C6,
NOTE_A5,
NOTE_F5,
NOTE_C5,
NOTE_C5,
NOTE_D5,
NOTE_F5,
NOTE_DS5,
NOTE_D5,
NOTE_C5,
NOTE_D5,
NOTE_G4,
NOTE_G4,
NOTE_G4,
NOTE_FS4,
NOTE_G4,
NOTE_A4,
NOTE_AS4,
NOTE_C5,
NOTE_D5,
NOTE_D5,
NOTE_C5,
NOTE_D5,
NOTE_AS5,
NOTE_A5,
NOTE_G5,
NOTE_D5,
NOTE_D5,
NOTE_D5,
NOTE_AS4,
NOTE_G5,
NOTE_GS5,
NOTE_AS5,
NOTE_C6,
NOTE_C6,
NOTE_D6,
NOTE_DS6,
NOTE_F6,
NOTE_DS6,
NOTE_D6,
NOTE_D5,
NOTE_D5,
NOTE_D5,
NOTE_E5,
NOTE_E5,
NOTE_E5,
NOTE_FS5,
NOTE_G4,
NOTE_D4,
NOTE_G4,
NOTE_G4,
NOTE_A4,
NOTE_B4,
NOTE_C5,
NOTE_D5,
NOTE_D5,
NOTE_D5,
NOTE_DS5,
NOTE_F5,
NOTE_G5,
NOTE_G5,
NOTE_G5,
NOTE_F5,
NOTE_DS5,
NOTE_F5,
NOTE_DS5,
NOTE_D5,
NOTE_D5,
NOTE_DS5,
NOTE_D5,
NOTE_C5,
NOTE_C5,
NOTE_D5,
NOTE_DS5,
NOTE_D5,
NOTE_C5,
NOTE_AS4,
NOTE_AS4,
NOTE_C5,
NOTE_D5,
NOTE_C5,
NOTE_AS4,
NOTE_A4,
NOTE_A4,
NOTE_B4,
NOTE_CS5,
NOTE_E5,
NOTE_D5,
NOTE_D4,
NOTE_C4,
NOTE_C4,
NOTE_C4,
NOTE_D4,
NOTE_G4,
NOTE_D4,
NOTE_G4,
NOTE_G4,
NOTE_A4,
NOTE_B4,
NOTE_C5,
NOTE_D5,
NOTE_D5,
NOTE_D5,
NOTE_DS5,
NOTE_F5,
NOTE_G5,
NOTE_G5,
NOTE_G5,
NOTE_F5,
NOTE_DS5,
NOTE_F5,
NOTE_DS5,
NOTE_D5,
NOTE_D5,
NOTE_DS5,
NOTE_D5,
NOTE_C5,
NOTE_C5,
NOTE_D5,
NOTE_DS5,
NOTE_D5,
NOTE_C5,
NOTE_AS4,
NOTE_A4,
NOTE_AS4,
NOTE_C5,
NOTE_AS4,
NOTE_C5,
NOTE_D5,
NOTE_D5,
NOTE_D5,
NOTE_C5,
NOTE_AS4,
NOTE_D5,
NOTE_AS4,
NOTE_G4,
NOTE_FS4,
NOTE_FS4,
NOTE_E4,
NOTE_FS4,
NOTE_G4,
NOTE_A4,
NOTE_AS4,
NOTE_C5,
NOTE_AS4,
NOTE_A4,
NOTE_AS4,
NOTE_D5,
NOTE_DS5,
NOTE_F5,
NOTE_G5,
NOTE_D5,
NOTE_G5,
NOTE_G5,
NOTE_A5,
NOTE_AS5,
NOTE_C6,
NOTE_A5,
NOTE_F5,
NOTE_C5,
NOTE_C5,
NOTE_D5,
NOTE_F5,
NOTE_DS5,
NOTE_D5,
NOTE_C5,
NOTE_D5,
NOTE_G4,
NOTE_G4,
NOTE_G4,
NOTE_FS4,
NOTE_G4,
NOTE_A4,
NOTE_AS4,
NOTE_C5,
NOTE_D5,
NOTE_D5,
NOTE_C5,
NOTE_D5,
NOTE_AS5,
NOTE_A5,
NOTE_G5,
NOTE_D5,
NOTE_D5,
NOTE_D5,
NOTE_AS4,
NOTE_G5,
NOTE_GS5,
NOTE_AS5,
NOTE_C6,
NOTE_C6,
NOTE_D6,
NOTE_DS6,
NOTE_F6,
NOTE_DS6,
NOTE_D6,
NOTE_D5,
NOTE_D5,
NOTE_D5,
NOTE_E5,
NOTE_E5,
NOTE_E5,
NOTE_FS5,
NOTE_G4,
NOTE_D4,
NOTE_G4,
NOTE_G4,
NOTE_A4,
NOTE_B4,
NOTE_C5,
NOTE_D5,
NOTE_D5,
NOTE_D5,
NOTE_DS5,
NOTE_F5,
NOTE_G5,
NOTE_G5,
NOTE_G5,
NOTE_F5,
NOTE_DS5,
NOTE_F5,
NOTE_DS5,
NOTE_D5,
NOTE_D5,
NOTE_DS5,
NOTE_D5,
NOTE_C5,
NOTE_C5,
NOTE_D5,
NOTE_DS5,
NOTE_D5,
NOTE_C5,
};

int start_time0[] = {
2483437.5,
2880787.5,
3013237.5,
3145687.5,
3278137.5,
3675487.5,
3807937.5,
3940387.5,
4072837.5,
4470187.5,
4602637.5,
4735087.5,
4867537.5,
5264887.5,
5397337.5,
5529787.5,
5662237.5,
6854287.5,
6986737.5,
7119187.5,
7251637.5,
8443687.5,
8576137.5,
8708587.5,
8841037.5,
9238387.5,
9933750.0,
10033087.5,
10132425.0,
10231762.5,
10331100.0,
10430437.5,
11490037.5,
11622487.5,
11754937.5,
11887387.5,
12019837.5,
13079437.5,
13211887.5,
13344337.5,
13476787.5,
13609237.5,
13874137.5,
14006587.5,
14801287.5,
14933737.5,
15066187.5,
15198637.5,
15397312.5,
15496650.0,
15595987.5,
16390687.5,
16589362.5,
16788037.5,
16986712.5,
17086050.0,
17185387.5,
17980087.5,
18178762.5,
18377437.5,
18576112.5,
18675450.0,
18774787.5,
19569487.5,
19966837.5,
20297962.5,
20364187.5,
20496637.5,
20629087.5,
20761537.5,
21556237.5,
21953587.5,
22648950.0,
22748287.5,
22847625.0,
22946962.5,
23046300.0,
23145637.5,
24205237.5,
24337687.5,
24470137.5,
24602587.5,
24735037.5,
25794637.5,
25927087.5,
26059537.5,
26191987.5,
26324437.5,
26589337.5,
26721787.5,
27516487.5,
27648937.5,
27781387.5,
27913837.5,
28112512.5,
28211850.0,
28311187.5,
29105887.5,
29304562.5,
29503237.5,
29635687.5,
29768137.5,
29900587.5,
30033037.5,
30165487.5,
30297937.5,
30562837.5,
30695287.5,
30827737.5,
30960187.5,
31092637.5,
31390650.0,
31688662.5,
31887337.5,
32284687.5,
32417137.5,
32549587.5,
32682037.5,
32814487.5,
32946937.5,
33079387.5,
33211837.5,
33344287.5,
33476737.5,
33874087.5,
34006537.5,
34138987.5,
34271437.5,
34668787.5,
35364150.0,
35463487.5,
35562825.0,
35662162.5,
35761500.0,
35860837.5,
36125737.5,
36258187.5,
36854212.5,
36953550.0,
37052887.5,
37152225.0,
37251562.5,
37350900.0,
37450237.5,
37715137.5,
37847587.5,
38443612.5,
38542950.0,
38642287.5,
38741625.0,
38840962.5,
38940300.0,
39039637.5,
40231687.5,
40364137.5,
40496587.5,
40629037.5,
40893937.5,
41026387.5,
41556187.5,
41688637.5,
41821087.5,
41953537.5,
42085987.5,
42218437.5,
42483337.5,
42615787.5,
43145587.5,
43278037.5,
43410487.5,
43542937.5,
43675387.5,
43807837.5,
45595912.5,
45662137.5,
45728362.5,
45794587.5,
45927037.5,
46059487.5,
46191937.5,
46986637.5,
47383987.5,
48079350.0,
48178687.5,
48278025.0,
48377362.5,
48476700.0,
48576037.5,
49635637.5,
49768087.5,
49900537.5,
50032987.5,
50165437.5,
51225037.5,
51357487.5,
51489937.5,
51622387.5,
51754837.5,
52019737.5,
52152187.5,
52946887.5,
53079337.5,
53211787.5,
53344237.5,
53542912.5,
53642250.0,
53741587.5,
54536287.5,
54734962.5,
54933637.5,
55132312.5,
55231650.0,
55330987.5,
56125687.5,
56324362.5,
56523037.5,
56721712.5,
56821050.0,
56920387.5,
57715087.5,
58112437.5,
58443562.5,
58509787.5,
58642237.5,
58774687.5,
58907137.5,
59701837.5,
60099187.5,
60794550.0,
60893887.5,
60993225.0,
61092562.5,
61191900.0,
61291237.5,
62350837.5,
62483287.5,
62615737.5,
62748187.5,
62880637.5,
63940237.5,
64072687.5,
64205137.5,
64337587.5,
64470037.5,
64734937.5,
64867387.5,
65662087.5,
65794537.5,
65926987.5,
66059437.5,
66258112.5,
66357450.0,
66456787.5,
67251487.5,
67450162.5,
67648837.5,
67781287.5,
67913737.5,
68046187.5,
68178637.5,
68311087.5,
68443537.5,
68708437.5,
68840887.5,
68973337.5,
69105787.5,
69238237.5,
69536250.0,
69834262.5,
70032937.5,
70430287.5,
70562737.5,
70695187.5,
70827637.5,
70960087.5,
71092537.5,
71224987.5,
71357437.5,
71489887.5,
71622337.5,
72019687.5,
72152137.5,
72284587.5,
72417037.5,
72814387.5,
73509750.0,
73609087.5,
73708425.0,
73807762.5,
73907100.0,
74006437.5,
74271337.5,
74403787.5,
74999812.5,
75099150.0,
75198487.5,
75297825.0,
75397162.5,
75496500.0,
75595837.5,
75860737.5,
75993187.5,
76589212.5,
76688550.0,
76787887.5,
76887225.0,
76986562.5,
77085900.0,
77185237.5,
78377287.5,
78509737.5,
78642187.5,
78774637.5,
79039537.5,
79171987.5,
79701787.5,
79834237.5,
79966687.5,
80099137.5,
80231587.5,
80364037.5,
80628937.5,
80761387.5,
81291187.5,
81423637.5,
81556087.5,
81688537.5,
81820987.5,
81953437.5,
83741512.5,
83807737.5,
83873962.5,
83940187.5,
84072637.5,
84205087.5,
84337537.5,
85132237.5,
85529587.5,
86224950.0,
86324287.5,
86423625.0,
86522962.5,
86622300.0,
86721637.5,
87781237.5,
87913687.5,
88046137.5,
88178587.5,
88311037.5,
89370637.5,
89503087.5,
89635537.5,
89767987.5,
89900437.5,
90165337.5,
90297787.5,
91092487.5,
91224937.5,
91357387.5,
91489837.5,
91688512.5,
91787850.0,
91887187.5,
92681887.5,
92880562.5,
93079237.5,
93277912.5,
93377250.0,
93476587.5,
94271287.5,
94469962.5,
94668637.5,
94867312.5,
94966650.0,
95065987.5,
95860687.5,
96258037.5,
96589162.5,
96655387.5,
96787837.5,
96920287.5,
97052737.5,
97847437.5,
98244787.5,
98940150.0,
99039487.5,
99138825.0,
99238162.5,
99337500.0,
99436837.5,
100496437.5,
100628887.5,
100761337.5,
100893787.5,
101026237.5,
102085837.5,
102218287.5,
102350737.5,
102483187.5,
102615637.5,
102880537.5,
103012987.5,
103807687.5,
103940137.5,
104072587.5,
104205037.5,
104403712.5,
104503050.0,
104602387.5,
105397087.5,
105595762.5,
105794437.5,
105926887.5,
106059337.5,
106191787.5,
106324237.5,
106456687.5,
106589137.5,
106854037.5,
106986487.5,
107118937.5,
107251387.5,
107383837.5,
107681850.0,
107979862.5,
108178537.5,
108575887.5,
108708337.5,
108840787.5,
108973237.5,
109105687.5,
109238137.5,
109370587.5,
109503037.5,
109635487.5,
109767937.5,
110165287.5,
110297737.5,
110430187.5,
110562637.5,
110959987.5,
111655350.0,
111754687.5,
111854025.0,
111953362.5,
112052700.0,
112152037.5,
112416937.5,
112549387.5,
113145412.5,
113244750.0,
113344087.5,
113443425.0,
113542762.5,
113642100.0,
113741437.5,
114006337.5,
114138787.5,
114734812.5,
114834150.0,
114933487.5,
115032825.0,
115132162.5,
115231500.0,
115330837.5,
116522887.5,
116655337.5,
116787787.5,
116920237.5,
117185137.5,
117317587.5,
117847387.5,
117979837.5,
118112287.5,
118244737.5,
118377187.5,
118509637.5,
118774537.5,
118906987.5,
119436787.5,
119569237.5,
119701687.5,
119834137.5,
119966587.5,
120099037.5,
121887112.5,
121953337.5,
122019562.5,
122085787.5,
122218237.5,
122350687.5,
122483137.5,
123277837.5,
123675187.5,
124370550.0,
124469887.5,
124569225.0,
124668562.5,
124767900.0,
124867237.5,
125926837.5,
126059287.5,
126191737.5,
126324187.5,
126456637.5,
127516237.5,
127648687.5,
127781137.5,
127913587.5,
128046037.5,
128310937.5,
128443387.5,
129238087.5,
129370537.5,
129502987.5,
129635437.5,
129834112.5,
129933450.0,
130032787.5,
130827487.5,
131026162.5,
};

int duration0[] = {
223509.375,
107615.625,
107615.625,
107615.625,
223509.375,
107615.625,
107615.625,
107615.625,
215231.25,
107615.625,
107615.625,
107615.625,
215231.25,
107615.625,
107615.625,
107615.625,
968540.625,
107615.625,
107615.625,
107615.625,
968540.625,
107615.625,
107615.625,
107615.625,
215231.25,
430462.5,
82781.25,
82781.25,
82781.25,
82781.25,
82781.25,
662250.0,
107615.625,
107615.625,
107615.625,
107615.625,
662250.0,
107615.625,
107615.625,
107615.625,
107615.625,
107615.625,
107615.625,
430462.5,
107615.625,
107615.625,
107615.625,
157284.375,
82781.25,
82781.25,
645693.75,
157284.375,
157284.375,
157284.375,
82781.25,
82781.25,
645693.75,
157284.375,
157284.375,
157284.375,
74503.125,
74503.125,
596025.0,
298012.5,
298012.5,
33112.5,
107615.625,
107615.625,
107615.625,
331125.0,
215231.25,
430462.5,
82781.25,
82781.25,
82781.25,
82781.25,
82781.25,
662250.0,
107615.625,
107615.625,
107615.625,
107615.625,
662250.0,
107615.625,
107615.625,
107615.625,
107615.625,
107615.625,
107615.625,
430462.5,
107615.625,
107615.625,
107615.625,
157284.375,
82781.25,
82781.25,
645693.75,
157284.375,
157284.375,
132450.0,
132450.0,
132450.0,
132450.0,
132450.0,
132450.0,
107615.625,
107615.625,
107615.625,
107615.625,
107615.625,
248343.75,
298012.5,
198675.0,
397350.0,
132450.0,
132450.0,
132450.0,
107615.625,
107615.625,
107615.625,
107615.625,
107615.625,
107615.625,
223509.375,
107615.625,
107615.625,
107615.625,
331125.0,
529800.0,
82781.25,
82781.25,
82781.25,
82781.25,
82781.25,
107615.625,
107615.625,
488409.375,
82781.25,
82781.25,
82781.25,
82781.25,
82781.25,
82781.25,
107615.625,
107615.625,
496687.5,
82781.25,
82781.25,
82781.25,
82781.25,
82781.25,
82781.25,
662250.0,
107615.625,
107615.625,
107615.625,
107615.625,
107615.625,
455296.875,
107615.625,
107615.625,
107615.625,
107615.625,
107615.625,
107615.625,
107615.625,
322846.875,
107615.625,
107615.625,
107615.625,
107615.625,
107615.625,
1440393.75,
41390.625,
41390.625,
41390.625,
107615.625,
107615.625,
107615.625,
322846.875,
215231.25,
430462.5,
82781.25,
82781.25,
82781.25,
82781.25,
82781.25,
662250.0,
107615.625,
107615.625,
107615.625,
107615.625,
662250.0,
107615.625,
107615.625,
107615.625,
107615.625,
107615.625,
107615.625,
430462.5,
107615.625,
107615.625,
107615.625,
157284.375,
82781.25,
82781.25,
645693.75,
157284.375,
157284.375,
157284.375,
82781.25,
82781.25,
645693.75,
157284.375,
157284.375,
157284.375,
74503.125,
74503.125,
596025.0,
298012.5,
298012.5,
33112.5,
107615.625,
107615.625,
107615.625,
331125.0,
215231.25,
430462.5,
82781.25,
82781.25,
82781.25,
82781.25,
82781.25,
662250.0,
107615.625,
107615.625,
107615.625,
107615.625,
662250.0,
107615.625,
107615.625,
107615.625,
107615.625,
107615.625,
107615.625,
430462.5,
107615.625,
107615.625,
107615.625,
157284.375,
82781.25,
82781.25,
645693.75,
157284.375,
157284.375,
132450.0,
132450.0,
132450.0,
132450.0,
132450.0,
132450.0,
107615.625,
107615.625,
107615.625,
107615.625,
107615.625,
248343.75,
298012.5,
198675.0,
397350.0,
132450.0,
132450.0,
132450.0,
107615.625,
107615.625,
107615.625,
107615.625,
107615.625,
107615.625,
223509.375,
107615.625,
107615.625,
107615.625,
331125.0,
529800.0,
82781.25,
82781.25,
82781.25,
82781.25,
82781.25,
107615.625,
107615.625,
488409.375,
82781.25,
82781.25,
82781.25,
82781.25,
82781.25,
82781.25,
107615.625,
107615.625,
496687.5,
82781.25,
82781.25,
82781.25,
82781.25,
82781.25,
82781.25,
662250.0,
107615.625,
107615.625,
107615.625,
107615.625,
107615.625,
455296.875,
107615.625,
107615.625,
107615.625,
107615.625,
107615.625,
107615.625,
107615.625,
322846.875,
107615.625,
107615.625,
107615.625,
107615.625,
107615.625,
1440393.75,
41390.625,
41390.625,
41390.625,
107615.625,
107615.625,
107615.625,
322846.875,
215231.25,
430462.5,
82781.25,
82781.25,
82781.25,
82781.25,
82781.25,
662250.0,
107615.625,
107615.625,
107615.625,
107615.625,
662250.0,
107615.625,
107615.625,
107615.625,
107615.625,
107615.625,
107615.625,
430462.5,
107615.625,
107615.625,
107615.625,
157284.375,
82781.25,
82781.25,
645693.75,
157284.375,
157284.375,
157284.375,
82781.25,
82781.25,
645693.75,
157284.375,
157284.375,
157284.375,
74503.125,
74503.125,
596025.0,
298012.5,
298012.5,
33112.5,
107615.625,
107615.625,
107615.625,
331125.0,
215231.25,
430462.5,
82781.25,
82781.25,
82781.25,
82781.25,
82781.25,
662250.0,
107615.625,
107615.625,
107615.625,
107615.625,
662250.0,
107615.625,
107615.625,
107615.625,
107615.625,
107615.625,
107615.625,
430462.5,
107615.625,
107615.625,
107615.625,
157284.375,
82781.25,
82781.25,
645693.75,
157284.375,
157284.375,
132450.0,
132450.0,
132450.0,
132450.0,
132450.0,
132450.0,
107615.625,
107615.625,
107615.625,
107615.625,
107615.625,
248343.75,
298012.5,
198675.0,
397350.0,
132450.0,
132450.0,
132450.0,
107615.625,
107615.625,
107615.625,
107615.625,
107615.625,
107615.625,
223509.375,
107615.625,
107615.625,
107615.625,
331125.0,
529800.0,
82781.25,
82781.25,
82781.25,
82781.25,
82781.25,
107615.625,
107615.625,
488409.375,
82781.25,
82781.25,
82781.25,
82781.25,
82781.25,
82781.25,
107615.625,
107615.625,
496687.5,
82781.25,
82781.25,
82781.25,
82781.25,
82781.25,
82781.25,
662250.0,
107615.625,
107615.625,
107615.625,
107615.625,
107615.625,
455296.875,
107615.625,
107615.625,
107615.625,
107615.625,
107615.625,
107615.625,
107615.625,
322846.875,
107615.625,
107615.625,
107615.625,
107615.625,
107615.625,
1440393.75,
41390.625,
41390.625,
41390.625,
107615.625,
107615.625,
107615.625,
322846.875,
215231.25,
430462.5,
82781.25,
82781.25,
82781.25,
82781.25,
82781.25,
662250.0,
107615.625,
107615.625,
107615.625,
107615.625,
662250.0,
107615.625,
107615.625,
107615.625,
107615.625,
107615.625,
107615.625,
430462.5,
107615.625,
107615.625,
107615.625,
157284.375,
82781.25,
82781.25,
645693.75,
157284.375,
157284.375,
};

int melody1[] = {
NOTE_B3,
NOTE_B3,
NOTE_B3,
NOTE_B3,
NOTE_A3,
NOTE_A3,
NOTE_B3,
NOTE_C4,
NOTE_DS4,
NOTE_DS4,
NOTE_DS4,
NOTE_DS4,
NOTE_F4,
NOTE_F4,
NOTE_F4,
NOTE_F4,
NOTE_G4,
NOTE_F4,
NOTE_F4,
NOTE_F4,
NOTE_G4,
NOTE_B3,
NOTE_C4,
NOTE_B3,
NOTE_A3,
NOTE_B3,
NOTE_B3,
NOTE_B3,
NOTE_C4,
NOTE_D4,
NOTE_E4,
NOTE_F4,
NOTE_G4,
NOTE_G4,
NOTE_A4,
NOTE_B4,
NOTE_C5,
NOTE_D5,
NOTE_F4,
NOTE_F4,
NOTE_G4,
NOTE_A4,
NOTE_AS4,
NOTE_DS4,
NOTE_DS4,
NOTE_F4,
NOTE_G4,
NOTE_A4,
NOTE_AS4,
NOTE_AS4,
NOTE_AS4,
NOTE_A4,
NOTE_G4,
NOTE_AS4,
NOTE_F4,
NOTE_F4,
NOTE_F4,
NOTE_DS4,
NOTE_F4,
NOTE_F4,
NOTE_F4,
NOTE_DS4,
NOTE_F4,
NOTE_DS4,
NOTE_DS4,
NOTE_D4,
NOTE_DS4,
NOTE_DS4,
NOTE_F4,
NOTE_G4,
NOTE_F4,
NOTE_DS4,
NOTE_D4,
NOTE_D4,
NOTE_C4,
NOTE_D4,
NOTE_D4,
NOTE_DS4,
NOTE_F4,
NOTE_DS4,
NOTE_D4,
NOTE_CS4,
NOTE_CS4,
NOTE_CS4,
NOTE_D4,
NOTE_E4,
NOTE_E4,
NOTE_FS4,
NOTE_G4,
NOTE_A4,
NOTE_AS4,
NOTE_C5,
NOTE_A4,
NOTE_E4,
NOTE_E4,
NOTE_E4,
NOTE_FS4,
NOTE_B3,
NOTE_C4,
NOTE_B3,
NOTE_A3,
NOTE_B3,
NOTE_B3,
NOTE_B3,
NOTE_C4,
NOTE_D4,
NOTE_E4,
NOTE_F4,
NOTE_G4,
NOTE_G4,
NOTE_A4,
NOTE_B4,
NOTE_C5,
NOTE_D5,
NOTE_F4,
NOTE_F4,
NOTE_G4,
NOTE_A4,
NOTE_AS4,
NOTE_DS4,
NOTE_DS4,
NOTE_F4,
NOTE_G4,
NOTE_A4,
NOTE_AS4,
NOTE_AS4,
NOTE_AS4,
NOTE_A4,
NOTE_G4,
NOTE_AS4,
NOTE_F4,
NOTE_F4,
NOTE_F4,
NOTE_DS4,
NOTE_F4,
NOTE_F4,
NOTE_F4,
NOTE_DS4,
NOTE_F4,
NOTE_DS4,
NOTE_DS4,
NOTE_D4,
NOTE_DS4,
NOTE_DS4,
NOTE_F4,
NOTE_G4,
NOTE_F4,
NOTE_DS4,
NOTE_D4,
NOTE_CS4,
NOTE_D4,
NOTE_FS4,
NOTE_G4,
NOTE_A4,
NOTE_AS4,
NOTE_AS4,
NOTE_AS4,
NOTE_A4,
NOTE_G4,
NOTE_D5,
NOTE_D6,
NOTE_G5,
NOTE_AS4,
NOTE_G4,
NOTE_A4,
NOTE_A4,
NOTE_AS4,
NOTE_C5,
NOTE_D5,
NOTE_C5,
NOTE_AS4,
NOTE_A4,
NOTE_F4,
NOTE_G4,
NOTE_D4,
NOTE_D4,
NOTE_C4,
NOTE_E4,
NOTE_G4,
NOTE_G4,
NOTE_F4,
NOTE_G4,
NOTE_A4,
NOTE_AS4,
NOTE_C5,
NOTE_D5,
NOTE_D5,
NOTE_C5,
NOTE_AS4,
NOTE_C5,
NOTE_DS5,
NOTE_GS5,
NOTE_G4,
NOTE_G4,
NOTE_G4,
NOTE_G4,
NOTE_G4,
NOTE_G4,
NOTE_G4,
NOTE_A4,
NOTE_B3,
NOTE_C4,
NOTE_B3,
NOTE_A3,
NOTE_B3,
NOTE_B3,
NOTE_B3,
NOTE_C4,
NOTE_D4,
NOTE_E4,
NOTE_F4,
NOTE_G4,
NOTE_G4,
NOTE_A4,
NOTE_B4,
NOTE_C5,
NOTE_D5,
NOTE_F4,
NOTE_F4,
NOTE_G4,
NOTE_A4,
NOTE_AS4,
NOTE_DS4,
NOTE_DS4,
NOTE_F4,
NOTE_G4,
NOTE_A4,
NOTE_AS4,
NOTE_AS4,
NOTE_AS4,
NOTE_A4,
NOTE_G4,
NOTE_AS4,
NOTE_F4,
NOTE_F4,
NOTE_F4,
NOTE_DS4,
NOTE_F4,
NOTE_F4,
NOTE_F4,
NOTE_DS4,
NOTE_F4,
NOTE_DS4,
NOTE_DS4,
NOTE_D4,
NOTE_DS4,
NOTE_DS4,
NOTE_F4,
NOTE_G4,
NOTE_F4,
NOTE_DS4,
NOTE_D4,
NOTE_D4,
NOTE_C4,
NOTE_D4,
NOTE_D4,
NOTE_DS4,
NOTE_F4,
NOTE_DS4,
NOTE_D4,
NOTE_CS4,
NOTE_CS4,
NOTE_CS4,
NOTE_D4,
NOTE_E4,
NOTE_E4,
NOTE_FS4,
NOTE_G4,
NOTE_A4,
NOTE_AS4,
NOTE_C5,
NOTE_A4,
NOTE_E4,
NOTE_E4,
NOTE_E4,
NOTE_FS4,
NOTE_B3,
NOTE_C4,
NOTE_B3,
NOTE_A3,
NOTE_B3,
NOTE_B3,
NOTE_B3,
NOTE_C4,
NOTE_D4,
NOTE_E4,
NOTE_F4,
NOTE_G4,
NOTE_G4,
NOTE_A4,
NOTE_B4,
NOTE_C5,
NOTE_D5,
NOTE_F4,
NOTE_F4,
NOTE_G4,
NOTE_A4,
NOTE_AS4,
NOTE_DS4,
NOTE_DS4,
NOTE_F4,
NOTE_G4,
NOTE_A4,
NOTE_AS4,
NOTE_AS4,
NOTE_AS4,
NOTE_A4,
NOTE_G4,
NOTE_AS4,
NOTE_F4,
NOTE_F4,
NOTE_F4,
NOTE_DS4,
NOTE_F4,
NOTE_F4,
NOTE_F4,
NOTE_DS4,
NOTE_F4,
NOTE_DS4,
NOTE_DS4,
NOTE_D4,
NOTE_DS4,
NOTE_DS4,
NOTE_F4,
NOTE_G4,
NOTE_F4,
NOTE_DS4,
NOTE_D4,
NOTE_CS4,
NOTE_D4,
NOTE_FS4,
NOTE_G4,
NOTE_A4,
NOTE_AS4,
NOTE_AS4,
NOTE_AS4,
NOTE_A4,
NOTE_G4,
NOTE_D5,
NOTE_D6,
NOTE_G5,
NOTE_AS4,
NOTE_G4,
NOTE_A4,
NOTE_A4,
NOTE_AS4,
NOTE_C5,
NOTE_D5,
NOTE_C5,
NOTE_AS4,
NOTE_A4,
NOTE_F4,
NOTE_G4,
NOTE_D4,
NOTE_D4,
NOTE_C4,
NOTE_E4,
NOTE_G4,
NOTE_G4,
NOTE_F4,
NOTE_G4,
NOTE_A4,
NOTE_AS4,
NOTE_C5,
NOTE_D5,
NOTE_D5,
NOTE_C5,
NOTE_AS4,
NOTE_C5,
NOTE_DS5,
NOTE_GS5,
NOTE_G4,
NOTE_G4,
NOTE_G4,
NOTE_G4,
NOTE_G4,
NOTE_G4,
NOTE_G4,
NOTE_A4,
NOTE_B3,
NOTE_C4,
NOTE_B3,
NOTE_A3,
NOTE_B3,
NOTE_B3,
NOTE_B3,
NOTE_C4,
NOTE_D4,
NOTE_E4,
NOTE_F4,
NOTE_G4,
NOTE_G4,
NOTE_A4,
NOTE_B4,
NOTE_C5,
NOTE_D5,
NOTE_F4,
NOTE_F4,
NOTE_G4,
NOTE_A4,
NOTE_AS4,
NOTE_DS4,
NOTE_DS4,
NOTE_F4,
NOTE_G4,
NOTE_A4,
NOTE_AS4,
NOTE_AS4,
NOTE_AS4,
NOTE_A4,
NOTE_G4,
NOTE_AS4,
NOTE_F4,
NOTE_F4,
NOTE_F4,
NOTE_DS4,
NOTE_F4,
NOTE_F4,
NOTE_F4,
NOTE_DS4,
NOTE_F4,
NOTE_DS4,
NOTE_DS4,
NOTE_D4,
NOTE_DS4,
NOTE_DS4,
NOTE_F4,
NOTE_G4,
NOTE_F4,
NOTE_DS4,
NOTE_D4,
NOTE_D4,
NOTE_C4,
NOTE_D4,
NOTE_D4,
NOTE_DS4,
NOTE_F4,
NOTE_DS4,
NOTE_D4,
NOTE_CS4,
NOTE_CS4,
NOTE_CS4,
NOTE_D4,
NOTE_E4,
NOTE_E4,
NOTE_FS4,
NOTE_G4,
NOTE_A4,
NOTE_AS4,
NOTE_C5,
NOTE_A4,
NOTE_E4,
NOTE_E4,
NOTE_E4,
NOTE_FS4,
NOTE_B3,
NOTE_C4,
NOTE_B3,
NOTE_A3,
NOTE_B3,
NOTE_B3,
NOTE_B3,
NOTE_C4,
NOTE_D4,
NOTE_E4,
NOTE_F4,
NOTE_G4,
NOTE_G4,
NOTE_A4,
NOTE_B4,
NOTE_C5,
NOTE_D5,
NOTE_F4,
NOTE_F4,
NOTE_G4,
NOTE_A4,
NOTE_AS4,
NOTE_DS4,
NOTE_DS4,
NOTE_F4,
NOTE_G4,
NOTE_A4,
NOTE_AS4,
NOTE_AS4,
NOTE_AS4,
NOTE_A4,
NOTE_G4,
NOTE_AS4,
NOTE_F4,
NOTE_F4,
NOTE_F4,
NOTE_DS4,
NOTE_F4,
NOTE_F4,
NOTE_F4,
NOTE_DS4,
NOTE_F4,
NOTE_DS4,
NOTE_DS4,
NOTE_D4,
NOTE_DS4,
NOTE_DS4,
NOTE_F4,
NOTE_G4,
NOTE_F4,
NOTE_DS4,
NOTE_D4,
NOTE_CS4,
NOTE_D4,
NOTE_FS4,
NOTE_G4,
NOTE_A4,
NOTE_AS4,
NOTE_AS4,
NOTE_AS4,
NOTE_A4,
NOTE_G4,
NOTE_D5,
NOTE_D6,
NOTE_G5,
NOTE_AS4,
NOTE_G4,
NOTE_A4,
NOTE_A4,
NOTE_AS4,
NOTE_C5,
NOTE_D5,
NOTE_C5,
NOTE_AS4,
NOTE_A4,
NOTE_F4,
NOTE_G4,
NOTE_D4,
NOTE_D4,
NOTE_C4,
NOTE_E4,
NOTE_G4,
NOTE_G4,
NOTE_F4,
NOTE_G4,
NOTE_A4,
NOTE_AS4,
NOTE_C5,
NOTE_D5,
NOTE_D5,
NOTE_C5,
NOTE_AS4,
NOTE_C5,
NOTE_DS5,
NOTE_GS5,
NOTE_G4,
NOTE_G4,
NOTE_G4,
NOTE_G4,
NOTE_G4,
NOTE_G4,
NOTE_G4,
NOTE_A4,
NOTE_B3,
NOTE_C4,
NOTE_B3,
NOTE_A3,
NOTE_B3,
NOTE_B3,
NOTE_B3,
NOTE_C4,
NOTE_D4,
NOTE_E4,
NOTE_F4,
NOTE_G4,
NOTE_G4,
NOTE_A4,
NOTE_B4,
NOTE_C5,
NOTE_D5,
NOTE_F4,
NOTE_F4,
NOTE_G4,
NOTE_A4,
NOTE_AS4,
NOTE_DS4,
NOTE_DS4,
NOTE_F4,
NOTE_G4,
NOTE_A4,
NOTE_AS4,
NOTE_AS4,
NOTE_AS4,
NOTE_A4,
NOTE_G4,
NOTE_AS4,
NOTE_F4,
NOTE_F4,
NOTE_F4,
NOTE_DS4,
NOTE_F4,
NOTE_F4,
NOTE_F4,
NOTE_DS4,
NOTE_F4,
NOTE_DS4,
NOTE_DS4,
NOTE_D4,
NOTE_DS4,
NOTE_DS4,
NOTE_F4,
NOTE_G4,
NOTE_F4,
NOTE_DS4,
};

int start_time1[] = {
2483437.5,
2880787.5,
3013237.5,
3145687.5,
3278137.5,
3675487.5,
3807937.5,
3940387.5,
4072837.5,
4470187.5,
4602637.5,
4735087.5,
4867537.5,
5264887.5,
5397337.5,
5529787.5,
5662237.5,
6854287.5,
6986737.5,
7119187.5,
7251637.5,
8841037.5,
9238387.5,
9370837.5,
9503287.5,
9635737.5,
9933750.0,
10033087.5,
10132425.0,
10231762.5,
10331100.0,
10430437.5,
10728450.0,
10827787.5,
10927125.0,
11026462.5,
11125800.0,
11225137.5,
11490037.5,
11622487.5,
11754937.5,
11887387.5,
12019837.5,
12317850.0,
12417187.5,
12516525.0,
12615862.5,
12715200.0,
12814537.5,
13079437.5,
13211887.5,
13344337.5,
13476787.5,
13609237.5,
13874137.5,
14006587.5,
14139037.5,
14271487.5,
14403937.5,
14668837.5,
14801287.5,
14933737.5,
15066187.5,
15198637.5,
15397312.5,
15496650.0,
15595987.5,
15728437.5,
15860887.5,
15993337.5,
16390687.5,
16589362.5,
16788037.5,
16986712.5,
17086050.0,
17185387.5,
17317837.5,
17450287.5,
17582737.5,
17980087.5,
18178762.5,
18377437.5,
18774787.5,
18907237.5,
19039687.5,
19172137.5,
19370812.5,
19470150.0,
19569487.5,
19668825.0,
19768162.5,
19867500.0,
19966837.5,
20364187.5,
20496637.5,
20629087.5,
20761537.5,
21556237.5,
21953587.5,
22086037.5,
22218487.5,
22350937.5,
22648950.0,
22748287.5,
22847625.0,
22946962.5,
23046300.0,
23145637.5,
23443650.0,
23542987.5,
23642325.0,
23741662.5,
23841000.0,
23940337.5,
24205237.5,
24337687.5,
24470137.5,
24602587.5,
24735037.5,
25033050.0,
25132387.5,
25231725.0,
25331062.5,
25430400.0,
25529737.5,
25794637.5,
25927087.5,
26059537.5,
26191987.5,
26324437.5,
26589337.5,
26721787.5,
26854237.5,
26986687.5,
27119137.5,
27384037.5,
27516487.5,
27648937.5,
27781387.5,
27913837.5,
28112512.5,
28211850.0,
28311187.5,
28443637.5,
28576087.5,
28708537.5,
29105887.5,
29304562.5,
29503237.5,
29635687.5,
29768137.5,
29900587.5,
30033037.5,
30165487.5,
30297937.5,
30562837.5,
30695287.5,
30827737.5,
30960187.5,
31092637.5,
31887337.5,
32682037.5,
34271437.5,
34668787.5,
35364150.0,
35463487.5,
35562825.0,
35662162.5,
35761500.0,
35860837.5,
36125737.5,
36258187.5,
37052887.5,
37450237.5,
37715137.5,
37847587.5,
38244937.5,
38642287.5,
39039637.5,
39238312.5,
39337650.0,
39436987.5,
39536325.0,
39635662.5,
39735000.0,
39834337.5,
40629037.5,
40893937.5,
41026387.5,
42218437.5,
42483337.5,
42615787.5,
44205187.5,
44337637.5,
44470087.5,
44602537.5,
45794587.5,
45927037.5,
46059487.5,
46191937.5,
46986637.5,
47383987.5,
47516437.5,
47648887.5,
47781337.5,
48079350.0,
48178687.5,
48278025.0,
48377362.5,
48476700.0,
48576037.5,
48874050.0,
48973387.5,
49072725.0,
49172062.5,
49271400.0,
49370737.5,
49635637.5,
49768087.5,
49900537.5,
50032987.5,
50165437.5,
50463450.0,
50562787.5,
50662125.0,
50761462.5,
50860800.0,
50960137.5,
51225037.5,
51357487.5,
51489937.5,
51622387.5,
51754837.5,
52019737.5,
52152187.5,
52284637.5,
52417087.5,
52549537.5,
52814437.5,
52946887.5,
53079337.5,
53211787.5,
53344237.5,
53542912.5,
53642250.0,
53741587.5,
53874037.5,
54006487.5,
54138937.5,
54536287.5,
54734962.5,
54933637.5,
55132312.5,
55231650.0,
55330987.5,
55463437.5,
55595887.5,
55728337.5,
56125687.5,
56324362.5,
56523037.5,
56920387.5,
57052837.5,
57185287.5,
57317737.5,
57516412.5,
57615750.0,
57715087.5,
57814425.0,
57913762.5,
58013100.0,
58112437.5,
58509787.5,
58642237.5,
58774687.5,
58907137.5,
59701837.5,
60099187.5,
60231637.5,
60364087.5,
60496537.5,
60794550.0,
60893887.5,
60993225.0,
61092562.5,
61191900.0,
61291237.5,
61589250.0,
61688587.5,
61787925.0,
61887262.5,
61986600.0,
62085937.5,
62350837.5,
62483287.5,
62615737.5,
62748187.5,
62880637.5,
63178650.0,
63277987.5,
63377325.0,
63476662.5,
63576000.0,
63675337.5,
63940237.5,
64072687.5,
64205137.5,
64337587.5,
64470037.5,
64734937.5,
64867387.5,
64999837.5,
65132287.5,
65264737.5,
65529637.5,
65662087.5,
65794537.5,
65926987.5,
66059437.5,
66258112.5,
66357450.0,
66456787.5,
66589237.5,
66721687.5,
66854137.5,
67251487.5,
67450162.5,
67648837.5,
67781287.5,
67913737.5,
68046187.5,
68178637.5,
68311087.5,
68443537.5,
68708437.5,
68840887.5,
68973337.5,
69105787.5,
69238237.5,
70032937.5,
70827637.5,
72417037.5,
72814387.5,
73509750.0,
73609087.5,
73708425.0,
73807762.5,
73907100.0,
74006437.5,
74271337.5,
74403787.5,
75198487.5,
75595837.5,
75860737.5,
75993187.5,
76390537.5,
76787887.5,
77185237.5,
77383912.5,
77483250.0,
77582587.5,
77681925.0,
77781262.5,
77880600.0,
77979937.5,
78774637.5,
79039537.5,
79171987.5,
80364037.5,
80628937.5,
80761387.5,
82350787.5,
82483237.5,
82615687.5,
82748137.5,
83940187.5,
84072637.5,
84205087.5,
84337537.5,
85132237.5,
85529587.5,
85662037.5,
85794487.5,
85926937.5,
86224950.0,
86324287.5,
86423625.0,
86522962.5,
86622300.0,
86721637.5,
87019650.0,
87118987.5,
87218325.0,
87317662.5,
87417000.0,
87516337.5,
87781237.5,
87913687.5,
88046137.5,
88178587.5,
88311037.5,
88609050.0,
88708387.5,
88807725.0,
88907062.5,
89006400.0,
89105737.5,
89370637.5,
89503087.5,
89635537.5,
89767987.5,
89900437.5,
90165337.5,
90297787.5,
90430237.5,
90562687.5,
90695137.5,
90960037.5,
91092487.5,
91224937.5,
91357387.5,
91489837.5,
91688512.5,
91787850.0,
91887187.5,
92019637.5,
92152087.5,
92284537.5,
92681887.5,
92880562.5,
93079237.5,
93277912.5,
93377250.0,
93476587.5,
93609037.5,
93741487.5,
93873937.5,
94271287.5,
94469962.5,
94668637.5,
95065987.5,
95198437.5,
95330887.5,
95463337.5,
95662012.5,
95761350.0,
95860687.5,
95960025.0,
96059362.5,
96158700.0,
96258037.5,
96655387.5,
96787837.5,
96920287.5,
97052737.5,
97847437.5,
98244787.5,
98377237.5,
98509687.5,
98642137.5,
98940150.0,
99039487.5,
99138825.0,
99238162.5,
99337500.0,
99436837.5,
99734850.0,
99834187.5,
99933525.0,
100032862.5,
100132200.0,
100231537.5,
100496437.5,
100628887.5,
100761337.5,
100893787.5,
101026237.5,
101324250.0,
101423587.5,
101522925.0,
101622262.5,
101721600.0,
101820937.5,
102085837.5,
102218287.5,
102350737.5,
102483187.5,
102615637.5,
102880537.5,
103012987.5,
103145437.5,
103277887.5,
103410337.5,
103675237.5,
103807687.5,
103940137.5,
104072587.5,
104205037.5,
104403712.5,
104503050.0,
104602387.5,
104734837.5,
104867287.5,
104999737.5,
105397087.5,
105595762.5,
105794437.5,
105926887.5,
106059337.5,
106191787.5,
106324237.5,
106456687.5,
106589137.5,
106854037.5,
106986487.5,
107118937.5,
107251387.5,
107383837.5,
108178537.5,
108973237.5,
110562637.5,
110959987.5,
111655350.0,
111754687.5,
111854025.0,
111953362.5,
112052700.0,
112152037.5,
112416937.5,
112549387.5,
113344087.5,
113741437.5,
114006337.5,
114138787.5,
114536137.5,
114933487.5,
115330837.5,
115529512.5,
115628850.0,
115728187.5,
115827525.0,
115926862.5,
116026200.0,
116125537.5,
116920237.5,
117185137.5,
117317587.5,
118509637.5,
118774537.5,
118906987.5,
120496387.5,
120628837.5,
120761287.5,
120893737.5,
122085787.5,
122218237.5,
122350687.5,
122483137.5,
123277837.5,
123675187.5,
123807637.5,
123940087.5,
124072537.5,
124370550.0,
124469887.5,
124569225.0,
124668562.5,
124767900.0,
124867237.5,
125165250.0,
125264587.5,
125363925.0,
125463262.5,
125562600.0,
125661937.5,
125926837.5,
126059287.5,
126191737.5,
126324187.5,
126456637.5,
126754650.0,
126853987.5,
126953325.0,
127052662.5,
127152000.0,
127251337.5,
127516237.5,
127648687.5,
127781137.5,
127913587.5,
128046037.5,
128310937.5,
128443387.5,
128575837.5,
128708287.5,
128840737.5,
129105637.5,
129238087.5,
129370537.5,
129502987.5,
129635437.5,
129834112.5,
129933450.0,
130032787.5,
130165237.5,
130297687.5,
130430137.5,
130827487.5,
131026162.5,
};

int duration1[] = {
165562.5,
82781.25,
82781.25,
82781.25,
165562.5,
82781.25,
82781.25,
82781.25,
165562.5,
82781.25,
82781.25,
82781.25,
165562.5,
82781.25,
82781.25,
82781.25,
852646.875,
82781.25,
82781.25,
82781.25,
852646.875,
165562.5,
82781.25,
82781.25,
82781.25,
165562.5,
66225.0,
66225.0,
66225.0,
66225.0,
66225.0,
190396.875,
66225.0,
66225.0,
66225.0,
66225.0,
66225.0,
132450.0,
82781.25,
82781.25,
82781.25,
82781.25,
173840.625,
66225.0,
66225.0,
66225.0,
66225.0,
66225.0,
82781.25,
82781.25,
82781.25,
82781.25,
82781.25,
82781.25,
82781.25,
82781.25,
82781.25,
82781.25,
82781.25,
82781.25,
82781.25,
82781.25,
82781.25,
124171.875,
57946.875,
57946.875,
82781.25,
82781.25,
82781.25,
165562.5,
124171.875,
124171.875,
124171.875,
57946.875,
57946.875,
74503.125,
74503.125,
74503.125,
157284.375,
115893.75,
115893.75,
157284.375,
74503.125,
74503.125,
74503.125,
157284.375,
57946.875,
57946.875,
57946.875,
57946.875,
57946.875,
57946.875,
397350.0,
99337.5,
99337.5,
99337.5,
331125.0,
165562.5,
82781.25,
82781.25,
82781.25,
165562.5,
66225.0,
66225.0,
66225.0,
66225.0,
66225.0,
190396.875,
66225.0,
66225.0,
66225.0,
66225.0,
66225.0,
132450.0,
82781.25,
82781.25,
82781.25,
82781.25,
173840.625,
66225.0,
66225.0,
66225.0,
66225.0,
66225.0,
82781.25,
82781.25,
82781.25,
82781.25,
82781.25,
82781.25,
82781.25,
82781.25,
82781.25,
82781.25,
82781.25,
82781.25,
82781.25,
82781.25,
82781.25,
124171.875,
57946.875,
57946.875,
82781.25,
82781.25,
82781.25,
165562.5,
124171.875,
124171.875,
82781.25,
82781.25,
82781.25,
82781.25,
82781.25,
82781.25,
82781.25,
82781.25,
82781.25,
82781.25,
82781.25,
711918.75,
711918.75,
951984.375,
173840.625,
422184.375,
66225.0,
66225.0,
66225.0,
66225.0,
66225.0,
99337.5,
99337.5,
554634.375,
314568.75,
99337.5,
99337.5,
289734.375,
289734.375,
289734.375,
99337.5,
66225.0,
66225.0,
66225.0,
66225.0,
66225.0,
66225.0,
529800.0,
82781.25,
82781.25,
529800.0,
82781.25,
82781.25,
794700.0,
82781.25,
82781.25,
82781.25,
347681.25,
82781.25,
82781.25,
82781.25,
248343.75,
165562.5,
82781.25,
82781.25,
82781.25,
165562.5,
66225.0,
66225.0,
66225.0,
66225.0,
66225.0,
190396.875,
66225.0,
66225.0,
66225.0,
66225.0,
66225.0,
132450.0,
82781.25,
82781.25,
82781.25,
82781.25,
173840.625,
66225.0,
66225.0,
66225.0,
66225.0,
66225.0,
82781.25,
82781.25,
82781.25,
82781.25,
82781.25,
82781.25,
82781.25,
82781.25,
82781.25,
82781.25,
82781.25,
82781.25,
82781.25,
82781.25,
82781.25,
124171.875,
57946.875,
57946.875,
82781.25,
82781.25,
82781.25,
165562.5,
124171.875,
124171.875,
124171.875,
57946.875,
57946.875,
74503.125,
74503.125,
74503.125,
157284.375,
115893.75,
115893.75,
157284.375,
74503.125,
74503.125,
74503.125,
157284.375,
57946.875,
57946.875,
57946.875,
57946.875,
57946.875,
57946.875,
397350.0,
99337.5,
99337.5,
99337.5,
331125.0,
165562.5,
82781.25,
82781.25,
82781.25,
165562.5,
66225.0,
66225.0,
66225.0,
66225.0,
66225.0,
190396.875,
66225.0,
66225.0,
66225.0,
66225.0,
66225.0,
132450.0,
82781.25,
82781.25,
82781.25,
82781.25,
173840.625,
66225.0,
66225.0,
66225.0,
66225.0,
66225.0,
82781.25,
82781.25,
82781.25,
82781.25,
82781.25,
82781.25,
82781.25,
82781.25,
82781.25,
82781.25,
82781.25,
82781.25,
82781.25,
82781.25,
82781.25,
124171.875,
57946.875,
57946.875,
82781.25,
82781.25,
82781.25,
165562.5,
124171.875,
124171.875,
82781.25,
82781.25,
82781.25,
82781.25,
82781.25,
82781.25,
82781.25,
82781.25,
82781.25,
82781.25,
82781.25,
711918.75,
711918.75,
951984.375,
173840.625,
422184.375,
66225.0,
66225.0,
66225.0,
66225.0,
66225.0,
99337.5,
99337.5,
554634.375,
314568.75,
99337.5,
99337.5,
289734.375,
289734.375,
289734.375,
99337.5,
66225.0,
66225.0,
66225.0,
66225.0,
66225.0,
66225.0,
529800.0,
82781.25,
82781.25,
529800.0,
82781.25,
82781.25,
794700.0,
82781.25,
82781.25,
82781.25,
347681.25,
82781.25,
82781.25,
82781.25,
248343.75,
165562.5,
82781.25,
82781.25,
82781.25,
165562.5,
66225.0,
66225.0,
66225.0,
66225.0,
66225.0,
190396.875,
66225.0,
66225.0,
66225.0,
66225.0,
66225.0,
132450.0,
82781.25,
82781.25,
82781.25,
82781.25,
173840.625,
66225.0,
66225.0,
66225.0,
66225.0,
66225.0,
82781.25,
82781.25,
82781.25,
82781.25,
82781.25,
82781.25,
82781.25,
82781.25,
82781.25,
82781.25,
82781.25,
82781.25,
82781.25,
82781.25,
82781.25,
124171.875,
57946.875,
57946.875,
82781.25,
82781.25,
82781.25,
165562.5,
124171.875,
124171.875,
124171.875,
57946.875,
57946.875,
74503.125,
74503.125,
74503.125,
157284.375,
115893.75,
115893.75,
157284.375,
74503.125,
74503.125,
74503.125,
157284.375,
57946.875,
57946.875,
57946.875,
57946.875,
57946.875,
57946.875,
397350.0,
99337.5,
99337.5,
99337.5,
331125.0,
165562.5,
82781.25,
82781.25,
82781.25,
165562.5,
66225.0,
66225.0,
66225.0,
66225.0,
66225.0,
190396.875,
66225.0,
66225.0,
66225.0,
66225.0,
66225.0,
132450.0,
82781.25,
82781.25,
82781.25,
82781.25,
173840.625,
66225.0,
66225.0,
66225.0,
66225.0,
66225.0,
82781.25,
82781.25,
82781.25,
82781.25,
82781.25,
82781.25,
82781.25,
82781.25,
82781.25,
82781.25,
82781.25,
82781.25,
82781.25,
82781.25,
82781.25,
124171.875,
57946.875,
57946.875,
82781.25,
82781.25,
82781.25,
165562.5,
124171.875,
124171.875,
82781.25,
82781.25,
82781.25,
82781.25,
82781.25,
82781.25,
82781.25,
82781.25,
82781.25,
82781.25,
82781.25,
711918.75,
711918.75,
951984.375,
173840.625,
422184.375,
66225.0,
66225.0,
66225.0,
66225.0,
66225.0,
99337.5,
99337.5,
554634.375,
314568.75,
99337.5,
99337.5,
289734.375,
289734.375,
289734.375,
99337.5,
66225.0,
66225.0,
66225.0,
66225.0,
66225.0,
66225.0,
529800.0,
82781.25,
82781.25,
529800.0,
82781.25,
82781.25,
794700.0,
82781.25,
82781.25,
82781.25,
347681.25,
82781.25,
82781.25,
82781.25,
248343.75,
165562.5,
82781.25,
82781.25,
82781.25,
165562.5,
66225.0,
66225.0,
66225.0,
66225.0,
66225.0,
190396.875,
66225.0,
66225.0,
66225.0,
66225.0,
66225.0,
132450.0,
82781.25,
82781.25,
82781.25,
82781.25,
173840.625,
66225.0,
66225.0,
66225.0,
66225.0,
66225.0,
206953.125,
82781.25,
82781.25,
82781.25,
82781.25,
82781.25,
82781.25,
82781.25,
82781.25,
82781.25,
82781.25,
82781.25,
82781.25,
82781.25,
82781.25,
124171.875,
57946.875,
57946.875,
82781.25,
82781.25,
82781.25,
165562.5,
124171.875,
124171.875,
};

int melody2[] = {
NOTE_G3,
NOTE_G3,
NOTE_G3,
NOTE_G3,
NOTE_F3,
NOTE_F3,
NOTE_F3,
NOTE_F3,
NOTE_DS3,
NOTE_DS3,
NOTE_DS3,
NOTE_DS3,
NOTE_F3,
NOTE_F3,
NOTE_F3,
NOTE_F3,
NOTE_DS3,
NOTE_F3,
NOTE_G3,
NOTE_G3,
NOTE_G3,
NOTE_G3,
NOTE_G3,
NOTE_D3,
NOTE_D3,
NOTE_D3,
NOTE_G3,
NOTE_G3,
NOTE_G3,
NOTE_G3,
NOTE_G3,
NOTE_D3,
NOTE_D3,
NOTE_D3,
NOTE_G2,
NOTE_G2,
NOTE_G2,
NOTE_F2,
NOTE_G2,
NOTE_G2,
NOTE_F2,
NOTE_F2,
NOTE_F2,
NOTE_DS2,
NOTE_F2,
NOTE_F2,
NOTE_DS2,
NOTE_DS2,
NOTE_DS2,
NOTE_D2,
NOTE_DS2,
NOTE_DS2,
NOTE_AS2,
NOTE_AS2,
NOTE_AS2,
NOTE_GS2,
NOTE_AS2,
NOTE_AS2,
NOTE_GS2,
NOTE_GS2,
NOTE_GS2,
NOTE_G2,
NOTE_GS2,
NOTE_GS2,
NOTE_GS2,
NOTE_GS2,
NOTE_G2,
NOTE_G2,
NOTE_G2,
NOTE_F2,
NOTE_G2,
NOTE_G2,
NOTE_G2,
NOTE_G2,
NOTE_A2,
NOTE_A2,
NOTE_A2,
NOTE_A2,
NOTE_A2,
NOTE_A2,
NOTE_A2,
NOTE_A2,
NOTE_D3,
NOTE_G3,
NOTE_G3,
NOTE_G3,
NOTE_A3,
NOTE_E2,
NOTE_FS2,
NOTE_G2,
NOTE_G2,
NOTE_G2,
NOTE_F2,
NOTE_G2,
NOTE_G2,
NOTE_F2,
NOTE_F2,
NOTE_F2,
NOTE_DS2,
NOTE_F2,
NOTE_F2,
NOTE_DS2,
NOTE_DS2,
NOTE_DS2,
NOTE_D2,
NOTE_DS2,
NOTE_DS2,
NOTE_AS2,
NOTE_AS2,
NOTE_AS2,
NOTE_GS2,
NOTE_AS2,
NOTE_AS2,
NOTE_GS2,
NOTE_GS3,
NOTE_GS3,
NOTE_G3,
NOTE_GS3,
NOTE_GS3,
NOTE_GS3,
NOTE_GS3,
NOTE_G3,
NOTE_FS3,
NOTE_F3,
NOTE_E3,
NOTE_C3,
NOTE_D3,
NOTE_D3,
NOTE_D4,
NOTE_C4,
NOTE_A3,
NOTE_G3,
NOTE_A3,
NOTE_AS3,
NOTE_G3,
NOTE_DS2,
NOTE_DS3,
NOTE_G3,
NOTE_AS3,
NOTE_DS4,
NOTE_DS2,
NOTE_DS2,
NOTE_DS2,
NOTE_D2,
NOTE_D3,
NOTE_F3,
NOTE_A3,
NOTE_D4,
NOTE_D3,
NOTE_D3,
NOTE_D3,
NOTE_G2,
NOTE_G2,
NOTE_G2,
NOTE_G2,
NOTE_G2,
NOTE_G2,
NOTE_G2,
NOTE_G2,
NOTE_G2,
NOTE_G2,
NOTE_G2,
NOTE_G2,
NOTE_G2,
NOTE_G2,
NOTE_F2,
NOTE_DS2,
NOTE_DS2,
NOTE_G2,
NOTE_AS2,
NOTE_DS3,
NOTE_DS2,
NOTE_DS2,
NOTE_DS2,
NOTE_GS2,
NOTE_GS2,
NOTE_C3,
NOTE_DS3,
NOTE_GS3,
NOTE_GS2,
NOTE_GS2,
NOTE_GS2,
NOTE_D2,
NOTE_C3,
NOTE_C3,
NOTE_C3,
NOTE_C3,
NOTE_D2,
NOTE_D2,
NOTE_D2,
NOTE_D2,
NOTE_DS3,
NOTE_D3,
NOTE_C3,
NOTE_AS2,
NOTE_A2,
NOTE_G2,
NOTE_G2,
NOTE_G2,
NOTE_F2,
NOTE_G2,
NOTE_G2,
NOTE_F2,
NOTE_F2,
NOTE_F2,
NOTE_DS2,
NOTE_F2,
NOTE_F2,
NOTE_DS2,
NOTE_DS2,
NOTE_DS2,
NOTE_D2,
NOTE_DS2,
NOTE_DS2,
NOTE_AS2,
NOTE_AS2,
NOTE_AS2,
NOTE_GS2,
NOTE_AS2,
NOTE_AS2,
NOTE_GS2,
NOTE_GS2,
NOTE_GS2,
NOTE_G2,
NOTE_GS2,
NOTE_GS2,
NOTE_GS2,
NOTE_GS2,
NOTE_G2,
NOTE_G2,
NOTE_G2,
NOTE_F2,
NOTE_G2,
NOTE_G2,
NOTE_G2,
NOTE_G2,
NOTE_A2,
NOTE_A2,
NOTE_A2,
NOTE_A2,
NOTE_A2,
NOTE_A2,
NOTE_A2,
NOTE_A2,
NOTE_D3,
NOTE_G3,
NOTE_G3,
NOTE_G3,
NOTE_A3,
NOTE_E2,
NOTE_FS2,
NOTE_G2,
NOTE_G2,
NOTE_G2,
NOTE_F2,
NOTE_G2,
NOTE_G2,
NOTE_F2,
NOTE_F2,
NOTE_F2,
NOTE_DS2,
NOTE_F2,
NOTE_F2,
NOTE_DS2,
NOTE_DS2,
NOTE_DS2,
NOTE_D2,
NOTE_DS2,
NOTE_DS2,
NOTE_AS2,
NOTE_AS2,
NOTE_AS2,
NOTE_GS2,
NOTE_AS2,
NOTE_AS2,
NOTE_GS2,
NOTE_GS3,
NOTE_GS3,
NOTE_G3,
NOTE_GS3,
NOTE_GS3,
NOTE_GS3,
NOTE_GS3,
NOTE_G3,
NOTE_FS3,
NOTE_F3,
NOTE_E3,
NOTE_C3,
NOTE_D3,
NOTE_D3,
NOTE_D4,
NOTE_C4,
NOTE_A3,
NOTE_G3,
NOTE_A3,
NOTE_AS3,
NOTE_G3,
NOTE_DS2,
NOTE_DS3,
NOTE_G3,
NOTE_AS3,
NOTE_DS4,
NOTE_DS2,
NOTE_DS2,
NOTE_DS2,
NOTE_D2,
NOTE_D3,
NOTE_F3,
NOTE_A3,
NOTE_D4,
NOTE_D3,
NOTE_D3,
NOTE_D3,
NOTE_G2,
NOTE_G2,
NOTE_G2,
NOTE_G2,
NOTE_G2,
NOTE_G2,
NOTE_G2,
NOTE_G2,
NOTE_G2,
NOTE_G2,
NOTE_G2,
NOTE_G2,
NOTE_G2,
NOTE_G2,
NOTE_F2,
NOTE_DS2,
NOTE_DS2,
NOTE_G2,
NOTE_AS2,
NOTE_DS3,
NOTE_DS2,
NOTE_DS2,
NOTE_DS2,
NOTE_GS2,
NOTE_GS2,
NOTE_C3,
NOTE_DS3,
NOTE_GS3,
NOTE_GS2,
NOTE_GS2,
NOTE_GS2,
NOTE_D2,
NOTE_C3,
NOTE_C3,
NOTE_C3,
NOTE_C3,
NOTE_D2,
NOTE_D2,
NOTE_D2,
NOTE_D2,
NOTE_DS3,
NOTE_D3,
NOTE_C3,
NOTE_AS2,
NOTE_A2,
NOTE_G2,
NOTE_G2,
NOTE_G2,
NOTE_F2,
NOTE_G2,
NOTE_G2,
NOTE_F2,
NOTE_F2,
NOTE_F2,
NOTE_DS2,
NOTE_F2,
NOTE_F2,
NOTE_DS2,
NOTE_DS2,
NOTE_DS2,
NOTE_D2,
NOTE_DS2,
NOTE_DS2,
NOTE_AS2,
NOTE_AS2,
NOTE_AS2,
NOTE_GS2,
NOTE_AS2,
NOTE_AS2,
NOTE_GS2,
NOTE_GS2,
NOTE_GS2,
NOTE_G2,
NOTE_GS2,
NOTE_GS2,
NOTE_GS2,
NOTE_GS2,
NOTE_G2,
NOTE_G2,
NOTE_G2,
NOTE_F2,
NOTE_G2,
NOTE_G2,
NOTE_G2,
NOTE_G2,
NOTE_A2,
NOTE_A2,
NOTE_A2,
NOTE_A2,
NOTE_A2,
NOTE_A2,
NOTE_A2,
NOTE_A2,
NOTE_D3,
NOTE_G3,
NOTE_G3,
NOTE_G3,
NOTE_A3,
NOTE_E2,
NOTE_FS2,
NOTE_G2,
NOTE_G2,
NOTE_G2,
NOTE_F2,
NOTE_G2,
NOTE_G2,
NOTE_F2,
NOTE_F2,
NOTE_F2,
NOTE_DS2,
NOTE_F2,
NOTE_F2,
NOTE_DS2,
NOTE_DS2,
NOTE_DS2,
NOTE_D2,
NOTE_DS2,
NOTE_DS2,
NOTE_AS2,
NOTE_AS2,
NOTE_AS2,
NOTE_GS2,
NOTE_AS2,
NOTE_AS2,
NOTE_GS2,
NOTE_GS3,
NOTE_GS3,
NOTE_G3,
NOTE_GS3,
NOTE_GS3,
NOTE_GS3,
NOTE_GS3,
NOTE_G3,
NOTE_FS3,
NOTE_F3,
NOTE_E3,
NOTE_C3,
NOTE_D3,
NOTE_D3,
NOTE_D4,
NOTE_C4,
NOTE_A3,
NOTE_G3,
NOTE_A3,
NOTE_AS3,
NOTE_G3,
NOTE_DS2,
NOTE_DS3,
NOTE_G3,
NOTE_AS3,
NOTE_DS4,
NOTE_DS2,
NOTE_DS2,
NOTE_DS2,
NOTE_D2,
NOTE_D3,
NOTE_F3,
NOTE_A3,
NOTE_D4,
NOTE_D3,
NOTE_D3,
NOTE_D3,
NOTE_G2,
NOTE_G2,
NOTE_G2,
NOTE_G2,
NOTE_G2,
NOTE_G2,
NOTE_G2,
NOTE_G2,
NOTE_G2,
NOTE_G2,
NOTE_G2,
NOTE_G2,
NOTE_G2,
NOTE_G2,
NOTE_F2,
NOTE_DS2,
NOTE_DS2,
NOTE_G2,
NOTE_AS2,
NOTE_DS3,
NOTE_DS2,
NOTE_DS2,
NOTE_DS2,
NOTE_GS2,
NOTE_GS2,
NOTE_C3,
NOTE_DS3,
NOTE_GS3,
NOTE_GS2,
NOTE_GS2,
NOTE_GS2,
NOTE_D2,
NOTE_C3,
NOTE_C3,
NOTE_C3,
NOTE_C3,
NOTE_D2,
NOTE_D2,
NOTE_D2,
NOTE_D2,
NOTE_DS3,
NOTE_D3,
NOTE_C3,
NOTE_AS2,
NOTE_A2,
NOTE_G2,
NOTE_G2,
NOTE_G2,
NOTE_F2,
NOTE_G2,
NOTE_G2,
NOTE_F2,
NOTE_F2,
NOTE_F2,
NOTE_DS2,
NOTE_F2,
NOTE_F2,
NOTE_DS2,
NOTE_DS2,
NOTE_DS2,
NOTE_D2,
NOTE_DS2,
NOTE_DS2,
NOTE_AS2,
NOTE_AS2,
NOTE_AS2,
NOTE_GS2,
NOTE_AS2,
NOTE_AS2,
NOTE_GS2,
NOTE_GS2,
NOTE_GS2,
NOTE_G2,
NOTE_GS2,
NOTE_GS2,
NOTE_GS2,
NOTE_GS2,
};

int start_time2[] = {
2483437.5,
2880787.5,
3013237.5,
3145687.5,
3278137.5,
3675487.5,
3807937.5,
3940387.5,
4072837.5,
4470187.5,
4602637.5,
4735087.5,
4867537.5,
4999987.5,
5132437.5,
5264887.5,
5397337.5,
5529787.5,
5662237.5,
6059587.5,
6192037.5,
6324487.5,
6456937.5,
6854287.5,
6986737.5,
7119187.5,
7251637.5,
7648987.5,
7781437.5,
7913887.5,
8046337.5,
8443687.5,
8576137.5,
8708587.5,
8841037.5,
9238387.5,
9370837.5,
9503287.5,
9635737.5,
10033087.5,
10430437.5,
10827787.5,
10960237.5,
11092687.5,
11225137.5,
11622487.5,
12019837.5,
12417187.5,
12549637.5,
12682087.5,
12814537.5,
13211887.5,
13609237.5,
14006587.5,
14139037.5,
14271487.5,
14403937.5,
14801287.5,
15198637.5,
15595987.5,
15728437.5,
15860887.5,
15993337.5,
16390687.5,
16523137.5,
16655587.5,
16788037.5,
17185387.5,
17317837.5,
17450287.5,
17582737.5,
17980087.5,
18112537.5,
18244987.5,
18377437.5,
18774787.5,
18907237.5,
19039687.5,
19172137.5,
19569487.5,
19701937.5,
19834387.5,
19966837.5,
20364187.5,
20496637.5,
20629087.5,
20761537.5,
21158887.5,
21357562.5,
21556237.5,
21953587.5,
22086037.5,
22218487.5,
22350937.5,
22748287.5,
23145637.5,
23542987.5,
23675437.5,
23807887.5,
23940337.5,
24337687.5,
24735037.5,
25132387.5,
25264837.5,
25397287.5,
25529737.5,
25927087.5,
26324437.5,
26721787.5,
26854237.5,
26986687.5,
27119137.5,
27516487.5,
27913837.5,
28311187.5,
28443637.5,
28576087.5,
28708537.5,
29105887.5,
29238337.5,
29370787.5,
29503237.5,
29900587.5,
30297937.5,
31092637.5,
31489987.5,
31887337.5,
32284687.5,
32417137.5,
32549587.5,
32682037.5,
32814487.5,
32946937.5,
33079387.5,
33476737.5,
34271437.5,
34668787.5,
34801237.5,
34933687.5,
35066137.5,
35463487.5,
35595937.5,
35728387.5,
35860837.5,
36258187.5,
36390637.5,
36523087.5,
36655537.5,
37052887.5,
37185337.5,
37317787.5,
37450237.5,
37847587.5,
37980037.5,
38112487.5,
38244937.5,
38642287.5,
38774737.5,
38907187.5,
39039637.5,
39436987.5,
39569437.5,
39701887.5,
39834337.5,
40132350.0,
40430362.5,
40629037.5,
41026387.5,
41158837.5,
41291287.5,
41423737.5,
41821087.5,
41953537.5,
42085987.5,
42218437.5,
42615787.5,
42748237.5,
42880687.5,
43013137.5,
43410487.5,
43542937.5,
43675387.5,
43807837.5,
44205187.5,
44337637.5,
44470087.5,
44602537.5,
44999887.5,
45132337.5,
45264787.5,
45397237.5,
46324387.5,
46456837.5,
46589287.5,
46721737.5,
46854187.5,
46986637.5,
47383987.5,
47516437.5,
47648887.5,
47781337.5,
48178687.5,
48576037.5,
48973387.5,
49105837.5,
49238287.5,
49370737.5,
49768087.5,
50165437.5,
50562787.5,
50695237.5,
50827687.5,
50960137.5,
51357487.5,
51754837.5,
52152187.5,
52284637.5,
52417087.5,
52549537.5,
52946887.5,
53344237.5,
53741587.5,
53874037.5,
54006487.5,
54138937.5,
54536287.5,
54668737.5,
54801187.5,
54933637.5,
55330987.5,
55463437.5,
55595887.5,
55728337.5,
56125687.5,
56258137.5,
56390587.5,
56523037.5,
56920387.5,
57052837.5,
57185287.5,
57317737.5,
57715087.5,
57847537.5,
57979987.5,
58112437.5,
58509787.5,
58642237.5,
58774687.5,
58907137.5,
59304487.5,
59503162.5,
59701837.5,
60099187.5,
60231637.5,
60364087.5,
60496537.5,
60893887.5,
61291237.5,
61688587.5,
61821037.5,
61953487.5,
62085937.5,
62483287.5,
62880637.5,
63277987.5,
63410437.5,
63542887.5,
63675337.5,
64072687.5,
64470037.5,
64867387.5,
64999837.5,
65132287.5,
65264737.5,
65662087.5,
66059437.5,
66456787.5,
66589237.5,
66721687.5,
66854137.5,
67251487.5,
67383937.5,
67516387.5,
67648837.5,
68046187.5,
68443537.5,
69238237.5,
69635587.5,
70032937.5,
70430287.5,
70562737.5,
70695187.5,
70827637.5,
70960087.5,
71092537.5,
71224987.5,
71622337.5,
72417037.5,
72814387.5,
72946837.5,
73079287.5,
73211737.5,
73609087.5,
73741537.5,
73873987.5,
74006437.5,
74403787.5,
74536237.5,
74668687.5,
74801137.5,
75198487.5,
75330937.5,
75463387.5,
75595837.5,
75993187.5,
76125637.5,
76258087.5,
76390537.5,
76787887.5,
76920337.5,
77052787.5,
77185237.5,
77582587.5,
77715037.5,
77847487.5,
77979937.5,
78277950.0,
78575962.5,
78774637.5,
79171987.5,
79304437.5,
79436887.5,
79569337.5,
79966687.5,
80099137.5,
80231587.5,
80364037.5,
80761387.5,
80893837.5,
81026287.5,
81158737.5,
81556087.5,
81688537.5,
81820987.5,
81953437.5,
82350787.5,
82483237.5,
82615687.5,
82748137.5,
83145487.5,
83277937.5,
83410387.5,
83542837.5,
84469987.5,
84602437.5,
84734887.5,
84867337.5,
84999787.5,
85132237.5,
85529587.5,
85662037.5,
85794487.5,
85926937.5,
86324287.5,
86721637.5,
87118987.5,
87251437.5,
87383887.5,
87516337.5,
87913687.5,
88311037.5,
88708387.5,
88840837.5,
88973287.5,
89105737.5,
89503087.5,
89900437.5,
90297787.5,
90430237.5,
90562687.5,
90695137.5,
91092487.5,
91489837.5,
91887187.5,
92019637.5,
92152087.5,
92284537.5,
92681887.5,
92814337.5,
92946787.5,
93079237.5,
93476587.5,
93609037.5,
93741487.5,
93873937.5,
94271287.5,
94403737.5,
94536187.5,
94668637.5,
95065987.5,
95198437.5,
95330887.5,
95463337.5,
95860687.5,
95993137.5,
96125587.5,
96258037.5,
96655387.5,
96787837.5,
96920287.5,
97052737.5,
97450087.5,
97648762.5,
97847437.5,
98244787.5,
98377237.5,
98509687.5,
98642137.5,
99039487.5,
99436837.5,
99834187.5,
99966637.5,
100099087.5,
100231537.5,
100628887.5,
101026237.5,
101423587.5,
101556037.5,
101688487.5,
101820937.5,
102218287.5,
102615637.5,
103012987.5,
103145437.5,
103277887.5,
103410337.5,
103807687.5,
104205037.5,
104602387.5,
104734837.5,
104867287.5,
104999737.5,
105397087.5,
105529537.5,
105661987.5,
105794437.5,
106191787.5,
106589137.5,
107383837.5,
107781187.5,
108178537.5,
108575887.5,
108708337.5,
108840787.5,
108973237.5,
109105687.5,
109238137.5,
109370587.5,
109767937.5,
110562637.5,
110959987.5,
111092437.5,
111224887.5,
111357337.5,
111754687.5,
111887137.5,
112019587.5,
112152037.5,
112549387.5,
112681837.5,
112814287.5,
112946737.5,
113344087.5,
113476537.5,
113608987.5,
113741437.5,
114138787.5,
114271237.5,
114403687.5,
114536137.5,
114933487.5,
115065937.5,
115198387.5,
115330837.5,
115728187.5,
115860637.5,
115993087.5,
116125537.5,
116423550.0,
116721562.5,
116920237.5,
117317587.5,
117450037.5,
117582487.5,
117714937.5,
118112287.5,
118244737.5,
118377187.5,
118509637.5,
118906987.5,
119039437.5,
119171887.5,
119304337.5,
119701687.5,
119834137.5,
119966587.5,
120099037.5,
120496387.5,
120628837.5,
120761287.5,
120893737.5,
121291087.5,
121423537.5,
121555987.5,
121688437.5,
122615587.5,
122748037.5,
122880487.5,
123012937.5,
123145387.5,
123277837.5,
123675187.5,
123807637.5,
123940087.5,
124072537.5,
124469887.5,
124867237.5,
125264587.5,
125397037.5,
125529487.5,
125661937.5,
126059287.5,
126456637.5,
126853987.5,
126986437.5,
127118887.5,
127251337.5,
127648687.5,
128046037.5,
128443387.5,
128575837.5,
128708287.5,
128840737.5,
129238087.5,
129635437.5,
130032787.5,
130165237.5,
130297687.5,
130430137.5,
130827487.5,
130959937.5,
131092387.5,
};

int duration2[] = {
91059.375,
91059.375,
91059.375,
91059.375,
91059.375,
91059.375,
91059.375,
91059.375,
91059.375,
91059.375,
91059.375,
91059.375,
91059.375,
91059.375,
91059.375,
91059.375,
91059.375,
91059.375,
107615.625,
91059.375,
91059.375,
91059.375,
107615.625,
91059.375,
91059.375,
91059.375,
107615.625,
91059.375,
91059.375,
91059.375,
107615.625,
91059.375,
91059.375,
91059.375,
107615.625,
91059.375,
91059.375,
91059.375,
107615.625,
107615.625,
107615.625,
91059.375,
91059.375,
91059.375,
107615.625,
107615.625,
107615.625,
91059.375,
91059.375,
91059.375,
107615.625,
107615.625,
107615.625,
91059.375,
91059.375,
91059.375,
107615.625,
107615.625,
107615.625,
91059.375,
91059.375,
91059.375,
91059.375,
91059.375,
91059.375,
91059.375,
91059.375,
91059.375,
91059.375,
91059.375,
91059.375,
91059.375,
91059.375,
91059.375,
91059.375,
91059.375,
91059.375,
91059.375,
91059.375,
91059.375,
91059.375,
91059.375,
91059.375,
91059.375,
91059.375,
91059.375,
273178.125,
132450.0,
132450.0,
91059.375,
91059.375,
91059.375,
91059.375,
91059.375,
91059.375,
91059.375,
91059.375,
91059.375,
91059.375,
91059.375,
91059.375,
91059.375,
91059.375,
91059.375,
91059.375,
91059.375,
91059.375,
91059.375,
91059.375,
91059.375,
91059.375,
91059.375,
91059.375,
91059.375,
91059.375,
91059.375,
91059.375,
91059.375,
91059.375,
91059.375,
91059.375,
397350.0,
397350.0,
794700.0,
397350.0,
397350.0,
132450.0,
91059.375,
91059.375,
91059.375,
91059.375,
91059.375,
91059.375,
91059.375,
91059.375,
91059.375,
91059.375,
91059.375,
91059.375,
91059.375,
91059.375,
91059.375,
91059.375,
91059.375,
91059.375,
91059.375,
91059.375,
91059.375,
91059.375,
91059.375,
91059.375,
91059.375,
91059.375,
91059.375,
91059.375,
91059.375,
91059.375,
91059.375,
91059.375,
91059.375,
91059.375,
91059.375,
91059.375,
149006.25,
165562.5,
99337.5,
91059.375,
91059.375,
91059.375,
91059.375,
91059.375,
91059.375,
91059.375,
91059.375,
91059.375,
91059.375,
91059.375,
91059.375,
91059.375,
91059.375,
91059.375,
91059.375,
149006.25,
91059.375,
91059.375,
91059.375,
91059.375,
91059.375,
91059.375,
91059.375,
91059.375,
91059.375,
91059.375,
91059.375,
91059.375,
91059.375,
107615.625,
91059.375,
91059.375,
91059.375,
107615.625,
107615.625,
107615.625,
91059.375,
91059.375,
91059.375,
107615.625,
107615.625,
107615.625,
91059.375,
91059.375,
91059.375,
107615.625,
107615.625,
107615.625,
91059.375,
91059.375,
91059.375,
107615.625,
107615.625,
107615.625,
91059.375,
91059.375,
91059.375,
91059.375,
91059.375,
91059.375,
91059.375,
91059.375,
91059.375,
91059.375,
91059.375,
91059.375,
91059.375,
91059.375,
91059.375,
91059.375,
91059.375,
91059.375,
91059.375,
91059.375,
91059.375,
91059.375,
91059.375,
91059.375,
91059.375,
91059.375,
91059.375,
273178.125,
132450.0,
132450.0,
91059.375,
91059.375,
91059.375,
91059.375,
91059.375,
91059.375,
91059.375,
91059.375,
91059.375,
91059.375,
91059.375,
91059.375,
91059.375,
91059.375,
91059.375,
91059.375,
91059.375,
91059.375,
91059.375,
91059.375,
91059.375,
91059.375,
91059.375,
91059.375,
91059.375,
91059.375,
91059.375,
91059.375,
91059.375,
91059.375,
91059.375,
91059.375,
397350.0,
397350.0,
794700.0,
397350.0,
397350.0,
132450.0,
91059.375,
91059.375,
91059.375,
91059.375,
91059.375,
91059.375,
91059.375,
91059.375,
91059.375,
91059.375,
91059.375,
91059.375,
91059.375,
91059.375,
91059.375,
91059.375,
91059.375,
91059.375,
91059.375,
91059.375,
91059.375,
91059.375,
91059.375,
91059.375,
91059.375,
91059.375,
91059.375,
91059.375,
91059.375,
91059.375,
91059.375,
91059.375,
91059.375,
91059.375,
91059.375,
91059.375,
149006.25,
165562.5,
99337.5,
91059.375,
91059.375,
91059.375,
91059.375,
91059.375,
91059.375,
91059.375,
91059.375,
91059.375,
91059.375,
91059.375,
91059.375,
91059.375,
91059.375,
91059.375,
91059.375,
149006.25,
91059.375,
91059.375,
91059.375,
91059.375,
91059.375,
91059.375,
91059.375,
91059.375,
91059.375,
91059.375,
91059.375,
91059.375,
91059.375,
107615.625,
91059.375,
91059.375,
91059.375,
107615.625,
107615.625,
107615.625,
91059.375,
91059.375,
91059.375,
107615.625,
107615.625,
107615.625,
91059.375,
91059.375,
91059.375,
107615.625,
107615.625,
107615.625,
91059.375,
91059.375,
91059.375,
107615.625,
107615.625,
107615.625,
91059.375,
91059.375,
91059.375,
91059.375,
91059.375,
91059.375,
91059.375,
91059.375,
91059.375,
91059.375,
91059.375,
91059.375,
91059.375,
91059.375,
91059.375,
91059.375,
91059.375,
91059.375,
91059.375,
91059.375,
91059.375,
91059.375,
91059.375,
91059.375,
91059.375,
91059.375,
91059.375,
273178.125,
132450.0,
132450.0,
91059.375,
91059.375,
91059.375,
91059.375,
91059.375,
91059.375,
91059.375,
91059.375,
91059.375,
91059.375,
91059.375,
91059.375,
91059.375,
91059.375,
91059.375,
91059.375,
91059.375,
91059.375,
91059.375,
91059.375,
91059.375,
91059.375,
91059.375,
91059.375,
91059.375,
91059.375,
91059.375,
91059.375,
91059.375,
91059.375,
91059.375,
91059.375,
397350.0,
397350.0,
794700.0,
397350.0,
397350.0,
132450.0,
91059.375,
91059.375,
91059.375,
91059.375,
91059.375,
91059.375,
91059.375,
91059.375,
91059.375,
91059.375,
91059.375,
91059.375,
91059.375,
91059.375,
91059.375,
91059.375,
91059.375,
91059.375,
91059.375,
91059.375,
91059.375,
91059.375,
91059.375,
91059.375,
91059.375,
91059.375,
91059.375,
91059.375,
91059.375,
91059.375,
91059.375,
91059.375,
91059.375,
91059.375,
91059.375,
91059.375,
149006.25,
165562.5,
99337.5,
91059.375,
91059.375,
91059.375,
91059.375,
91059.375,
91059.375,
91059.375,
91059.375,
91059.375,
91059.375,
91059.375,
91059.375,
91059.375,
91059.375,
91059.375,
91059.375,
149006.25,
91059.375,
91059.375,
91059.375,
91059.375,
91059.375,
91059.375,
91059.375,
91059.375,
91059.375,
91059.375,
91059.375,
91059.375,
91059.375,
107615.625,
91059.375,
91059.375,
91059.375,
107615.625,
107615.625,
107615.625,
91059.375,
91059.375,
91059.375,
107615.625,
107615.625,
107615.625,
91059.375,
91059.375,
91059.375,
107615.625,
107615.625,
107615.625,
91059.375,
91059.375,
91059.375,
107615.625,
107615.625,
107615.625,
91059.375,
91059.375,
91059.375,
91059.375,
91059.375,
91059.375,
91059.375,
};



int main_cycle_usec = 10;
int master_time = 0;

int notepin0 = 3;
int notepin2 = 5;
int notepin1 = 25;

int elapsed0 = 0;
int elapsed1 = 0;
int elapsed2 = 0;

int state0 = 0;
int state1 = 0;
int state2 = 0;

void setup() {
  Serial.begin(9600);
  pinMode(13, OUTPUT);
  pinMode(notepin0, OUTPUT);
  pinMode(notepin1, OUTPUT);
  pinMode(notepin2, OUTPUT);

  digitalWrite(13, HIGH);
  delay(500);
  digitalWrite(13, LOW);
  delay(500);
  digitalWrite(13, HIGH);
  delay(500);
  digitalWrite(13, LOW);
  delay(500);
//  tone(3, 40);
//  tone(9, 440);
  
}

float current_time;

int size0 = sizeof(melody0)/sizeof(melody0[0]);
int size1 = sizeof(melody1)/sizeof(melody1[0]);
int size2 = sizeof(melody2)/sizeof(melody2[0]);


void loop() {
  Serial.println(size0);
  Serial.println(size1);
  Serial.println(size2);
  
  int usec2 = 0;//(1000000/freq2)/2;

  int end0 = 0;
  int end1 = 0;
  int end2 = 0;

  int i = -1;
  int j = -1;
  int k = -1;
    
  int note0_active = 0;
  float note0_start = 0;
  float note0_end = micros();
  float wait_time0 = 0;
  
  int note1_active = 0;
  float note1_start = 0;
  float note1_end = micros();
  float wait_time1 = 0;
  
  int note2_active = 0;
  float note2_start = 0;
  float note2_end = micros();
  float wait_time2 = 0;

  float start_time = micros();

  while(1){

    current_time = micros();


    // ### VOICE 0 ### //
        
    if (!note0_active){
      // Check if voice is already done, do nothing if True
      if (end0){
        i;
      }
      // Check if note needs to start
      else if ((current_time - note0_end) >= wait_time0){
        i++;
//        Serial.print("I: ");
//        Serial.println(i);
        note0_active = 1;
        analogWriteFrequency(notepin0, melody0[i]);
        analogWrite(notepin0, 128);
        note0_start = micros();
      }
    }
    else{
      // Check if note needs to end      
      if ((current_time - note0_start) >= duration0[i]){
        note0_active = 0;
        analogWrite(notepin0, 0);

        // Check if already at song end
        if (i+1 == size0){
//          Serial.println("END0");
          end0 = 1;
        }
        else{
          note0_end = micros();
          wait_time0 = start_time0[i+1] - (start_time0[i] + duration0[i]); // consider hardcoding this to reduce cycle time
        }
      }  
    }



    // ### VOICE 1 ### //
    
    if (!note1_active){
      // Check if voice is already done, do nothing if True
      if (end1){
        j;
      }
      // Check if note needs to start
      else if ((current_time - note1_end) >= wait_time1){
        j++;
//        Serial.print("J: ");
//        Serial.println(j);
        note1_active = 1;
        analogWriteFrequency(notepin1, melody1[j]);
        analogWrite(notepin1, 128);
        note1_start = micros();
      }
    }
    else{
      // Check if note needs to end      
      if ((current_time - note1_start) >= duration1[j]){
        note1_active = 0;
        analogWrite(notepin1, 0);

        // Check if already at song end
        if (j+1 == size1){
//          Serial.println("END1");
          end1 = 1;
        }
        else{
          note1_end = micros();
          wait_time1 = start_time1[j+1] - (start_time1[j] + duration1[j]); // consider hardcoding this to reduce cycle time
        }
      }
    }


    // ### VOICE 2 ### //

    if (!note2_active){
      // Check if voice is already done, do nothing if True
      if (end2){
        k;
      }
      // Check if note needs to start
      else if ((current_time - note2_end) >= wait_time2){
        k++;
//        Serial.print("k: ");
//        Serial.println(k);
        note2_active = 1;
        analogWriteFrequency(notepin2, melody2[k]);
        analogWrite(notepin2, 128);
        note2_start = micros();
      }
    }
    else{
      // Check if note needs to end      
      if ((current_time - note2_start) >= duration2[k]){
        note2_active = 0;
        analogWrite(notepin2, 0);

        // Check if already at song end
        if (k+1 == size2){
//          Serial.println("END2");
          end2 = 1;
        }
        else{
          note2_end = micros();
          wait_time2 = start_time2[k+1] - (start_time2[k] + duration2[k]); // consider hardcoding this to reduce cycle time
        }
      }
    }
//
//    if (!note2_active){
//      // Check if voice is already done, do nothing if True
//      if (end2){
//        k;
//      }
//      // Check if note needs to start
//      else if ((current_time - note2_end) >= wait_time2){
//        k++;
////        Serial.print("K: ");
////        Serial.println(k);
//        note2_active = 1;
//        digitalWrite(notepin2, HIGH);
//        elapsed2 = 0;
//        note2_start = micros();
//        usec2 = (1000000/melody2[k])/2;
//      }
//    }
//    else{
//      // Check if note needs to end      
//      if ((current_time - note2_start) >= duration2[k]){
//        note2_active = 0;
//        digitalWrite(notepin2, LOW);
//
//        // Check if already at song end
//        if (k+1 == size2){
////          Serial.println("END2");
//          end2 = 1;
//        }
//        else{
//          note2_end = micros();
//          wait_time2 = start_time2[k+1] - (start_time2[k] + duration2[k]); // consider hardcoding this to reduce cycle time
//        }
//      }

//      // If didn't end, check proper note state and set if needed
//      if (elapsed2 > usec2){
//        state2 = !state2;
//        digitalWrite(notepin2, state2);
//        elapsed2 = 0;
//      }      
//    }

    // If all voices are finished, break out of while loop and play song again
    if (end0 & end1 & end2){
      break;
    }

//    elapsed2 += main_cycle_usec;
    delayMicroseconds(main_cycle_usec);
  }

  digitalWrite(13, HIGH);
  delay(500);
  digitalWrite(13, LOW);
  delay(500);
  digitalWrite(13, HIGH);
  delay(500);
  digitalWrite(13, LOW);
  delay(500);
}
