
#include <pitches.h>

int melody0[] = {
NOTE_G4,
NOTE_G4,
NOTE_D4,
NOTE_G4,
NOTE_F4,
NOTE_F4,
NOTE_G4,
NOTE_A4,
NOTE_AS4,
NOTE_AS4,
NOTE_G4,
NOTE_AS4,
NOTE_A4,
NOTE_A4,
NOTE_AS4,
NOTE_C5,
NOTE_D5,
NOTE_C5,
NOTE_C5,
NOTE_C5,
NOTE_D5,
NOTE_C5,
NOTE_B4,
NOTE_A4,
NOTE_G4,
NOTE_D4,
NOTE_G4,
NOTE_G4,
NOTE_A4,
NOTE_B4,
NOTE_C5,
NOTE_D5,
NOTE_D5,
NOTE_D5,
NOTE_DS5,
NOTE_F5,
NOTE_G5,
NOTE_G5,
NOTE_G5,
NOTE_F5,
NOTE_DS5,
NOTE_F5,
NOTE_DS5,
NOTE_D5,
NOTE_D5,
NOTE_DS5,
NOTE_D5,
NOTE_C5,
NOTE_C5,
NOTE_D5,
NOTE_DS5,
NOTE_D5,
NOTE_C5,
NOTE_AS4,
NOTE_AS4,
NOTE_C5,
NOTE_D5,
NOTE_C5,
NOTE_AS4,
NOTE_A4,
NOTE_A4,
NOTE_B4,
NOTE_CS5,
NOTE_E5,
NOTE_D5,
NOTE_G4,
NOTE_D4,
NOTE_G4,
NOTE_G4,
NOTE_A4,
NOTE_B4,
NOTE_C5,
NOTE_D5,
NOTE_D5,
NOTE_D5,
NOTE_DS5,
NOTE_F5,
NOTE_G5,
NOTE_G5,
NOTE_G5,
NOTE_F5,
NOTE_DS5,
NOTE_F5,
NOTE_DS5,
NOTE_D5,
NOTE_D5,
NOTE_DS5,
NOTE_D5,
NOTE_C5,
NOTE_C5,
NOTE_D5,
NOTE_DS5,
NOTE_D5,
NOTE_C5,
NOTE_AS4,
NOTE_A4,
NOTE_AS4,
NOTE_C5,
NOTE_AS4,
NOTE_C5,
NOTE_D5,
NOTE_D5,
NOTE_D5,
NOTE_C5,
NOTE_AS4,
NOTE_D5,
NOTE_AS4,
NOTE_G4,
NOTE_FS4,
NOTE_FS4,
NOTE_E4,
NOTE_FS4,
NOTE_G4,
NOTE_A4,
NOTE_AS4,
NOTE_C5,
NOTE_AS4,
NOTE_A4,
NOTE_AS4,
NOTE_G4,
NOTE_D4,
NOTE_G4,
NOTE_G4,
NOTE_A4,
NOTE_B4,
NOTE_C5,
NOTE_D5,
NOTE_D5,
NOTE_D5,
NOTE_DS5,
NOTE_F5,
NOTE_G5,
NOTE_G5,
NOTE_G5,
NOTE_F5,
NOTE_DS5,
NOTE_F5,
NOTE_DS5,
NOTE_D5,
NOTE_D5,
NOTE_DS5,
NOTE_D5,
NOTE_C5,
NOTE_C5,
NOTE_D5,
NOTE_DS5,
NOTE_D5,
NOTE_C5,
NOTE_AS4,
NOTE_AS4,
NOTE_C5,
NOTE_D5,
NOTE_C5,
NOTE_AS4,
NOTE_A4,
NOTE_A4,
NOTE_B4,
NOTE_CS5,
NOTE_E5,
NOTE_D5,
NOTE_G4,
NOTE_D4,
NOTE_G4,
NOTE_G4,
NOTE_A4,
NOTE_B4,
NOTE_C5,
NOTE_D5,
NOTE_D5,
NOTE_D5,
NOTE_DS5,
NOTE_F5,
NOTE_G5,
NOTE_G5,
NOTE_G5,
NOTE_F5,
NOTE_DS5,
NOTE_F5,
NOTE_DS5,
NOTE_D5,
NOTE_D5,
NOTE_DS5,
NOTE_D5,
NOTE_C5,
NOTE_C5,
NOTE_D5,
NOTE_DS5,
NOTE_D5,
NOTE_C5,
NOTE_AS4,
NOTE_A4,
NOTE_AS4,
NOTE_C5,
NOTE_AS4,
NOTE_C5,
NOTE_D5,
NOTE_D5,
NOTE_D5,
NOTE_C5,
NOTE_AS4,
NOTE_D5,
NOTE_AS4,
NOTE_G4,
NOTE_FS4,
NOTE_FS4,
NOTE_E4,
NOTE_FS4,
NOTE_G4,
NOTE_A4,
NOTE_AS4,
NOTE_C5,
NOTE_AS4,
NOTE_A4,
NOTE_AS4,
NOTE_G4,
NOTE_D4,
NOTE_G4,
NOTE_G4,
NOTE_A4,
NOTE_B4,
NOTE_C5,
NOTE_D5,
NOTE_D5,
NOTE_D5,
NOTE_DS5,
NOTE_F5,
NOTE_G5,
NOTE_G5,
NOTE_G5,
NOTE_F5,
NOTE_DS5,
NOTE_F5,
NOTE_DS5,
NOTE_D5,
NOTE_D5,
NOTE_DS5,
NOTE_D5,
NOTE_C5,
NOTE_C5,
NOTE_D5,
NOTE_DS5,
NOTE_D5,
NOTE_C5,
NOTE_AS4,
NOTE_AS4,
NOTE_C5,
NOTE_D5,
NOTE_C5,
NOTE_AS4,
NOTE_A4,
NOTE_A4,
NOTE_B4,
NOTE_CS5,
NOTE_E5,
NOTE_D5,
NOTE_G4,
NOTE_D4,
NOTE_G4,
NOTE_G4,
NOTE_A4,
NOTE_B4,
NOTE_C5,
NOTE_D5,
NOTE_D5,
NOTE_D5,
NOTE_DS5,
NOTE_F5,
NOTE_G5,
NOTE_G5,
NOTE_G5,
NOTE_F5,
NOTE_DS5,
NOTE_F5,
NOTE_DS5,
NOTE_D5,
NOTE_D5,
NOTE_DS5,
NOTE_D5,
NOTE_C5,
NOTE_C5,
NOTE_D5,
NOTE_DS5,
NOTE_D5,
NOTE_C5,
NOTE_AS4,
NOTE_A4,
NOTE_AS4,
NOTE_C5,
NOTE_AS4,
NOTE_C5,
NOTE_D5,
NOTE_D5,
NOTE_D5,
NOTE_C5,
NOTE_AS4,
NOTE_D5,
NOTE_AS4,
NOTE_G4,
NOTE_FS4,
NOTE_FS4,
NOTE_E4,
NOTE_FS4,
NOTE_G4,
NOTE_A4,
NOTE_AS4,
NOTE_C5,
NOTE_AS4,
NOTE_A4,
NOTE_AS4,
NOTE_G4,
NOTE_D4,
NOTE_G4,
NOTE_G4,
NOTE_A4,
NOTE_B4,
NOTE_C5,
NOTE_D5,
NOTE_D5,
NOTE_D5,
NOTE_DS5,
NOTE_F5,
NOTE_G5,
NOTE_G5,
NOTE_G5,
NOTE_F5,
NOTE_DS5,
NOTE_F5,
NOTE_DS5,
NOTE_D5,
NOTE_D5,
NOTE_DS5,
NOTE_D5,
NOTE_C5,
NOTE_C5,
NOTE_D5,
NOTE_DS5,
NOTE_D5,
NOTE_C5,
};

float start_time0[] = {
2483437.5,
2880787.5,
3013237.5,
3145687.5,
3278137.5,
3675487.5,
3807937.5,
3940387.5,
4072837.5,
4470187.5,
4602637.5,
4735087.5,
4867537.5,
5264887.5,
5397337.5,
5529787.5,
5662237.5,
6854287.5,
6986737.5,
7119187.5,
7251637.5,
8443687.5,
8576137.5,
8708587.5,
8841037.5,
9238387.5,
9933750.0,
10033087.5,
10132425.0,
10231762.5,
10331100.0,
10430437.5,
11490037.5,
11622487.5,
11754937.5,
11887387.5,
12019837.5,
13079437.5,
13211887.5,
13344337.5,
13476787.5,
13609237.5,
13874137.5,
14006587.5,
14801287.5,
14933737.5,
15066187.5,
15198637.5,
15397312.5,
15496650.0,
15595987.5,
16390687.5,
16589362.5,
16788037.5,
16986712.5,
17086050.0,
17185387.5,
17980087.5,
18178762.5,
18377437.5,
18576112.5,
18675450.0,
18774787.5,
19569487.5,
19966837.5,
21556237.5,
21953587.5,
22648950.0,
22748287.5,
22847625.0,
22946962.5,
23046300.0,
23145637.5,
24205237.5,
24337687.5,
24470137.5,
24602587.5,
24735037.5,
25794637.5,
25927087.5,
26059537.5,
26191987.5,
26324437.5,
26589337.5,
26721787.5,
27516487.5,
27648937.5,
27781387.5,
27913837.5,
28112512.5,
28211850.0,
28311187.5,
29105887.5,
29304562.5,
29503237.5,
29635687.5,
29768137.5,
29900587.5,
30033037.5,
30165487.5,
30297937.5,
30562837.5,
30695287.5,
30827737.5,
30960187.5,
31092637.5,
31390650.0,
31688662.5,
31887337.5,
32284687.5,
32417137.5,
32549587.5,
32682037.5,
32814487.5,
32946937.5,
33079387.5,
33211837.5,
33344287.5,
33476737.5,
46986637.5,
47383987.5,
48079350.0,
48178687.5,
48278025.0,
48377362.5,
48476700.0,
48576037.5,
49635637.5,
49768087.5,
49900537.5,
50032987.5,
50165437.5,
51225037.5,
51357487.5,
51489937.5,
51622387.5,
51754837.5,
52019737.5,
52152187.5,
52946887.5,
53079337.5,
53211787.5,
53344237.5,
53542912.5,
53642250.0,
53741587.5,
54536287.5,
54734962.5,
54933637.5,
55132312.5,
55231650.0,
55330987.5,
56125687.5,
56324362.5,
56523037.5,
56721712.5,
56821050.0,
56920387.5,
57715087.5,
58112437.5,
59701837.5,
60099187.5,
60794550.0,
60893887.5,
60993225.0,
61092562.5,
61191900.0,
61291237.5,
62350837.5,
62483287.5,
62615737.5,
62748187.5,
62880637.5,
63940237.5,
64072687.5,
64205137.5,
64337587.5,
64470037.5,
64734937.5,
64867387.5,
65662087.5,
65794537.5,
65926987.5,
66059437.5,
66258112.5,
66357450.0,
66456787.5,
67251487.5,
67450162.5,
67648837.5,
67781287.5,
67913737.5,
68046187.5,
68178637.5,
68311087.5,
68443537.5,
68708437.5,
68840887.5,
68973337.5,
69105787.5,
69238237.5,
69536250.0,
69834262.5,
70032937.5,
70430287.5,
70562737.5,
70695187.5,
70827637.5,
70960087.5,
71092537.5,
71224987.5,
71357437.5,
71489887.5,
71622337.5,
85132237.5,
85529587.5,
86224950.0,
86324287.5,
86423625.0,
86522962.5,
86622300.0,
86721637.5,
87781237.5,
87913687.5,
88046137.5,
88178587.5,
88311037.5,
89370637.5,
89503087.5,
89635537.5,
89767987.5,
89900437.5,
90165337.5,
90297787.5,
91092487.5,
91224937.5,
91357387.5,
91489837.5,
91688512.5,
91787850.0,
91887187.5,
92681887.5,
92880562.5,
93079237.5,
93277912.5,
93377250.0,
93476587.5,
94271287.5,
94469962.5,
94668637.5,
94867312.5,
94966650.0,
95065987.5,
95860687.5,
96258037.5,
97847437.5,
98244787.5,
98940150.0,
99039487.5,
99138825.0,
99238162.5,
99337500.0,
99436837.5,
100496437.5,
100628887.5,
100761337.5,
100893787.5,
101026237.5,
102085837.5,
102218287.5,
102350737.5,
102483187.5,
102615637.5,
102880537.5,
103012987.5,
103807687.5,
103940137.5,
104072587.5,
104205037.5,
104403712.5,
104503050.0,
104602387.5,
105397087.5,
105595762.5,
105794437.5,
105926887.5,
106059337.5,
106191787.5,
106324237.5,
106456687.5,
106589137.5,
106854037.5,
106986487.5,
107118937.5,
107251387.5,
107383837.5,
107681850.0,
107979862.5,
108178537.5,
108575887.5,
108708337.5,
108840787.5,
108973237.5,
109105687.5,
109238137.5,
109370587.5,
109503037.5,
109635487.5,
109767937.5,
123277837.5,
123675187.5,
124370550.0,
124469887.5,
124569225.0,
124668562.5,
124767900.0,
124867237.5,
125926837.5,
126059287.5,
126191737.5,
126324187.5,
126456637.5,
127516237.5,
127648687.5,
127781137.5,
127913587.5,
128046037.5,
128310937.5,
128443387.5,
129238087.5,
129370537.5,
129502987.5,
129635437.5,
129834112.5,
129933450.0,
130032787.5,
130827487.5,
131026162.5,
};

float duration0[] = {
223509.375,
107615.625,
107615.625,
107615.625,
223509.375,
107615.625,
107615.625,
107615.625,
215231.25,
107615.625,
107615.625,
107615.625,
215231.25,
107615.625,
107615.625,
107615.625,
968540.625,
107615.625,
107615.625,
107615.625,
968540.625,
107615.625,
107615.625,
107615.625,
215231.25,
430462.5,
82781.25,
82781.25,
82781.25,
82781.25,
82781.25,
662250.0,
107615.625,
107615.625,
107615.625,
107615.625,
662250.0,
107615.625,
107615.625,
107615.625,
107615.625,
107615.625,
107615.625,
430462.5,
107615.625,
107615.625,
107615.625,
157284.375,
82781.25,
82781.25,
645693.75,
157284.375,
157284.375,
157284.375,
82781.25,
82781.25,
645693.75,
157284.375,
157284.375,
157284.375,
74503.125,
74503.125,
596025.0,
298012.5,
298012.5,
215231.25,
430462.5,
82781.25,
82781.25,
82781.25,
82781.25,
82781.25,
662250.0,
107615.625,
107615.625,
107615.625,
107615.625,
662250.0,
107615.625,
107615.625,
107615.625,
107615.625,
107615.625,
107615.625,
430462.5,
107615.625,
107615.625,
107615.625,
157284.375,
82781.25,
82781.25,
645693.75,
157284.375,
157284.375,
132450.0,
132450.0,
132450.0,
132450.0,
132450.0,
132450.0,
107615.625,
107615.625,
107615.625,
107615.625,
107615.625,
248343.75,
298012.5,
198675.0,
397350.0,
132450.0,
132450.0,
132450.0,
107615.625,
107615.625,
107615.625,
107615.625,
107615.625,
107615.625,
223509.375,
215231.25,
430462.5,
82781.25,
82781.25,
82781.25,
82781.25,
82781.25,
662250.0,
107615.625,
107615.625,
107615.625,
107615.625,
662250.0,
107615.625,
107615.625,
107615.625,
107615.625,
107615.625,
107615.625,
430462.5,
107615.625,
107615.625,
107615.625,
157284.375,
82781.25,
82781.25,
645693.75,
157284.375,
157284.375,
157284.375,
82781.25,
82781.25,
645693.75,
157284.375,
157284.375,
157284.375,
74503.125,
74503.125,
596025.0,
298012.5,
298012.5,
215231.25,
430462.5,
82781.25,
82781.25,
82781.25,
82781.25,
82781.25,
662250.0,
107615.625,
107615.625,
107615.625,
107615.625,
662250.0,
107615.625,
107615.625,
107615.625,
107615.625,
107615.625,
107615.625,
430462.5,
107615.625,
107615.625,
107615.625,
157284.375,
82781.25,
82781.25,
645693.75,
157284.375,
157284.375,
132450.0,
132450.0,
132450.0,
132450.0,
132450.0,
132450.0,
107615.625,
107615.625,
107615.625,
107615.625,
107615.625,
248343.75,
298012.5,
198675.0,
397350.0,
132450.0,
132450.0,
132450.0,
107615.625,
107615.625,
107615.625,
107615.625,
107615.625,
107615.625,
223509.375,
215231.25,
430462.5,
82781.25,
82781.25,
82781.25,
82781.25,
82781.25,
662250.0,
107615.625,
107615.625,
107615.625,
107615.625,
662250.0,
107615.625,
107615.625,
107615.625,
107615.625,
107615.625,
107615.625,
430462.5,
107615.625,
107615.625,
107615.625,
157284.375,
82781.25,
82781.25,
645693.75,
157284.375,
157284.375,
157284.375,
82781.25,
82781.25,
645693.75,
157284.375,
157284.375,
157284.375,
74503.125,
74503.125,
596025.0,
298012.5,
298012.5,
215231.25,
430462.5,
82781.25,
82781.25,
82781.25,
82781.25,
82781.25,
662250.0,
107615.625,
107615.625,
107615.625,
107615.625,
662250.0,
107615.625,
107615.625,
107615.625,
107615.625,
107615.625,
107615.625,
430462.5,
107615.625,
107615.625,
107615.625,
157284.375,
82781.25,
82781.25,
645693.75,
157284.375,
157284.375,
132450.0,
132450.0,
132450.0,
132450.0,
132450.0,
132450.0,
107615.625,
107615.625,
107615.625,
107615.625,
107615.625,
248343.75,
298012.5,
198675.0,
397350.0,
132450.0,
132450.0,
132450.0,
107615.625,
107615.625,
107615.625,
107615.625,
107615.625,
107615.625,
223509.375,
215231.25,
430462.5,
82781.25,
82781.25,
82781.25,
82781.25,
82781.25,
662250.0,
107615.625,
107615.625,
107615.625,
107615.625,
662250.0,
107615.625,
107615.625,
107615.625,
107615.625,
107615.625,
107615.625,
430462.5,
107615.625,
107615.625,
107615.625,
157284.375,
82781.25,
82781.25,
645693.75,
157284.375,
157284.375,
};

float end_time0[] = {
2706946.875,
2988403.125,
3120853.125,
3253303.125,
3501646.875,
3783103.125,
3915553.125,
4048003.125,
4288068.75,
4577803.125,
4710253.125,
4842703.125,
5082768.75,
5372503.125,
5504953.125,
5637403.125,
6630778.125,
6961903.125,
7094353.125,
7226803.125,
8220178.125,
8551303.125,
8683753.125,
8816203.125,
9056268.75,
9668850.0,
10016531.25,
10115868.75,
10215206.25,
10314543.75,
10413881.25,
11092687.5,
11597653.125,
11730103.125,
11862553.125,
11995003.125,
12682087.5,
13187053.125,
13319503.125,
13451953.125,
13584403.125,
13716853.125,
13981753.125,
14437050.0,
14908903.125,
15041353.125,
15173803.125,
15355921.875,
15480093.75,
15579431.25,
16241681.25,
16547971.875,
16746646.875,
16945321.875,
17069493.75,
17168831.25,
17831081.25,
18137371.875,
18336046.875,
18534721.875,
18650615.625,
18749953.125,
19370812.5,
19867500.0,
20264850.0,
21771468.75,
22384050.0,
22731731.25,
22831068.75,
22930406.25,
23029743.75,
23129081.25,
23807887.5,
24312853.125,
24445303.125,
24577753.125,
24710203.125,
25397287.5,
25902253.125,
26034703.125,
26167153.125,
26299603.125,
26432053.125,
26696953.125,
27152250.0,
27624103.125,
27756553.125,
27889003.125,
28071121.875,
28195293.75,
28294631.25,
28956881.25,
29263171.875,
29461846.875,
29635687.5,
29768137.5,
29900587.5,
30033037.5,
30165487.5,
30297937.5,
30405553.125,
30670453.125,
30802903.125,
30935353.125,
31067803.125,
31340981.25,
31688662.5,
31887337.5,
32284687.5,
32417137.5,
32549587.5,
32682037.5,
32789653.125,
32922103.125,
33054553.125,
33187003.125,
33319453.125,
33451903.125,
33700246.875,
47201868.75,
47814450.0,
48162131.25,
48261468.75,
48360806.25,
48460143.75,
48559481.25,
49238287.5,
49743253.125,
49875703.125,
50008153.125,
50140603.125,
50827687.5,
51332653.125,
51465103.125,
51597553.125,
51730003.125,
51862453.125,
52127353.125,
52582650.0,
53054503.125,
53186953.125,
53319403.125,
53501521.875,
53625693.75,
53725031.25,
54387281.25,
54693571.875,
54892246.875,
55090921.875,
55215093.75,
55314431.25,
55976681.25,
56282971.875,
56481646.875,
56680321.875,
56796215.625,
56895553.125,
57516412.5,
58013100.0,
58410450.0,
59917068.75,
60529650.0,
60877331.25,
60976668.75,
61076006.25,
61175343.75,
61274681.25,
61953487.5,
62458453.125,
62590903.125,
62723353.125,
62855803.125,
63542887.5,
64047853.125,
64180303.125,
64312753.125,
64445203.125,
64577653.125,
64842553.125,
65297850.0,
65769703.125,
65902153.125,
66034603.125,
66216721.875,
66340893.75,
66440231.25,
67102481.25,
67408771.875,
67607446.875,
67781287.5,
67913737.5,
68046187.5,
68178637.5,
68311087.5,
68443537.5,
68551153.125,
68816053.125,
68948503.125,
69080953.125,
69213403.125,
69486581.25,
69834262.5,
70032937.5,
70430287.5,
70562737.5,
70695187.5,
70827637.5,
70935253.125,
71067703.125,
71200153.125,
71332603.125,
71465053.125,
71597503.125,
71845846.875,
85347468.75,
85960050.0,
86307731.25,
86407068.75,
86506406.25,
86605743.75,
86705081.25,
87383887.5,
87888853.125,
88021303.125,
88153753.125,
88286203.125,
88973287.5,
89478253.125,
89610703.125,
89743153.125,
89875603.125,
90008053.125,
90272953.125,
90728250.0,
91200103.125,
91332553.125,
91465003.125,
91647121.875,
91771293.75,
91870631.25,
92532881.25,
92839171.875,
93037846.875,
93236521.875,
93360693.75,
93460031.25,
94122281.25,
94428571.875,
94627246.875,
94825921.875,
94941815.625,
95041153.125,
95662012.5,
96158700.0,
96556050.0,
98062668.75,
98675250.0,
99022931.25,
99122268.75,
99221606.25,
99320943.75,
99420281.25,
100099087.5,
100604053.125,
100736503.125,
100868953.125,
101001403.125,
101688487.5,
102193453.125,
102325903.125,
102458353.125,
102590803.125,
102723253.125,
102988153.125,
103443450.0,
103915303.125,
104047753.125,
104180203.125,
104362321.875,
104486493.75,
104585831.25,
105248081.25,
105554371.875,
105753046.875,
105926887.5,
106059337.5,
106191787.5,
106324237.5,
106456687.5,
106589137.5,
106696753.125,
106961653.125,
107094103.125,
107226553.125,
107359003.125,
107632181.25,
107979862.5,
108178537.5,
108575887.5,
108708337.5,
108840787.5,
108973237.5,
109080853.125,
109213303.125,
109345753.125,
109478203.125,
109610653.125,
109743103.125,
109991446.875,
123493068.75,
124105650.0,
124453331.25,
124552668.75,
124652006.25,
124751343.75,
124850681.25,
125529487.5,
126034453.125,
126166903.125,
126299353.125,
126431803.125,
127118887.5,
127623853.125,
127756303.125,
127888753.125,
128021203.125,
128153653.125,
128418553.125,
128873850.0,
129345703.125,
129478153.125,
129610603.125,
129792721.875,
129916893.75,
130016231.25,
130678481.25,
130984771.875,
131183446.875,
};

int melody1[] = {
NOTE_B3,
NOTE_B3,
NOTE_B3,
NOTE_B3,
NOTE_A3,
NOTE_A3,
NOTE_B3,
NOTE_C4,
NOTE_DS4,
NOTE_DS4,
NOTE_DS4,
NOTE_DS4,
NOTE_F4,
NOTE_F4,
NOTE_F4,
NOTE_F4,
NOTE_G4,
NOTE_F4,
NOTE_F4,
NOTE_F4,
NOTE_G4,
NOTE_B3,
NOTE_C4,
NOTE_B3,
NOTE_A3,
NOTE_B3,
NOTE_B3,
NOTE_B3,
NOTE_C4,
NOTE_D4,
NOTE_E4,
NOTE_F4,
NOTE_G4,
NOTE_G4,
NOTE_A4,
NOTE_B4,
NOTE_C5,
NOTE_D5,
NOTE_F4,
NOTE_F4,
NOTE_G4,
NOTE_A4,
NOTE_AS4,
NOTE_DS4,
NOTE_DS4,
NOTE_F4,
NOTE_G4,
NOTE_A4,
NOTE_AS4,
NOTE_AS4,
NOTE_AS4,
NOTE_A4,
NOTE_G4,
NOTE_AS4,
NOTE_F4,
NOTE_F4,
NOTE_F4,
NOTE_DS4,
NOTE_F4,
NOTE_F4,
NOTE_F4,
NOTE_DS4,
NOTE_F4,
NOTE_DS4,
NOTE_DS4,
NOTE_D4,
NOTE_DS4,
NOTE_DS4,
NOTE_F4,
NOTE_G4,
NOTE_F4,
NOTE_DS4,
NOTE_D4,
NOTE_D4,
NOTE_C4,
NOTE_D4,
NOTE_D4,
NOTE_DS4,
NOTE_F4,
NOTE_DS4,
NOTE_D4,
NOTE_CS4,
NOTE_CS4,
NOTE_CS4,
NOTE_D4,
NOTE_E4,
NOTE_E4,
NOTE_FS4,
NOTE_G4,
NOTE_A4,
NOTE_AS4,
NOTE_C5,
NOTE_A4,
NOTE_B3,
NOTE_C4,
NOTE_B3,
NOTE_A3,
NOTE_B3,
NOTE_B3,
NOTE_B3,
NOTE_C4,
NOTE_D4,
NOTE_E4,
NOTE_F4,
NOTE_G4,
NOTE_G4,
NOTE_A4,
NOTE_B4,
NOTE_C5,
NOTE_D5,
NOTE_F4,
NOTE_F4,
NOTE_G4,
NOTE_A4,
NOTE_AS4,
NOTE_DS4,
NOTE_DS4,
NOTE_F4,
NOTE_G4,
NOTE_A4,
NOTE_AS4,
NOTE_AS4,
NOTE_AS4,
NOTE_A4,
NOTE_G4,
NOTE_AS4,
NOTE_F4,
NOTE_F4,
NOTE_F4,
NOTE_DS4,
NOTE_F4,
NOTE_F4,
NOTE_F4,
NOTE_DS4,
NOTE_F4,
NOTE_DS4,
NOTE_DS4,
NOTE_D4,
NOTE_DS4,
NOTE_DS4,
NOTE_F4,
NOTE_G4,
NOTE_F4,
NOTE_DS4,
NOTE_D4,
NOTE_CS4,
NOTE_D4,
NOTE_FS4,
NOTE_G4,
NOTE_A4,
NOTE_AS4,
NOTE_AS4,
NOTE_AS4,
NOTE_A4,
NOTE_G4,
NOTE_D5,
NOTE_D6,
NOTE_G5,
NOTE_AS4,
NOTE_G4,
NOTE_A4,
NOTE_A4,
NOTE_AS4,
NOTE_C5,
NOTE_D5,
NOTE_C5,
NOTE_AS4,
NOTE_A4,
NOTE_F4,
NOTE_G4,
NOTE_D4,
NOTE_D4,
NOTE_C4,
NOTE_E4,
NOTE_G4,
NOTE_G4,
NOTE_F4,
NOTE_G4,
NOTE_A4,
NOTE_AS4,
NOTE_C5,
NOTE_D5,
NOTE_D5,
NOTE_C5,
NOTE_AS4,
NOTE_C5,
NOTE_DS5,
NOTE_GS5,
NOTE_G4,
NOTE_G4,
NOTE_G4,
NOTE_G4,
NOTE_G4,
NOTE_G4,
NOTE_G4,
NOTE_A4,
NOTE_B3,
NOTE_C4,
NOTE_B3,
NOTE_A3,
NOTE_B3,
NOTE_B3,
NOTE_B3,
NOTE_C4,
NOTE_D4,
NOTE_E4,
NOTE_F4,
NOTE_G4,
NOTE_G4,
NOTE_A4,
NOTE_B4,
NOTE_C5,
NOTE_D5,
NOTE_F4,
NOTE_F4,
NOTE_G4,
NOTE_A4,
NOTE_AS4,
NOTE_DS4,
NOTE_DS4,
NOTE_F4,
NOTE_G4,
NOTE_A4,
NOTE_AS4,
NOTE_AS4,
NOTE_AS4,
NOTE_A4,
NOTE_G4,
NOTE_AS4,
NOTE_F4,
NOTE_F4,
NOTE_F4,
NOTE_DS4,
NOTE_F4,
NOTE_F4,
NOTE_F4,
NOTE_DS4,
NOTE_F4,
NOTE_DS4,
NOTE_DS4,
NOTE_D4,
NOTE_DS4,
NOTE_DS4,
NOTE_F4,
NOTE_G4,
NOTE_F4,
NOTE_DS4,
NOTE_D4,
NOTE_D4,
NOTE_C4,
NOTE_D4,
NOTE_D4,
NOTE_DS4,
NOTE_F4,
NOTE_DS4,
NOTE_D4,
NOTE_CS4,
NOTE_CS4,
NOTE_CS4,
NOTE_D4,
NOTE_E4,
NOTE_E4,
NOTE_FS4,
NOTE_G4,
NOTE_A4,
NOTE_AS4,
NOTE_C5,
NOTE_A4,
NOTE_B3,
NOTE_C4,
NOTE_B3,
NOTE_A3,
NOTE_B3,
NOTE_B3,
NOTE_B3,
NOTE_C4,
NOTE_D4,
NOTE_E4,
NOTE_F4,
NOTE_G4,
NOTE_G4,
NOTE_A4,
NOTE_B4,
NOTE_C5,
NOTE_D5,
NOTE_F4,
NOTE_F4,
NOTE_G4,
NOTE_A4,
NOTE_AS4,
NOTE_DS4,
NOTE_DS4,
NOTE_F4,
NOTE_G4,
NOTE_A4,
NOTE_AS4,
NOTE_AS4,
NOTE_AS4,
NOTE_A4,
NOTE_G4,
NOTE_AS4,
NOTE_F4,
NOTE_F4,
NOTE_F4,
NOTE_DS4,
NOTE_F4,
NOTE_F4,
NOTE_F4,
NOTE_DS4,
NOTE_F4,
NOTE_DS4,
NOTE_DS4,
NOTE_D4,
NOTE_DS4,
NOTE_DS4,
NOTE_F4,
NOTE_G4,
NOTE_F4,
NOTE_DS4,
NOTE_D4,
NOTE_CS4,
NOTE_D4,
NOTE_FS4,
NOTE_G4,
NOTE_A4,
NOTE_AS4,
NOTE_AS4,
NOTE_AS4,
NOTE_A4,
NOTE_G4,
NOTE_D5,
NOTE_D6,
NOTE_G5,
NOTE_AS4,
NOTE_G4,
NOTE_A4,
NOTE_A4,
NOTE_AS4,
NOTE_C5,
NOTE_D5,
NOTE_C5,
NOTE_AS4,
NOTE_A4,
NOTE_F4,
NOTE_G4,
NOTE_D4,
NOTE_D4,
NOTE_C4,
NOTE_E4,
NOTE_G4,
NOTE_G4,
NOTE_F4,
NOTE_G4,
NOTE_A4,
NOTE_AS4,
NOTE_C5,
NOTE_D5,
NOTE_D5,
NOTE_C5,
NOTE_AS4,
NOTE_C5,
NOTE_DS5,
NOTE_GS5,
NOTE_G4,
NOTE_G4,
NOTE_G4,
NOTE_G4,
NOTE_G4,
NOTE_G4,
NOTE_G4,
NOTE_A4,
NOTE_B3,
NOTE_C4,
NOTE_B3,
NOTE_A3,
NOTE_B3,
NOTE_B3,
NOTE_B3,
NOTE_C4,
NOTE_D4,
NOTE_E4,
NOTE_F4,
NOTE_G4,
NOTE_G4,
NOTE_A4,
NOTE_B4,
NOTE_C5,
NOTE_D5,
NOTE_F4,
NOTE_F4,
NOTE_G4,
NOTE_A4,
NOTE_AS4,
NOTE_DS4,
NOTE_DS4,
NOTE_F4,
NOTE_G4,
NOTE_A4,
NOTE_AS4,
NOTE_AS4,
NOTE_AS4,
NOTE_A4,
NOTE_G4,
NOTE_AS4,
NOTE_F4,
NOTE_F4,
NOTE_F4,
NOTE_DS4,
NOTE_F4,
NOTE_F4,
NOTE_F4,
NOTE_DS4,
NOTE_F4,
NOTE_DS4,
NOTE_DS4,
NOTE_D4,
NOTE_DS4,
NOTE_DS4,
NOTE_F4,
NOTE_G4,
NOTE_F4,
NOTE_DS4,
NOTE_D4,
NOTE_D4,
NOTE_C4,
NOTE_D4,
NOTE_D4,
NOTE_DS4,
NOTE_F4,
NOTE_DS4,
NOTE_D4,
NOTE_CS4,
NOTE_CS4,
NOTE_CS4,
NOTE_D4,
NOTE_E4,
NOTE_E4,
NOTE_FS4,
NOTE_G4,
NOTE_A4,
NOTE_AS4,
NOTE_C5,
NOTE_A4,
NOTE_B3,
NOTE_C4,
NOTE_B3,
NOTE_A3,
NOTE_B3,
NOTE_B3,
NOTE_B3,
NOTE_C4,
NOTE_D4,
NOTE_E4,
NOTE_F4,
NOTE_G4,
NOTE_G4,
NOTE_A4,
NOTE_B4,
NOTE_C5,
NOTE_D5,
NOTE_F4,
NOTE_F4,
NOTE_G4,
NOTE_A4,
NOTE_AS4,
NOTE_DS4,
NOTE_DS4,
NOTE_F4,
NOTE_G4,
NOTE_A4,
NOTE_AS4,
NOTE_AS4,
NOTE_AS4,
NOTE_A4,
NOTE_G4,
NOTE_AS4,
NOTE_F4,
NOTE_F4,
NOTE_F4,
NOTE_DS4,
NOTE_F4,
NOTE_F4,
NOTE_F4,
NOTE_DS4,
NOTE_F4,
NOTE_DS4,
NOTE_DS4,
NOTE_D4,
NOTE_DS4,
NOTE_DS4,
NOTE_F4,
NOTE_G4,
NOTE_F4,
NOTE_DS4,
NOTE_D4,
NOTE_CS4,
NOTE_D4,
NOTE_FS4,
NOTE_G4,
NOTE_A4,
NOTE_AS4,
NOTE_AS4,
NOTE_AS4,
NOTE_A4,
NOTE_G4,
NOTE_D5,
NOTE_D6,
NOTE_G5,
NOTE_AS4,
NOTE_G4,
NOTE_A4,
NOTE_A4,
NOTE_AS4,
NOTE_C5,
NOTE_D5,
NOTE_C5,
NOTE_AS4,
NOTE_A4,
NOTE_F4,
NOTE_G4,
NOTE_D4,
NOTE_D4,
NOTE_C4,
NOTE_E4,
NOTE_G4,
NOTE_G4,
NOTE_F4,
NOTE_G4,
NOTE_A4,
NOTE_AS4,
NOTE_C5,
NOTE_D5,
NOTE_D5,
NOTE_C5,
NOTE_AS4,
NOTE_C5,
NOTE_DS5,
NOTE_GS5,
NOTE_G4,
NOTE_G4,
NOTE_G4,
NOTE_G4,
NOTE_G4,
NOTE_G4,
NOTE_G4,
NOTE_A4,
NOTE_B3,
NOTE_C4,
NOTE_B3,
NOTE_A3,
NOTE_B3,
NOTE_B3,
NOTE_B3,
NOTE_C4,
NOTE_D4,
NOTE_E4,
NOTE_F4,
NOTE_G4,
NOTE_G4,
NOTE_A4,
NOTE_B4,
NOTE_C5,
NOTE_D5,
NOTE_F4,
NOTE_F4,
NOTE_G4,
NOTE_A4,
NOTE_AS4,
NOTE_DS4,
NOTE_DS4,
NOTE_F4,
NOTE_G4,
NOTE_A4,
NOTE_AS4,
NOTE_AS4,
NOTE_AS4,
NOTE_A4,
NOTE_G4,
NOTE_AS4,
NOTE_F4,
NOTE_F4,
NOTE_F4,
NOTE_DS4,
NOTE_F4,
NOTE_F4,
NOTE_F4,
NOTE_DS4,
NOTE_F4,
NOTE_DS4,
NOTE_DS4,
NOTE_D4,
NOTE_DS4,
NOTE_DS4,
NOTE_F4,
NOTE_G4,
NOTE_F4,
NOTE_DS4,
};

float start_time1[] = {
2483437.5,
2880787.5,
3013237.5,
3145687.5,
3278137.5,
3675487.5,
3807937.5,
3940387.5,
4072837.5,
4470187.5,
4602637.5,
4735087.5,
4867537.5,
5264887.5,
5397337.5,
5529787.5,
5662237.5,
6854287.5,
6986737.5,
7119187.5,
7251637.5,
8841037.5,
9238387.5,
9370837.5,
9503287.5,
9635737.5,
9933750.0,
10033087.5,
10132425.0,
10231762.5,
10331100.0,
10430437.5,
10728450.0,
10827787.5,
10927125.0,
11026462.5,
11125800.0,
11225137.5,
11490037.5,
11622487.5,
11754937.5,
11887387.5,
12019837.5,
12317850.0,
12417187.5,
12516525.0,
12615862.5,
12715200.0,
12814537.5,
13079437.5,
13211887.5,
13344337.5,
13476787.5,
13609237.5,
13874137.5,
14006587.5,
14139037.5,
14271487.5,
14403937.5,
14668837.5,
14801287.5,
14933737.5,
15066187.5,
15198637.5,
15397312.5,
15496650.0,
15595987.5,
15728437.5,
15860887.5,
15993337.5,
16390687.5,
16589362.5,
16788037.5,
16986712.5,
17086050.0,
17185387.5,
17317837.5,
17450287.5,
17582737.5,
17980087.5,
18178762.5,
18377437.5,
18774787.5,
18907237.5,
19039687.5,
19172137.5,
19370812.5,
19470150.0,
19569487.5,
19668825.0,
19768162.5,
19867500.0,
19966837.5,
21556237.5,
21953587.5,
22086037.5,
22218487.5,
22350937.5,
22648950.0,
22748287.5,
22847625.0,
22946962.5,
23046300.0,
23145637.5,
23443650.0,
23542987.5,
23642325.0,
23741662.5,
23841000.0,
23940337.5,
24205237.5,
24337687.5,
24470137.5,
24602587.5,
24735037.5,
25033050.0,
25132387.5,
25231725.0,
25331062.5,
25430400.0,
25529737.5,
25794637.5,
25927087.5,
26059537.5,
26191987.5,
26324437.5,
26589337.5,
26721787.5,
26854237.5,
26986687.5,
27119137.5,
27384037.5,
27516487.5,
27648937.5,
27781387.5,
27913837.5,
28112512.5,
28211850.0,
28311187.5,
28443637.5,
28576087.5,
28708537.5,
29105887.5,
29304562.5,
29503237.5,
29635687.5,
29768137.5,
29900587.5,
30033037.5,
30165487.5,
30297937.5,
30562837.5,
30695287.5,
30827737.5,
30960187.5,
31092637.5,
31887337.5,
32682037.5,
34271437.5,
34668787.5,
35364150.0,
35463487.5,
35562825.0,
35662162.5,
35761500.0,
35860837.5,
36125737.5,
36258187.5,
37052887.5,
37450237.5,
37715137.5,
37847587.5,
38244937.5,
38642287.5,
39039637.5,
39238312.5,
39337650.0,
39436987.5,
39536325.0,
39635662.5,
39735000.0,
39834337.5,
40629037.5,
40893937.5,
41026387.5,
42218437.5,
42483337.5,
42615787.5,
44205187.5,
44337637.5,
44470087.5,
44602537.5,
45794587.5,
45927037.5,
46059487.5,
46191937.5,
46986637.5,
47383987.5,
47516437.5,
47648887.5,
47781337.5,
48079350.0,
48178687.5,
48278025.0,
48377362.5,
48476700.0,
48576037.5,
48874050.0,
48973387.5,
49072725.0,
49172062.5,
49271400.0,
49370737.5,
49635637.5,
49768087.5,
49900537.5,
50032987.5,
50165437.5,
50463450.0,
50562787.5,
50662125.0,
50761462.5,
50860800.0,
50960137.5,
51225037.5,
51357487.5,
51489937.5,
51622387.5,
51754837.5,
52019737.5,
52152187.5,
52284637.5,
52417087.5,
52549537.5,
52814437.5,
52946887.5,
53079337.5,
53211787.5,
53344237.5,
53542912.5,
53642250.0,
53741587.5,
53874037.5,
54006487.5,
54138937.5,
54536287.5,
54734962.5,
54933637.5,
55132312.5,
55231650.0,
55330987.5,
55463437.5,
55595887.5,
55728337.5,
56125687.5,
56324362.5,
56523037.5,
56920387.5,
57052837.5,
57185287.5,
57317737.5,
57516412.5,
57615750.0,
57715087.5,
57814425.0,
57913762.5,
58013100.0,
58112437.5,
59701837.5,
60099187.5,
60231637.5,
60364087.5,
60496537.5,
60794550.0,
60893887.5,
60993225.0,
61092562.5,
61191900.0,
61291237.5,
61589250.0,
61688587.5,
61787925.0,
61887262.5,
61986600.0,
62085937.5,
62350837.5,
62483287.5,
62615737.5,
62748187.5,
62880637.5,
63178650.0,
63277987.5,
63377325.0,
63476662.5,
63576000.0,
63675337.5,
63940237.5,
64072687.5,
64205137.5,
64337587.5,
64470037.5,
64734937.5,
64867387.5,
64999837.5,
65132287.5,
65264737.5,
65529637.5,
65662087.5,
65794537.5,
65926987.5,
66059437.5,
66258112.5,
66357450.0,
66456787.5,
66589237.5,
66721687.5,
66854137.5,
67251487.5,
67450162.5,
67648837.5,
67781287.5,
67913737.5,
68046187.5,
68178637.5,
68311087.5,
68443537.5,
68708437.5,
68840887.5,
68973337.5,
69105787.5,
69238237.5,
70032937.5,
70827637.5,
72417037.5,
72814387.5,
73509750.0,
73609087.5,
73708425.0,
73807762.5,
73907100.0,
74006437.5,
74271337.5,
74403787.5,
75198487.5,
75595837.5,
75860737.5,
75993187.5,
76390537.5,
76787887.5,
77185237.5,
77383912.5,
77483250.0,
77582587.5,
77681925.0,
77781262.5,
77880600.0,
77979937.5,
78774637.5,
79039537.5,
79171987.5,
80364037.5,
80628937.5,
80761387.5,
82350787.5,
82483237.5,
82615687.5,
82748137.5,
83940187.5,
84072637.5,
84205087.5,
84337537.5,
85132237.5,
85529587.5,
85662037.5,
85794487.5,
85926937.5,
86224950.0,
86324287.5,
86423625.0,
86522962.5,
86622300.0,
86721637.5,
87019650.0,
87118987.5,
87218325.0,
87317662.5,
87417000.0,
87516337.5,
87781237.5,
87913687.5,
88046137.5,
88178587.5,
88311037.5,
88609050.0,
88708387.5,
88807725.0,
88907062.5,
89006400.0,
89105737.5,
89370637.5,
89503087.5,
89635537.5,
89767987.5,
89900437.5,
90165337.5,
90297787.5,
90430237.5,
90562687.5,
90695137.5,
90960037.5,
91092487.5,
91224937.5,
91357387.5,
91489837.5,
91688512.5,
91787850.0,
91887187.5,
92019637.5,
92152087.5,
92284537.5,
92681887.5,
92880562.5,
93079237.5,
93277912.5,
93377250.0,
93476587.5,
93609037.5,
93741487.5,
93873937.5,
94271287.5,
94469962.5,
94668637.5,
95065987.5,
95198437.5,
95330887.5,
95463337.5,
95662012.5,
95761350.0,
95860687.5,
95960025.0,
96059362.5,
96158700.0,
96258037.5,
97847437.5,
98244787.5,
98377237.5,
98509687.5,
98642137.5,
98940150.0,
99039487.5,
99138825.0,
99238162.5,
99337500.0,
99436837.5,
99734850.0,
99834187.5,
99933525.0,
100032862.5,
100132200.0,
100231537.5,
100496437.5,
100628887.5,
100761337.5,
100893787.5,
101026237.5,
101324250.0,
101423587.5,
101522925.0,
101622262.5,
101721600.0,
101820937.5,
102085837.5,
102218287.5,
102350737.5,
102483187.5,
102615637.5,
102880537.5,
103012987.5,
103145437.5,
103277887.5,
103410337.5,
103675237.5,
103807687.5,
103940137.5,
104072587.5,
104205037.5,
104403712.5,
104503050.0,
104602387.5,
104734837.5,
104867287.5,
104999737.5,
105397087.5,
105595762.5,
105794437.5,
105926887.5,
106059337.5,
106191787.5,
106324237.5,
106456687.5,
106589137.5,
106854037.5,
106986487.5,
107118937.5,
107251387.5,
107383837.5,
108178537.5,
108973237.5,
110562637.5,
110959987.5,
111655350.0,
111754687.5,
111854025.0,
111953362.5,
112052700.0,
112152037.5,
112416937.5,
112549387.5,
113344087.5,
113741437.5,
114006337.5,
114138787.5,
114536137.5,
114933487.5,
115330837.5,
115529512.5,
115628850.0,
115728187.5,
115827525.0,
115926862.5,
116026200.0,
116125537.5,
116920237.5,
117185137.5,
117317587.5,
118509637.5,
118774537.5,
118906987.5,
120496387.5,
120628837.5,
120761287.5,
120893737.5,
122085787.5,
122218237.5,
122350687.5,
122483137.5,
123277837.5,
123675187.5,
123807637.5,
123940087.5,
124072537.5,
124370550.0,
124469887.5,
124569225.0,
124668562.5,
124767900.0,
124867237.5,
125165250.0,
125264587.5,
125363925.0,
125463262.5,
125562600.0,
125661937.5,
125926837.5,
126059287.5,
126191737.5,
126324187.5,
126456637.5,
126754650.0,
126853987.5,
126953325.0,
127052662.5,
127152000.0,
127251337.5,
127516237.5,
127648687.5,
127781137.5,
127913587.5,
128046037.5,
128310937.5,
128443387.5,
128575837.5,
128708287.5,
128840737.5,
129105637.5,
129238087.5,
129370537.5,
129502987.5,
129635437.5,
129834112.5,
129933450.0,
130032787.5,
130165237.5,
130297687.5,
130430137.5,
130827487.5,
131026162.5,
};

float duration1[] = {
165562.5,
82781.25,
82781.25,
82781.25,
165562.5,
82781.25,
82781.25,
82781.25,
165562.5,
82781.25,
82781.25,
82781.25,
165562.5,
82781.25,
82781.25,
82781.25,
852646.875,
82781.25,
82781.25,
82781.25,
852646.875,
165562.5,
82781.25,
82781.25,
82781.25,
165562.5,
66225.0,
66225.0,
66225.0,
66225.0,
66225.0,
190396.875,
66225.0,
66225.0,
66225.0,
66225.0,
66225.0,
132450.0,
82781.25,
82781.25,
82781.25,
82781.25,
173840.625,
66225.0,
66225.0,
66225.0,
66225.0,
66225.0,
82781.25,
82781.25,
82781.25,
82781.25,
82781.25,
82781.25,
82781.25,
82781.25,
82781.25,
82781.25,
82781.25,
82781.25,
82781.25,
82781.25,
82781.25,
124171.875,
57946.875,
57946.875,
82781.25,
82781.25,
82781.25,
165562.5,
124171.875,
124171.875,
124171.875,
57946.875,
57946.875,
74503.125,
74503.125,
74503.125,
157284.375,
115893.75,
115893.75,
157284.375,
74503.125,
74503.125,
74503.125,
157284.375,
57946.875,
57946.875,
57946.875,
57946.875,
57946.875,
57946.875,
397350.0,
165562.5,
82781.25,
82781.25,
82781.25,
165562.5,
66225.0,
66225.0,
66225.0,
66225.0,
66225.0,
190396.875,
66225.0,
66225.0,
66225.0,
66225.0,
66225.0,
132450.0,
82781.25,
82781.25,
82781.25,
82781.25,
173840.625,
66225.0,
66225.0,
66225.0,
66225.0,
66225.0,
82781.25,
82781.25,
82781.25,
82781.25,
82781.25,
82781.25,
82781.25,
82781.25,
82781.25,
82781.25,
82781.25,
82781.25,
82781.25,
82781.25,
82781.25,
124171.875,
57946.875,
57946.875,
82781.25,
82781.25,
82781.25,
165562.5,
124171.875,
124171.875,
82781.25,
82781.25,
82781.25,
82781.25,
82781.25,
82781.25,
82781.25,
82781.25,
82781.25,
82781.25,
82781.25,
711918.75,
711918.75,
951984.375,
173840.625,
422184.375,
66225.0,
66225.0,
66225.0,
66225.0,
66225.0,
99337.5,
99337.5,
554634.375,
314568.75,
99337.5,
99337.5,
289734.375,
289734.375,
289734.375,
99337.5,
66225.0,
66225.0,
66225.0,
66225.0,
66225.0,
66225.0,
529800.0,
82781.25,
82781.25,
529800.0,
82781.25,
82781.25,
794700.0,
82781.25,
82781.25,
82781.25,
347681.25,
82781.25,
82781.25,
82781.25,
248343.75,
165562.5,
82781.25,
82781.25,
82781.25,
165562.5,
66225.0,
66225.0,
66225.0,
66225.0,
66225.0,
190396.875,
66225.0,
66225.0,
66225.0,
66225.0,
66225.0,
132450.0,
82781.25,
82781.25,
82781.25,
82781.25,
173840.625,
66225.0,
66225.0,
66225.0,
66225.0,
66225.0,
82781.25,
82781.25,
82781.25,
82781.25,
82781.25,
82781.25,
82781.25,
82781.25,
82781.25,
82781.25,
82781.25,
82781.25,
82781.25,
82781.25,
82781.25,
124171.875,
57946.875,
57946.875,
82781.25,
82781.25,
82781.25,
165562.5,
124171.875,
124171.875,
124171.875,
57946.875,
57946.875,
74503.125,
74503.125,
74503.125,
157284.375,
115893.75,
115893.75,
157284.375,
74503.125,
74503.125,
74503.125,
157284.375,
57946.875,
57946.875,
57946.875,
57946.875,
57946.875,
57946.875,
397350.0,
165562.5,
82781.25,
82781.25,
82781.25,
165562.5,
66225.0,
66225.0,
66225.0,
66225.0,
66225.0,
190396.875,
66225.0,
66225.0,
66225.0,
66225.0,
66225.0,
132450.0,
82781.25,
82781.25,
82781.25,
82781.25,
173840.625,
66225.0,
66225.0,
66225.0,
66225.0,
66225.0,
82781.25,
82781.25,
82781.25,
82781.25,
82781.25,
82781.25,
82781.25,
82781.25,
82781.25,
82781.25,
82781.25,
82781.25,
82781.25,
82781.25,
82781.25,
124171.875,
57946.875,
57946.875,
82781.25,
82781.25,
82781.25,
165562.5,
124171.875,
124171.875,
82781.25,
82781.25,
82781.25,
82781.25,
82781.25,
82781.25,
82781.25,
82781.25,
82781.25,
82781.25,
82781.25,
711918.75,
711918.75,
951984.375,
173840.625,
422184.375,
66225.0,
66225.0,
66225.0,
66225.0,
66225.0,
99337.5,
99337.5,
554634.375,
314568.75,
99337.5,
99337.5,
289734.375,
289734.375,
289734.375,
99337.5,
66225.0,
66225.0,
66225.0,
66225.0,
66225.0,
66225.0,
529800.0,
82781.25,
82781.25,
529800.0,
82781.25,
82781.25,
794700.0,
82781.25,
82781.25,
82781.25,
347681.25,
82781.25,
82781.25,
82781.25,
248343.75,
165562.5,
82781.25,
82781.25,
82781.25,
165562.5,
66225.0,
66225.0,
66225.0,
66225.0,
66225.0,
190396.875,
66225.0,
66225.0,
66225.0,
66225.0,
66225.0,
132450.0,
82781.25,
82781.25,
82781.25,
82781.25,
173840.625,
66225.0,
66225.0,
66225.0,
66225.0,
66225.0,
82781.25,
82781.25,
82781.25,
82781.25,
82781.25,
82781.25,
82781.25,
82781.25,
82781.25,
82781.25,
82781.25,
82781.25,
82781.25,
82781.25,
82781.25,
124171.875,
57946.875,
57946.875,
82781.25,
82781.25,
82781.25,
165562.5,
124171.875,
124171.875,
124171.875,
57946.875,
57946.875,
74503.125,
74503.125,
74503.125,
157284.375,
115893.75,
115893.75,
157284.375,
74503.125,
74503.125,
74503.125,
157284.375,
57946.875,
57946.875,
57946.875,
57946.875,
57946.875,
57946.875,
397350.0,
165562.5,
82781.25,
82781.25,
82781.25,
165562.5,
66225.0,
66225.0,
66225.0,
66225.0,
66225.0,
190396.875,
66225.0,
66225.0,
66225.0,
66225.0,
66225.0,
132450.0,
82781.25,
82781.25,
82781.25,
82781.25,
173840.625,
66225.0,
66225.0,
66225.0,
66225.0,
66225.0,
82781.25,
82781.25,
82781.25,
82781.25,
82781.25,
82781.25,
82781.25,
82781.25,
82781.25,
82781.25,
82781.25,
82781.25,
82781.25,
82781.25,
82781.25,
124171.875,
57946.875,
57946.875,
82781.25,
82781.25,
82781.25,
165562.5,
124171.875,
124171.875,
82781.25,
82781.25,
82781.25,
82781.25,
82781.25,
82781.25,
82781.25,
82781.25,
82781.25,
82781.25,
82781.25,
711918.75,
711918.75,
951984.375,
173840.625,
422184.375,
66225.0,
66225.0,
66225.0,
66225.0,
66225.0,
99337.5,
99337.5,
554634.375,
314568.75,
99337.5,
99337.5,
289734.375,
289734.375,
289734.375,
99337.5,
66225.0,
66225.0,
66225.0,
66225.0,
66225.0,
66225.0,
529800.0,
82781.25,
82781.25,
529800.0,
82781.25,
82781.25,
794700.0,
82781.25,
82781.25,
82781.25,
347681.25,
82781.25,
82781.25,
82781.25,
248343.75,
165562.5,
82781.25,
82781.25,
82781.25,
165562.5,
66225.0,
66225.0,
66225.0,
66225.0,
66225.0,
190396.875,
66225.0,
66225.0,
66225.0,
66225.0,
66225.0,
132450.0,
82781.25,
82781.25,
82781.25,
82781.25,
173840.625,
66225.0,
66225.0,
66225.0,
66225.0,
66225.0,
206953.125,
82781.25,
82781.25,
82781.25,
82781.25,
82781.25,
82781.25,
82781.25,
82781.25,
82781.25,
82781.25,
82781.25,
82781.25,
82781.25,
82781.25,
124171.875,
57946.875,
57946.875,
82781.25,
82781.25,
82781.25,
165562.5,
124171.875,
124171.875,
};

float end_time1[] = {
2649000.0,
2963568.75,
3096018.75,
3228468.75,
3443700.0,
3758268.75,
3890718.75,
4023168.75,
4238400.0,
4552968.75,
4685418.75,
4817868.75,
5033100.0,
5347668.75,
5480118.75,
5612568.75,
6514884.375,
6937068.75,
7069518.75,
7201968.75,
8104284.375,
9006600.0,
9321168.75,
9453618.75,
9586068.75,
9801300.0,
9999975.0,
10099312.5,
10198650.0,
10297987.5,
10397325.0,
10620834.375,
10794675.0,
10894012.5,
10993350.0,
11092687.5,
11192025.0,
11357587.5,
11572818.75,
11705268.75,
11837718.75,
11970168.75,
12193678.125,
12384075.0,
12483412.5,
12582750.0,
12682087.5,
12781425.0,
12897318.75,
13162218.75,
13294668.75,
13427118.75,
13559568.75,
13692018.75,
13956918.75,
14089368.75,
14221818.75,
14354268.75,
14486718.75,
14751618.75,
14884068.75,
15016518.75,
15148968.75,
15322809.375,
15455259.375,
15554596.875,
15678768.75,
15811218.75,
15943668.75,
16158900.0,
16514859.375,
16713534.375,
16912209.375,
17044659.375,
17143996.875,
17259890.625,
17392340.625,
17524790.625,
17740021.875,
18095981.25,
18294656.25,
18534721.875,
18849290.625,
18981740.625,
19114190.625,
19329421.875,
19428759.375,
19528096.875,
19627434.375,
19726771.875,
19826109.375,
19925446.875,
20364187.5,
21721800.0,
22036368.75,
22168818.75,
22301268.75,
22516500.0,
22715175.0,
22814512.5,
22913850.0,
23013187.5,
23112525.0,
23336034.375,
23509875.0,
23609212.5,
23708550.0,
23807887.5,
23907225.0,
24072787.5,
24288018.75,
24420468.75,
24552918.75,
24685368.75,
24908878.125,
25099275.0,
25198612.5,
25297950.0,
25397287.5,
25496625.0,
25612518.75,
25877418.75,
26009868.75,
26142318.75,
26274768.75,
26407218.75,
26672118.75,
26804568.75,
26937018.75,
27069468.75,
27201918.75,
27466818.75,
27599268.75,
27731718.75,
27864168.75,
28038009.375,
28170459.375,
28269796.875,
28393968.75,
28526418.75,
28658868.75,
28874100.0,
29230059.375,
29428734.375,
29586018.75,
29718468.75,
29850918.75,
29983368.75,
30115818.75,
30248268.75,
30380718.75,
30645618.75,
30778068.75,
30910518.75,
31042968.75,
31804556.25,
32599256.25,
33634021.875,
34445278.125,
35090971.875,
35430375.0,
35529712.5,
35629050.0,
35728387.5,
35827725.0,
35960175.0,
36225075.0,
36812821.875,
37367456.25,
37549575.0,
37814475.0,
38137321.875,
38534671.875,
38932021.875,
39138975.0,
39304537.5,
39403875.0,
39503212.5,
39602550.0,
39701887.5,
39801225.0,
40364137.5,
40711818.75,
40976718.75,
41556187.5,
42301218.75,
42566118.75,
43410487.5,
44287968.75,
44420418.75,
44552868.75,
44950218.75,
45877368.75,
46009818.75,
46142268.75,
46440281.25,
47152200.0,
47466768.75,
47599218.75,
47731668.75,
47946900.0,
48145575.0,
48244912.5,
48344250.0,
48443587.5,
48542925.0,
48766434.375,
48940275.0,
49039612.5,
49138950.0,
49238287.5,
49337625.0,
49503187.5,
49718418.75,
49850868.75,
49983318.75,
50115768.75,
50339278.125,
50529675.0,
50629012.5,
50728350.0,
50827687.5,
50927025.0,
51042918.75,
51307818.75,
51440268.75,
51572718.75,
51705168.75,
51837618.75,
52102518.75,
52234968.75,
52367418.75,
52499868.75,
52632318.75,
52897218.75,
53029668.75,
53162118.75,
53294568.75,
53468409.375,
53600859.375,
53700196.875,
53824368.75,
53956818.75,
54089268.75,
54304500.0,
54660459.375,
54859134.375,
55057809.375,
55190259.375,
55289596.875,
55405490.625,
55537940.625,
55670390.625,
55885621.875,
56241581.25,
56440256.25,
56680321.875,
56994890.625,
57127340.625,
57259790.625,
57475021.875,
57574359.375,
57673696.875,
57773034.375,
57872371.875,
57971709.375,
58071046.875,
58509787.5,
59867400.0,
60181968.75,
60314418.75,
60446868.75,
60662100.0,
60860775.0,
60960112.5,
61059450.0,
61158787.5,
61258125.0,
61481634.375,
61655475.0,
61754812.5,
61854150.0,
61953487.5,
62052825.0,
62218387.5,
62433618.75,
62566068.75,
62698518.75,
62830968.75,
63054478.125,
63244875.0,
63344212.5,
63443550.0,
63542887.5,
63642225.0,
63758118.75,
64023018.75,
64155468.75,
64287918.75,
64420368.75,
64552818.75,
64817718.75,
64950168.75,
65082618.75,
65215068.75,
65347518.75,
65612418.75,
65744868.75,
65877318.75,
66009768.75,
66183609.375,
66316059.375,
66415396.875,
66539568.75,
66672018.75,
66804468.75,
67019700.0,
67375659.375,
67574334.375,
67731618.75,
67864068.75,
67996518.75,
68128968.75,
68261418.75,
68393868.75,
68526318.75,
68791218.75,
68923668.75,
69056118.75,
69188568.75,
69950156.25,
70744856.25,
71779621.875,
72590878.125,
73236571.875,
73575975.0,
73675312.5,
73774650.0,
73873987.5,
73973325.0,
74105775.0,
74370675.0,
74958421.875,
75513056.25,
75695175.0,
75960075.0,
76282921.875,
76680271.875,
77077621.875,
77284575.0,
77450137.5,
77549475.0,
77648812.5,
77748150.0,
77847487.5,
77946825.0,
78509737.5,
78857418.75,
79122318.75,
79701787.5,
80446818.75,
80711718.75,
81556087.5,
82433568.75,
82566018.75,
82698468.75,
83095818.75,
84022968.75,
84155418.75,
84287868.75,
84585881.25,
85297800.0,
85612368.75,
85744818.75,
85877268.75,
86092500.0,
86291175.0,
86390512.5,
86489850.0,
86589187.5,
86688525.0,
86912034.375,
87085875.0,
87185212.5,
87284550.0,
87383887.5,
87483225.0,
87648787.5,
87864018.75,
87996468.75,
88128918.75,
88261368.75,
88484878.125,
88675275.0,
88774612.5,
88873950.0,
88973287.5,
89072625.0,
89188518.75,
89453418.75,
89585868.75,
89718318.75,
89850768.75,
89983218.75,
90248118.75,
90380568.75,
90513018.75,
90645468.75,
90777918.75,
91042818.75,
91175268.75,
91307718.75,
91440168.75,
91614009.375,
91746459.375,
91845796.875,
91969968.75,
92102418.75,
92234868.75,
92450100.0,
92806059.375,
93004734.375,
93203409.375,
93335859.375,
93435196.875,
93551090.625,
93683540.625,
93815990.625,
94031221.875,
94387181.25,
94585856.25,
94825921.875,
95140490.625,
95272940.625,
95405390.625,
95620621.875,
95719959.375,
95819296.875,
95918634.375,
96017971.875,
96117309.375,
96216646.875,
96655387.5,
98013000.0,
98327568.75,
98460018.75,
98592468.75,
98807700.0,
99006375.0,
99105712.5,
99205050.0,
99304387.5,
99403725.0,
99627234.375,
99801075.0,
99900412.5,
99999750.0,
100099087.5,
100198425.0,
100363987.5,
100579218.75,
100711668.75,
100844118.75,
100976568.75,
101200078.125,
101390475.0,
101489812.5,
101589150.0,
101688487.5,
101787825.0,
101903718.75,
102168618.75,
102301068.75,
102433518.75,
102565968.75,
102698418.75,
102963318.75,
103095768.75,
103228218.75,
103360668.75,
103493118.75,
103758018.75,
103890468.75,
104022918.75,
104155368.75,
104329209.375,
104461659.375,
104560996.875,
104685168.75,
104817618.75,
104950068.75,
105165300.0,
105521259.375,
105719934.375,
105877218.75,
106009668.75,
106142118.75,
106274568.75,
106407018.75,
106539468.75,
106671918.75,
106936818.75,
107069268.75,
107201718.75,
107334168.75,
108095756.25,
108890456.25,
109925221.875,
110736478.125,
111382171.875,
111721575.0,
111820912.5,
111920250.0,
112019587.5,
112118925.0,
112251375.0,
112516275.0,
113104021.875,
113658656.25,
113840775.0,
114105675.0,
114428521.875,
114825871.875,
115223221.875,
115430175.0,
115595737.5,
115695075.0,
115794412.5,
115893750.0,
115993087.5,
116092425.0,
116655337.5,
117003018.75,
117267918.75,
117847387.5,
118592418.75,
118857318.75,
119701687.5,
120579168.75,
120711618.75,
120844068.75,
121241418.75,
122168568.75,
122301018.75,
122433468.75,
122731481.25,
123443400.0,
123757968.75,
123890418.75,
124022868.75,
124238100.0,
124436775.0,
124536112.5,
124635450.0,
124734787.5,
124834125.0,
125057634.375,
125231475.0,
125330812.5,
125430150.0,
125529487.5,
125628825.0,
125794387.5,
126009618.75,
126142068.75,
126274518.75,
126406968.75,
126630478.125,
126820875.0,
126920212.5,
127019550.0,
127118887.5,
127218225.0,
127458290.625,
127599018.75,
127731468.75,
127863918.75,
127996368.75,
128128818.75,
128393718.75,
128526168.75,
128658618.75,
128791068.75,
128923518.75,
129188418.75,
129320868.75,
129453318.75,
129585768.75,
129759609.375,
129892059.375,
129991396.875,
130115568.75,
130248018.75,
130380468.75,
130595700.0,
130951659.375,
131150334.375,
};

int melody2[] = {
NOTE_G3,
NOTE_G3,
NOTE_G3,
NOTE_G3,
NOTE_F3,
NOTE_F3,
NOTE_F3,
NOTE_F3,
NOTE_DS3,
NOTE_DS3,
NOTE_DS3,
NOTE_DS3,
NOTE_F3,
NOTE_F3,
NOTE_F3,
NOTE_F3,
NOTE_DS3,
NOTE_F3,
NOTE_G3,
NOTE_G3,
NOTE_G3,
NOTE_G3,
NOTE_G3,
NOTE_D3,
NOTE_D3,
NOTE_D3,
NOTE_G3,
NOTE_G3,
NOTE_G3,
NOTE_G3,
NOTE_G3,
NOTE_D3,
NOTE_D3,
NOTE_D3,
NOTE_G2,
NOTE_G2,
NOTE_G2,
NOTE_F2,
NOTE_G2,
NOTE_G2,
NOTE_F2,
NOTE_F2,
NOTE_F2,
NOTE_DS2,
NOTE_F2,
NOTE_F2,
NOTE_DS2,
NOTE_DS2,
NOTE_DS2,
NOTE_D2,
NOTE_DS2,
NOTE_DS2,
NOTE_AS2,
NOTE_AS2,
NOTE_AS2,
NOTE_GS2,
NOTE_AS2,
NOTE_AS2,
NOTE_GS2,
NOTE_GS2,
NOTE_GS2,
NOTE_G2,
NOTE_GS2,
NOTE_GS2,
NOTE_GS2,
NOTE_GS2,
NOTE_G2,
NOTE_G2,
NOTE_G2,
NOTE_F2,
NOTE_G2,
NOTE_G2,
NOTE_G2,
NOTE_G2,
NOTE_A2,
NOTE_A2,
NOTE_A2,
NOTE_A2,
NOTE_A2,
NOTE_A2,
NOTE_A2,
NOTE_A2,
NOTE_D3,
NOTE_G3,
NOTE_G3,
NOTE_G3,
NOTE_A3,
NOTE_E2,
NOTE_FS2,
NOTE_G2,
NOTE_G2,
NOTE_G2,
NOTE_F2,
NOTE_G2,
NOTE_G2,
NOTE_F2,
NOTE_F2,
NOTE_F2,
NOTE_DS2,
NOTE_F2,
NOTE_F2,
NOTE_DS2,
NOTE_DS2,
NOTE_DS2,
NOTE_D2,
NOTE_DS2,
NOTE_DS2,
NOTE_AS2,
NOTE_AS2,
NOTE_AS2,
NOTE_GS2,
NOTE_AS2,
NOTE_AS2,
NOTE_GS2,
NOTE_GS3,
NOTE_GS3,
NOTE_G3,
NOTE_GS3,
NOTE_GS3,
NOTE_GS3,
NOTE_GS3,
NOTE_G3,
NOTE_FS3,
NOTE_F3,
NOTE_E3,
NOTE_C3,
NOTE_D3,
NOTE_D3,
NOTE_D4,
NOTE_C4,
NOTE_A3,
NOTE_G3,
NOTE_A3,
NOTE_AS3,
NOTE_G3,
NOTE_DS2,
NOTE_DS3,
NOTE_G3,
NOTE_AS3,
NOTE_DS4,
NOTE_DS2,
NOTE_DS2,
NOTE_DS2,
NOTE_D2,
NOTE_D3,
NOTE_F3,
NOTE_A3,
NOTE_D4,
NOTE_D3,
NOTE_D3,
NOTE_D3,
NOTE_G2,
NOTE_G2,
NOTE_G2,
NOTE_G2,
NOTE_G2,
NOTE_G2,
NOTE_G2,
NOTE_G2,
NOTE_G2,
NOTE_G2,
NOTE_G2,
NOTE_G2,
NOTE_G2,
NOTE_G2,
NOTE_F2,
NOTE_DS2,
NOTE_DS2,
NOTE_G2,
NOTE_AS2,
NOTE_DS3,
NOTE_DS2,
NOTE_DS2,
NOTE_DS2,
NOTE_GS2,
NOTE_GS2,
NOTE_C3,
NOTE_DS3,
NOTE_GS3,
NOTE_GS2,
NOTE_GS2,
NOTE_GS2,
NOTE_D2,
NOTE_C3,
NOTE_C3,
NOTE_C3,
NOTE_C3,
NOTE_D2,
NOTE_D2,
NOTE_D2,
NOTE_D2,
NOTE_DS3,
NOTE_D3,
NOTE_C3,
NOTE_AS2,
NOTE_A2,
NOTE_G2,
NOTE_G2,
NOTE_G2,
NOTE_F2,
NOTE_G2,
NOTE_G2,
NOTE_F2,
NOTE_F2,
NOTE_F2,
NOTE_DS2,
NOTE_F2,
NOTE_F2,
NOTE_DS2,
NOTE_DS2,
NOTE_DS2,
NOTE_D2,
NOTE_DS2,
NOTE_DS2,
NOTE_AS2,
NOTE_AS2,
NOTE_AS2,
NOTE_GS2,
NOTE_AS2,
NOTE_AS2,
NOTE_GS2,
NOTE_GS2,
NOTE_GS2,
NOTE_G2,
NOTE_GS2,
NOTE_GS2,
NOTE_GS2,
NOTE_GS2,
NOTE_G2,
NOTE_G2,
NOTE_G2,
NOTE_F2,
NOTE_G2,
NOTE_G2,
NOTE_G2,
NOTE_G2,
NOTE_A2,
NOTE_A2,
NOTE_A2,
NOTE_A2,
NOTE_A2,
NOTE_A2,
NOTE_A2,
NOTE_A2,
NOTE_D3,
NOTE_G3,
NOTE_G3,
NOTE_G3,
NOTE_A3,
NOTE_E2,
NOTE_FS2,
NOTE_G2,
NOTE_G2,
NOTE_G2,
NOTE_F2,
NOTE_G2,
NOTE_G2,
NOTE_F2,
NOTE_F2,
NOTE_F2,
NOTE_DS2,
NOTE_F2,
NOTE_F2,
NOTE_DS2,
NOTE_DS2,
NOTE_DS2,
NOTE_D2,
NOTE_DS2,
NOTE_DS2,
NOTE_AS2,
NOTE_AS2,
NOTE_AS2,
NOTE_GS2,
NOTE_AS2,
NOTE_AS2,
NOTE_GS2,
NOTE_GS3,
NOTE_GS3,
NOTE_G3,
NOTE_GS3,
NOTE_GS3,
NOTE_GS3,
NOTE_GS3,
NOTE_G3,
NOTE_FS3,
NOTE_F3,
NOTE_E3,
NOTE_C3,
NOTE_D3,
NOTE_D3,
NOTE_D4,
NOTE_C4,
NOTE_A3,
NOTE_G3,
NOTE_A3,
NOTE_AS3,
NOTE_G3,
NOTE_DS2,
NOTE_DS3,
NOTE_G3,
NOTE_AS3,
NOTE_DS4,
NOTE_DS2,
NOTE_DS2,
NOTE_DS2,
NOTE_D2,
NOTE_D3,
NOTE_F3,
NOTE_A3,
NOTE_D4,
NOTE_D3,
NOTE_D3,
NOTE_D3,
NOTE_G2,
NOTE_G2,
NOTE_G2,
NOTE_G2,
NOTE_G2,
NOTE_G2,
NOTE_G2,
NOTE_G2,
NOTE_G2,
NOTE_G2,
NOTE_G2,
NOTE_G2,
NOTE_G2,
NOTE_G2,
NOTE_F2,
NOTE_DS2,
NOTE_DS2,
NOTE_G2,
NOTE_AS2,
NOTE_DS3,
NOTE_DS2,
NOTE_DS2,
NOTE_DS2,
NOTE_GS2,
NOTE_GS2,
NOTE_C3,
NOTE_DS3,
NOTE_GS3,
NOTE_GS2,
NOTE_GS2,
NOTE_GS2,
NOTE_D2,
NOTE_C3,
NOTE_C3,
NOTE_C3,
NOTE_C3,
NOTE_D2,
NOTE_D2,
NOTE_D2,
NOTE_D2,
NOTE_DS3,
NOTE_D3,
NOTE_C3,
NOTE_AS2,
NOTE_A2,
NOTE_G2,
NOTE_G2,
NOTE_G2,
NOTE_F2,
NOTE_G2,
NOTE_G2,
NOTE_F2,
NOTE_F2,
NOTE_F2,
NOTE_DS2,
NOTE_F2,
NOTE_F2,
NOTE_DS2,
NOTE_DS2,
NOTE_DS2,
NOTE_D2,
NOTE_DS2,
NOTE_DS2,
NOTE_AS2,
NOTE_AS2,
NOTE_AS2,
NOTE_GS2,
NOTE_AS2,
NOTE_AS2,
NOTE_GS2,
NOTE_GS2,
NOTE_GS2,
NOTE_G2,
NOTE_GS2,
NOTE_GS2,
NOTE_GS2,
NOTE_GS2,
NOTE_G2,
NOTE_G2,
NOTE_G2,
NOTE_F2,
NOTE_G2,
NOTE_G2,
NOTE_G2,
NOTE_G2,
NOTE_A2,
NOTE_A2,
NOTE_A2,
NOTE_A2,
NOTE_A2,
NOTE_A2,
NOTE_A2,
NOTE_A2,
NOTE_D3,
NOTE_G3,
NOTE_G3,
NOTE_G3,
NOTE_A3,
NOTE_E2,
NOTE_FS2,
NOTE_G2,
NOTE_G2,
NOTE_G2,
NOTE_F2,
NOTE_G2,
NOTE_G2,
NOTE_F2,
NOTE_F2,
NOTE_F2,
NOTE_DS2,
NOTE_F2,
NOTE_F2,
NOTE_DS2,
NOTE_DS2,
NOTE_DS2,
NOTE_D2,
NOTE_DS2,
NOTE_DS2,
NOTE_AS2,
NOTE_AS2,
NOTE_AS2,
NOTE_GS2,
NOTE_AS2,
NOTE_AS2,
NOTE_GS2,
NOTE_GS3,
NOTE_GS3,
NOTE_G3,
NOTE_GS3,
NOTE_GS3,
NOTE_GS3,
NOTE_GS3,
NOTE_G3,
NOTE_FS3,
NOTE_F3,
NOTE_E3,
NOTE_C3,
NOTE_D3,
NOTE_D3,
NOTE_D4,
NOTE_C4,
NOTE_A3,
NOTE_G3,
NOTE_A3,
NOTE_AS3,
NOTE_G3,
NOTE_DS2,
NOTE_DS3,
NOTE_G3,
NOTE_AS3,
NOTE_DS4,
NOTE_DS2,
NOTE_DS2,
NOTE_DS2,
NOTE_D2,
NOTE_D3,
NOTE_F3,
NOTE_A3,
NOTE_D4,
NOTE_D3,
NOTE_D3,
NOTE_D3,
NOTE_G2,
NOTE_G2,
NOTE_G2,
NOTE_G2,
NOTE_G2,
NOTE_G2,
NOTE_G2,
NOTE_G2,
NOTE_G2,
NOTE_G2,
NOTE_G2,
NOTE_G2,
NOTE_G2,
NOTE_G2,
NOTE_F2,
NOTE_DS2,
NOTE_DS2,
NOTE_G2,
NOTE_AS2,
NOTE_DS3,
NOTE_DS2,
NOTE_DS2,
NOTE_DS2,
NOTE_GS2,
NOTE_GS2,
NOTE_C3,
NOTE_DS3,
NOTE_GS3,
NOTE_GS2,
NOTE_GS2,
NOTE_GS2,
NOTE_D2,
NOTE_C3,
NOTE_C3,
NOTE_C3,
NOTE_C3,
NOTE_D2,
NOTE_D2,
NOTE_D2,
NOTE_D2,
NOTE_DS3,
NOTE_D3,
NOTE_C3,
NOTE_AS2,
NOTE_A2,
NOTE_G2,
NOTE_G2,
NOTE_G2,
NOTE_F2,
NOTE_G2,
NOTE_G2,
NOTE_F2,
NOTE_F2,
NOTE_F2,
NOTE_DS2,
NOTE_F2,
NOTE_F2,
NOTE_DS2,
NOTE_DS2,
NOTE_DS2,
NOTE_D2,
NOTE_DS2,
NOTE_DS2,
NOTE_AS2,
NOTE_AS2,
NOTE_AS2,
NOTE_GS2,
NOTE_AS2,
NOTE_AS2,
NOTE_GS2,
NOTE_GS2,
NOTE_GS2,
NOTE_G2,
NOTE_GS2,
NOTE_GS2,
NOTE_GS2,
NOTE_GS2,
};

float start_time2[] = {
2483437.5,
2880787.5,
3013237.5,
3145687.5,
3278137.5,
3675487.5,
3807937.5,
3940387.5,
4072837.5,
4470187.5,
4602637.5,
4735087.5,
4867537.5,
4999987.5,
5132437.5,
5264887.5,
5397337.5,
5529787.5,
5662237.5,
6059587.5,
6192037.5,
6324487.5,
6456937.5,
6854287.5,
6986737.5,
7119187.5,
7251637.5,
7648987.5,
7781437.5,
7913887.5,
8046337.5,
8443687.5,
8576137.5,
8708587.5,
8841037.5,
9238387.5,
9370837.5,
9503287.5,
9635737.5,
10033087.5,
10430437.5,
10827787.5,
10960237.5,
11092687.5,
11225137.5,
11622487.5,
12019837.5,
12417187.5,
12549637.5,
12682087.5,
12814537.5,
13211887.5,
13609237.5,
14006587.5,
14139037.5,
14271487.5,
14403937.5,
14801287.5,
15198637.5,
15595987.5,
15728437.5,
15860887.5,
15993337.5,
16390687.5,
16523137.5,
16655587.5,
16788037.5,
17185387.5,
17317837.5,
17450287.5,
17582737.5,
17980087.5,
18112537.5,
18244987.5,
18377437.5,
18774787.5,
18907237.5,
19039687.5,
19172137.5,
19569487.5,
19701937.5,
19834387.5,
19966837.5,
20364187.5,
20496637.5,
20629087.5,
20761537.5,
21158887.5,
21357562.5,
21556237.5,
21953587.5,
22086037.5,
22218487.5,
22350937.5,
22748287.5,
23145637.5,
23542987.5,
23675437.5,
23807887.5,
23940337.5,
24337687.5,
24735037.5,
25132387.5,
25264837.5,
25397287.5,
25529737.5,
25927087.5,
26324437.5,
26721787.5,
26854237.5,
26986687.5,
27119137.5,
27516487.5,
27913837.5,
28311187.5,
28443637.5,
28576087.5,
28708537.5,
29105887.5,
29238337.5,
29370787.5,
29503237.5,
29900587.5,
30297937.5,
31092637.5,
31489987.5,
31887337.5,
32284687.5,
32417137.5,
32549587.5,
32682037.5,
32814487.5,
32946937.5,
33079387.5,
33476737.5,
34271437.5,
34668787.5,
34801237.5,
34933687.5,
35066137.5,
35463487.5,
35595937.5,
35728387.5,
35860837.5,
36258187.5,
36390637.5,
36523087.5,
36655537.5,
37052887.5,
37185337.5,
37317787.5,
37450237.5,
37847587.5,
37980037.5,
38112487.5,
38244937.5,
38642287.5,
38774737.5,
38907187.5,
39039637.5,
39436987.5,
39569437.5,
39701887.5,
39834337.5,
40132350.0,
40430362.5,
40629037.5,
41026387.5,
41158837.5,
41291287.5,
41423737.5,
41821087.5,
41953537.5,
42085987.5,
42218437.5,
42615787.5,
42748237.5,
42880687.5,
43013137.5,
43410487.5,
43542937.5,
43675387.5,
43807837.5,
44205187.5,
44337637.5,
44470087.5,
44602537.5,
44999887.5,
45132337.5,
45264787.5,
45397237.5,
46324387.5,
46456837.5,
46589287.5,
46721737.5,
46854187.5,
46986637.5,
47383987.5,
47516437.5,
47648887.5,
47781337.5,
48178687.5,
48576037.5,
48973387.5,
49105837.5,
49238287.5,
49370737.5,
49768087.5,
50165437.5,
50562787.5,
50695237.5,
50827687.5,
50960137.5,
51357487.5,
51754837.5,
52152187.5,
52284637.5,
52417087.5,
52549537.5,
52946887.5,
53344237.5,
53741587.5,
53874037.5,
54006487.5,
54138937.5,
54536287.5,
54668737.5,
54801187.5,
54933637.5,
55330987.5,
55463437.5,
55595887.5,
55728337.5,
56125687.5,
56258137.5,
56390587.5,
56523037.5,
56920387.5,
57052837.5,
57185287.5,
57317737.5,
57715087.5,
57847537.5,
57979987.5,
58112437.5,
58509787.5,
58642237.5,
58774687.5,
58907137.5,
59304487.5,
59503162.5,
59701837.5,
60099187.5,
60231637.5,
60364087.5,
60496537.5,
60893887.5,
61291237.5,
61688587.5,
61821037.5,
61953487.5,
62085937.5,
62483287.5,
62880637.5,
63277987.5,
63410437.5,
63542887.5,
63675337.5,
64072687.5,
64470037.5,
64867387.5,
64999837.5,
65132287.5,
65264737.5,
65662087.5,
66059437.5,
66456787.5,
66589237.5,
66721687.5,
66854137.5,
67251487.5,
67383937.5,
67516387.5,
67648837.5,
68046187.5,
68443537.5,
69238237.5,
69635587.5,
70032937.5,
70430287.5,
70562737.5,
70695187.5,
70827637.5,
70960087.5,
71092537.5,
71224987.5,
71622337.5,
72417037.5,
72814387.5,
72946837.5,
73079287.5,
73211737.5,
73609087.5,
73741537.5,
73873987.5,
74006437.5,
74403787.5,
74536237.5,
74668687.5,
74801137.5,
75198487.5,
75330937.5,
75463387.5,
75595837.5,
75993187.5,
76125637.5,
76258087.5,
76390537.5,
76787887.5,
76920337.5,
77052787.5,
77185237.5,
77582587.5,
77715037.5,
77847487.5,
77979937.5,
78277950.0,
78575962.5,
78774637.5,
79171987.5,
79304437.5,
79436887.5,
79569337.5,
79966687.5,
80099137.5,
80231587.5,
80364037.5,
80761387.5,
80893837.5,
81026287.5,
81158737.5,
81556087.5,
81688537.5,
81820987.5,
81953437.5,
82350787.5,
82483237.5,
82615687.5,
82748137.5,
83145487.5,
83277937.5,
83410387.5,
83542837.5,
84469987.5,
84602437.5,
84734887.5,
84867337.5,
84999787.5,
85132237.5,
85529587.5,
85662037.5,
85794487.5,
85926937.5,
86324287.5,
86721637.5,
87118987.5,
87251437.5,
87383887.5,
87516337.5,
87913687.5,
88311037.5,
88708387.5,
88840837.5,
88973287.5,
89105737.5,
89503087.5,
89900437.5,
90297787.5,
90430237.5,
90562687.5,
90695137.5,
91092487.5,
91489837.5,
91887187.5,
92019637.5,
92152087.5,
92284537.5,
92681887.5,
92814337.5,
92946787.5,
93079237.5,
93476587.5,
93609037.5,
93741487.5,
93873937.5,
94271287.5,
94403737.5,
94536187.5,
94668637.5,
95065987.5,
95198437.5,
95330887.5,
95463337.5,
95860687.5,
95993137.5,
96125587.5,
96258037.5,
96655387.5,
96787837.5,
96920287.5,
97052737.5,
97450087.5,
97648762.5,
97847437.5,
98244787.5,
98377237.5,
98509687.5,
98642137.5,
99039487.5,
99436837.5,
99834187.5,
99966637.5,
100099087.5,
100231537.5,
100628887.5,
101026237.5,
101423587.5,
101556037.5,
101688487.5,
101820937.5,
102218287.5,
102615637.5,
103012987.5,
103145437.5,
103277887.5,
103410337.5,
103807687.5,
104205037.5,
104602387.5,
104734837.5,
104867287.5,
104999737.5,
105397087.5,
105529537.5,
105661987.5,
105794437.5,
106191787.5,
106589137.5,
107383837.5,
107781187.5,
108178537.5,
108575887.5,
108708337.5,
108840787.5,
108973237.5,
109105687.5,
109238137.5,
109370587.5,
109767937.5,
110562637.5,
110959987.5,
111092437.5,
111224887.5,
111357337.5,
111754687.5,
111887137.5,
112019587.5,
112152037.5,
112549387.5,
112681837.5,
112814287.5,
112946737.5,
113344087.5,
113476537.5,
113608987.5,
113741437.5,
114138787.5,
114271237.5,
114403687.5,
114536137.5,
114933487.5,
115065937.5,
115198387.5,
115330837.5,
115728187.5,
115860637.5,
115993087.5,
116125537.5,
116423550.0,
116721562.5,
116920237.5,
117317587.5,
117450037.5,
117582487.5,
117714937.5,
118112287.5,
118244737.5,
118377187.5,
118509637.5,
118906987.5,
119039437.5,
119171887.5,
119304337.5,
119701687.5,
119834137.5,
119966587.5,
120099037.5,
120496387.5,
120628837.5,
120761287.5,
120893737.5,
121291087.5,
121423537.5,
121555987.5,
121688437.5,
122615587.5,
122748037.5,
122880487.5,
123012937.5,
123145387.5,
123277837.5,
123675187.5,
123807637.5,
123940087.5,
124072537.5,
124469887.5,
124867237.5,
125264587.5,
125397037.5,
125529487.5,
125661937.5,
126059287.5,
126456637.5,
126853987.5,
126986437.5,
127118887.5,
127251337.5,
127648687.5,
128046037.5,
128443387.5,
128575837.5,
128708287.5,
128840737.5,
129238087.5,
129635437.5,
130032787.5,
130165237.5,
130297687.5,
130430137.5,
130827487.5,
130959937.5,
131092387.5,
};

float duration2[] = {
91059.375,
91059.375,
91059.375,
91059.375,
91059.375,
91059.375,
91059.375,
91059.375,
91059.375,
91059.375,
91059.375,
91059.375,
91059.375,
91059.375,
91059.375,
91059.375,
91059.375,
91059.375,
107615.625,
91059.375,
91059.375,
91059.375,
107615.625,
91059.375,
91059.375,
91059.375,
107615.625,
91059.375,
91059.375,
91059.375,
107615.625,
91059.375,
91059.375,
91059.375,
107615.625,
91059.375,
91059.375,
91059.375,
107615.625,
107615.625,
107615.625,
91059.375,
91059.375,
91059.375,
107615.625,
107615.625,
107615.625,
91059.375,
91059.375,
91059.375,
107615.625,
107615.625,
107615.625,
91059.375,
91059.375,
91059.375,
107615.625,
107615.625,
107615.625,
91059.375,
91059.375,
91059.375,
91059.375,
91059.375,
91059.375,
91059.375,
91059.375,
91059.375,
91059.375,
91059.375,
91059.375,
91059.375,
91059.375,
91059.375,
91059.375,
91059.375,
91059.375,
91059.375,
91059.375,
91059.375,
91059.375,
91059.375,
91059.375,
91059.375,
91059.375,
91059.375,
273178.125,
132450.0,
132450.0,
91059.375,
91059.375,
91059.375,
91059.375,
91059.375,
91059.375,
91059.375,
91059.375,
91059.375,
91059.375,
91059.375,
91059.375,
91059.375,
91059.375,
91059.375,
91059.375,
91059.375,
91059.375,
91059.375,
91059.375,
91059.375,
91059.375,
91059.375,
91059.375,
91059.375,
91059.375,
91059.375,
91059.375,
91059.375,
91059.375,
91059.375,
91059.375,
397350.0,
397350.0,
794700.0,
397350.0,
397350.0,
132450.0,
91059.375,
91059.375,
91059.375,
91059.375,
91059.375,
91059.375,
91059.375,
91059.375,
91059.375,
91059.375,
91059.375,
91059.375,
91059.375,
91059.375,
91059.375,
91059.375,
91059.375,
91059.375,
91059.375,
91059.375,
91059.375,
91059.375,
91059.375,
91059.375,
91059.375,
91059.375,
91059.375,
91059.375,
91059.375,
91059.375,
91059.375,
91059.375,
91059.375,
91059.375,
91059.375,
91059.375,
149006.25,
165562.5,
99337.5,
91059.375,
91059.375,
91059.375,
91059.375,
91059.375,
91059.375,
91059.375,
91059.375,
91059.375,
91059.375,
91059.375,
91059.375,
91059.375,
91059.375,
91059.375,
91059.375,
149006.25,
91059.375,
91059.375,
91059.375,
91059.375,
91059.375,
91059.375,
91059.375,
91059.375,
91059.375,
91059.375,
91059.375,
91059.375,
91059.375,
107615.625,
91059.375,
91059.375,
91059.375,
107615.625,
107615.625,
107615.625,
91059.375,
91059.375,
91059.375,
107615.625,
107615.625,
107615.625,
91059.375,
91059.375,
91059.375,
107615.625,
107615.625,
107615.625,
91059.375,
91059.375,
91059.375,
107615.625,
107615.625,
107615.625,
91059.375,
91059.375,
91059.375,
91059.375,
91059.375,
91059.375,
91059.375,
91059.375,
91059.375,
91059.375,
91059.375,
91059.375,
91059.375,
91059.375,
91059.375,
91059.375,
91059.375,
91059.375,
91059.375,
91059.375,
91059.375,
91059.375,
91059.375,
91059.375,
91059.375,
91059.375,
91059.375,
273178.125,
132450.0,
132450.0,
91059.375,
91059.375,
91059.375,
91059.375,
91059.375,
91059.375,
91059.375,
91059.375,
91059.375,
91059.375,
91059.375,
91059.375,
91059.375,
91059.375,
91059.375,
91059.375,
91059.375,
91059.375,
91059.375,
91059.375,
91059.375,
91059.375,
91059.375,
91059.375,
91059.375,
91059.375,
91059.375,
91059.375,
91059.375,
91059.375,
91059.375,
91059.375,
397350.0,
397350.0,
794700.0,
397350.0,
397350.0,
132450.0,
91059.375,
91059.375,
91059.375,
91059.375,
91059.375,
91059.375,
91059.375,
91059.375,
91059.375,
91059.375,
91059.375,
91059.375,
91059.375,
91059.375,
91059.375,
91059.375,
91059.375,
91059.375,
91059.375,
91059.375,
91059.375,
91059.375,
91059.375,
91059.375,
91059.375,
91059.375,
91059.375,
91059.375,
91059.375,
91059.375,
91059.375,
91059.375,
91059.375,
91059.375,
91059.375,
91059.375,
149006.25,
165562.5,
99337.5,
91059.375,
91059.375,
91059.375,
91059.375,
91059.375,
91059.375,
91059.375,
91059.375,
91059.375,
91059.375,
91059.375,
91059.375,
91059.375,
91059.375,
91059.375,
91059.375,
149006.25,
91059.375,
91059.375,
91059.375,
91059.375,
91059.375,
91059.375,
91059.375,
91059.375,
91059.375,
91059.375,
91059.375,
91059.375,
91059.375,
107615.625,
91059.375,
91059.375,
91059.375,
107615.625,
107615.625,
107615.625,
91059.375,
91059.375,
91059.375,
107615.625,
107615.625,
107615.625,
91059.375,
91059.375,
91059.375,
107615.625,
107615.625,
107615.625,
91059.375,
91059.375,
91059.375,
107615.625,
107615.625,
107615.625,
91059.375,
91059.375,
91059.375,
91059.375,
91059.375,
91059.375,
91059.375,
91059.375,
91059.375,
91059.375,
91059.375,
91059.375,
91059.375,
91059.375,
91059.375,
91059.375,
91059.375,
91059.375,
91059.375,
91059.375,
91059.375,
91059.375,
91059.375,
91059.375,
91059.375,
91059.375,
91059.375,
273178.125,
132450.0,
132450.0,
91059.375,
91059.375,
91059.375,
91059.375,
91059.375,
91059.375,
91059.375,
91059.375,
91059.375,
91059.375,
91059.375,
91059.375,
91059.375,
91059.375,
91059.375,
91059.375,
91059.375,
91059.375,
91059.375,
91059.375,
91059.375,
91059.375,
91059.375,
91059.375,
91059.375,
91059.375,
91059.375,
91059.375,
91059.375,
91059.375,
91059.375,
91059.375,
397350.0,
397350.0,
794700.0,
397350.0,
397350.0,
132450.0,
91059.375,
91059.375,
91059.375,
91059.375,
91059.375,
91059.375,
91059.375,
91059.375,
91059.375,
91059.375,
91059.375,
91059.375,
91059.375,
91059.375,
91059.375,
91059.375,
91059.375,
91059.375,
91059.375,
91059.375,
91059.375,
91059.375,
91059.375,
91059.375,
91059.375,
91059.375,
91059.375,
91059.375,
91059.375,
91059.375,
91059.375,
91059.375,
91059.375,
91059.375,
91059.375,
91059.375,
149006.25,
165562.5,
99337.5,
91059.375,
91059.375,
91059.375,
91059.375,
91059.375,
91059.375,
91059.375,
91059.375,
91059.375,
91059.375,
91059.375,
91059.375,
91059.375,
91059.375,
91059.375,
91059.375,
149006.25,
91059.375,
91059.375,
91059.375,
91059.375,
91059.375,
91059.375,
91059.375,
91059.375,
91059.375,
91059.375,
91059.375,
91059.375,
91059.375,
107615.625,
91059.375,
91059.375,
91059.375,
107615.625,
107615.625,
107615.625,
91059.375,
91059.375,
91059.375,
107615.625,
107615.625,
107615.625,
91059.375,
91059.375,
91059.375,
107615.625,
107615.625,
107615.625,
91059.375,
91059.375,
91059.375,
107615.625,
107615.625,
107615.625,
91059.375,
91059.375,
91059.375,
91059.375,
91059.375,
91059.375,
91059.375,
};

float end_time2[] = {
2574496.875,
2971846.875,
3104296.875,
3236746.875,
3369196.875,
3766546.875,
3898996.875,
4031446.875,
4163896.875,
4561246.875,
4693696.875,
4826146.875,
4958596.875,
5091046.875,
5223496.875,
5355946.875,
5488396.875,
5620846.875,
5769853.125,
6150646.875,
6283096.875,
6415546.875,
6564553.125,
6945346.875,
7077796.875,
7210246.875,
7359253.125,
7740046.875,
7872496.875,
8004946.875,
8153953.125,
8534746.875,
8667196.875,
8799646.875,
8948653.125,
9329446.875,
9461896.875,
9594346.875,
9743353.125,
10140703.125,
10538053.125,
10918846.875,
11051296.875,
11183746.875,
11332753.125,
11730103.125,
12127453.125,
12508246.875,
12640696.875,
12773146.875,
12922153.125,
13319503.125,
13716853.125,
14097646.875,
14230096.875,
14362546.875,
14511553.125,
14908903.125,
15306253.125,
15687046.875,
15819496.875,
15951946.875,
16084396.875,
16481746.875,
16614196.875,
16746646.875,
16879096.875,
17276446.875,
17408896.875,
17541346.875,
17673796.875,
18071146.875,
18203596.875,
18336046.875,
18468496.875,
18865846.875,
18998296.875,
19130746.875,
19263196.875,
19660546.875,
19792996.875,
19925446.875,
20057896.875,
20455246.875,
20587696.875,
20720146.875,
21034715.625,
21291337.5,
21490012.5,
21647296.875,
22044646.875,
22177096.875,
22309546.875,
22441996.875,
22839346.875,
23236696.875,
23634046.875,
23766496.875,
23898946.875,
24031396.875,
24428746.875,
24826096.875,
25223446.875,
25355896.875,
25488346.875,
25620796.875,
26018146.875,
26415496.875,
26812846.875,
26945296.875,
27077746.875,
27210196.875,
27607546.875,
28004896.875,
28402246.875,
28534696.875,
28667146.875,
28799596.875,
29196946.875,
29329396.875,
29461846.875,
29900587.5,
30297937.5,
31092637.5,
31489987.5,
31887337.5,
32019787.5,
32375746.875,
32508196.875,
32640646.875,
32773096.875,
32905546.875,
33037996.875,
33170446.875,
33567796.875,
34362496.875,
34759846.875,
34892296.875,
35024746.875,
35157196.875,
35554546.875,
35686996.875,
35819446.875,
35951896.875,
36349246.875,
36481696.875,
36614146.875,
36746596.875,
37143946.875,
37276396.875,
37408846.875,
37541296.875,
37938646.875,
38071096.875,
38203546.875,
38335996.875,
38733346.875,
38865796.875,
38998246.875,
39130696.875,
39528046.875,
39660496.875,
39792946.875,
39983343.75,
40297912.5,
40529700.0,
40720096.875,
41117446.875,
41249896.875,
41382346.875,
41514796.875,
41912146.875,
42044596.875,
42177046.875,
42309496.875,
42706846.875,
42839296.875,
42971746.875,
43104196.875,
43501546.875,
43633996.875,
43766446.875,
43956843.75,
44296246.875,
44428696.875,
44561146.875,
44693596.875,
45090946.875,
45223396.875,
45355846.875,
45488296.875,
46415446.875,
46547896.875,
46680346.875,
46812796.875,
46945246.875,
47094253.125,
47475046.875,
47607496.875,
47739946.875,
47888953.125,
48286303.125,
48683653.125,
49064446.875,
49196896.875,
49329346.875,
49478353.125,
49875703.125,
50273053.125,
50653846.875,
50786296.875,
50918746.875,
51067753.125,
51465103.125,
51862453.125,
52243246.875,
52375696.875,
52508146.875,
52657153.125,
53054503.125,
53451853.125,
53832646.875,
53965096.875,
54097546.875,
54229996.875,
54627346.875,
54759796.875,
54892246.875,
55024696.875,
55422046.875,
55554496.875,
55686946.875,
55819396.875,
56216746.875,
56349196.875,
56481646.875,
56614096.875,
57011446.875,
57143896.875,
57276346.875,
57408796.875,
57806146.875,
57938596.875,
58071046.875,
58203496.875,
58600846.875,
58733296.875,
58865746.875,
59180315.625,
59436937.5,
59635612.5,
59792896.875,
60190246.875,
60322696.875,
60455146.875,
60587596.875,
60984946.875,
61382296.875,
61779646.875,
61912096.875,
62044546.875,
62176996.875,
62574346.875,
62971696.875,
63369046.875,
63501496.875,
63633946.875,
63766396.875,
64163746.875,
64561096.875,
64958446.875,
65090896.875,
65223346.875,
65355796.875,
65753146.875,
66150496.875,
66547846.875,
66680296.875,
66812746.875,
66945196.875,
67342546.875,
67474996.875,
67607446.875,
68046187.5,
68443537.5,
69238237.5,
69635587.5,
70032937.5,
70165387.5,
70521346.875,
70653796.875,
70786246.875,
70918696.875,
71051146.875,
71183596.875,
71316046.875,
71713396.875,
72508096.875,
72905446.875,
73037896.875,
73170346.875,
73302796.875,
73700146.875,
73832596.875,
73965046.875,
74097496.875,
74494846.875,
74627296.875,
74759746.875,
74892196.875,
75289546.875,
75421996.875,
75554446.875,
75686896.875,
76084246.875,
76216696.875,
76349146.875,
76481596.875,
76878946.875,
77011396.875,
77143846.875,
77276296.875,
77673646.875,
77806096.875,
77938546.875,
78128943.75,
78443512.5,
78675300.0,
78865696.875,
79263046.875,
79395496.875,
79527946.875,
79660396.875,
80057746.875,
80190196.875,
80322646.875,
80455096.875,
80852446.875,
80984896.875,
81117346.875,
81249796.875,
81647146.875,
81779596.875,
81912046.875,
82102443.75,
82441846.875,
82574296.875,
82706746.875,
82839196.875,
83236546.875,
83368996.875,
83501446.875,
83633896.875,
84561046.875,
84693496.875,
84825946.875,
84958396.875,
85090846.875,
85239853.125,
85620646.875,
85753096.875,
85885546.875,
86034553.125,
86431903.125,
86829253.125,
87210046.875,
87342496.875,
87474946.875,
87623953.125,
88021303.125,
88418653.125,
88799446.875,
88931896.875,
89064346.875,
89213353.125,
89610703.125,
90008053.125,
90388846.875,
90521296.875,
90653746.875,
90802753.125,
91200103.125,
91597453.125,
91978246.875,
92110696.875,
92243146.875,
92375596.875,
92772946.875,
92905396.875,
93037846.875,
93170296.875,
93567646.875,
93700096.875,
93832546.875,
93964996.875,
94362346.875,
94494796.875,
94627246.875,
94759696.875,
95157046.875,
95289496.875,
95421946.875,
95554396.875,
95951746.875,
96084196.875,
96216646.875,
96349096.875,
96746446.875,
96878896.875,
97011346.875,
97325915.625,
97582537.5,
97781212.5,
97938496.875,
98335846.875,
98468296.875,
98600746.875,
98733196.875,
99130546.875,
99527896.875,
99925246.875,
100057696.875,
100190146.875,
100322596.875,
100719946.875,
101117296.875,
101514646.875,
101647096.875,
101779546.875,
101911996.875,
102309346.875,
102706696.875,
103104046.875,
103236496.875,
103368946.875,
103501396.875,
103898746.875,
104296096.875,
104693446.875,
104825896.875,
104958346.875,
105090796.875,
105488146.875,
105620596.875,
105753046.875,
106191787.5,
106589137.5,
107383837.5,
107781187.5,
108178537.5,
108310987.5,
108666946.875,
108799396.875,
108931846.875,
109064296.875,
109196746.875,
109329196.875,
109461646.875,
109858996.875,
110653696.875,
111051046.875,
111183496.875,
111315946.875,
111448396.875,
111845746.875,
111978196.875,
112110646.875,
112243096.875,
112640446.875,
112772896.875,
112905346.875,
113037796.875,
113435146.875,
113567596.875,
113700046.875,
113832496.875,
114229846.875,
114362296.875,
114494746.875,
114627196.875,
115024546.875,
115156996.875,
115289446.875,
115421896.875,
115819246.875,
115951696.875,
116084146.875,
116274543.75,
116589112.5,
116820900.0,
117011296.875,
117408646.875,
117541096.875,
117673546.875,
117805996.875,
118203346.875,
118335796.875,
118468246.875,
118600696.875,
118998046.875,
119130496.875,
119262946.875,
119395396.875,
119792746.875,
119925196.875,
120057646.875,
120248043.75,
120587446.875,
120719896.875,
120852346.875,
120984796.875,
121382146.875,
121514596.875,
121647046.875,
121779496.875,
122706646.875,
122839096.875,
122971546.875,
123103996.875,
123236446.875,
123385453.125,
123766246.875,
123898696.875,
124031146.875,
124180153.125,
124577503.125,
124974853.125,
125355646.875,
125488096.875,
125620546.875,
125769553.125,
126166903.125,
126564253.125,
126945046.875,
127077496.875,
127209946.875,
127358953.125,
127756303.125,
128153653.125,
128534446.875,
128666896.875,
128799346.875,
128948353.125,
129345703.125,
129743053.125,
130123846.875,
130256296.875,
130388746.875,
130521196.875,
130918546.875,
131050996.875,
131183446.875,
};




int main_cycle_usec = 10;
int master_time = 0;

int notepin0 = 3;
int notepin2 = 5;
int notepin1 = 25;

int elapsed0 = 0;
int elapsed1 = 0;
int elapsed2 = 0;

int state0 = 0;
int state1 = 0;
int state2 = 0;

void setup() {
  Serial.begin(9600);
  pinMode(13, OUTPUT);
  pinMode(notepin0, OUTPUT);
  pinMode(notepin1, OUTPUT);
  pinMode(notepin2, OUTPUT);

  digitalWrite(13, HIGH);
  delay(500);
  digitalWrite(13, LOW);
  delay(500);
  digitalWrite(13, HIGH);
  delay(500);
  digitalWrite(13, LOW);
  delay(500);
//  tone(3, 40);
//  tone(9, 440);
  
}

float current_time;

int size0 = sizeof(melody0)/sizeof(melody0[0]);
int size1 = sizeof(melody1)/sizeof(melody1[0]);
int size2 = sizeof(melody2)/sizeof(melody2[0]);


void loop() {
  Serial.println(size0);
  Serial.println(size1);
  Serial.println(size2);
  
  int usec2 = 0;//(1000000/freq2)/2;

  int end0 = 0;
  int end1 = 0;
  int end2 = 0;

  int i = -1;
  int j = -1;
  int k = -1;
    
  int note0_active = 0;
  float note0_start = 0;
  float note0_end = micros();
  float wait_time0 = 0;
  
  int note1_active = 0;
  float note1_start = 0;
  float note1_end = micros();
  float wait_time1 = 0;
  
  int note2_active = 0;
  float note2_start = 0;
  float note2_end = micros();
  float wait_time2 = 0;

  float start_time = micros();

  while(1){

    current_time = micros();


    // ### VOICE 0 ### //
        
    if (!note0_active){
      // Check if voice is already done, do nothing if True
      if (end0){
        i;
      }
      // Check if note needs to start
      else if ((current_time - note0_end) >= wait_time0){
        i++;
//        Serial.print("I: ");
//        Serial.println(i);
        note0_active = 1;
        analogWriteFrequency(notepin0, melody0[i]);
        analogWrite(notepin0, 128);
        note0_start = micros();
      }
    }
    else{
      // Check if note needs to end      
      if ((current_time - note0_start) >= duration0[i]){
        note0_active = 0;
        analogWrite(notepin0, 0);

        // Check if already at song end
        if (i+1 == size0){
//          Serial.println("END0");
          end0 = 1;
        }
        else{
          note0_end = micros();
          wait_time0 = start_time0[i+1] - (start_time0[i] + duration0[i]); // consider hardcoding this to reduce cycle time
        }
      }  
    }



    // ### VOICE 1 ### //
    
    if (!note1_active){
      // Check if voice is already done, do nothing if True
      if (end1){
        j;
      }
      // Check if note needs to start
      else if ((current_time - note1_end) >= wait_time1){
        j++;
//        Serial.print("J: ");
//        Serial.println(j);
        note1_active = 1;
        analogWriteFrequency(notepin1, melody1[j]);
        analogWrite(notepin1, 128);
        note1_start = micros();
      }
    }
    else{
      // Check if note needs to end      
      if ((current_time - note1_start) >= duration1[j]){
        note1_active = 0;
        analogWrite(notepin1, 0);

        // Check if already at song end
        if (j+1 == size1){
//          Serial.println("END1");
          end1 = 1;
        }
        else{
          note1_end = micros();
          wait_time1 = start_time1[j+1] - (start_time1[j] + duration1[j]); // consider hardcoding this to reduce cycle time
        }
      }
    }


    // ### VOICE 2 ### //

    if (!note2_active){
      // Check if voice is already done, do nothing if True
      if (end2){
        k;
      }
      // Check if note needs to start
      else if ((current_time - note2_end) >= wait_time2){
        k++;
//        Serial.print("k: ");
//        Serial.println(k);
        note2_active = 1;
        analogWriteFrequency(notepin2, melody2[k]);
        analogWrite(notepin2, 128);
        note2_start = micros();
      }
    }
    else{
      // Check if note needs to end      
      if ((current_time - note2_start) >= duration2[k]){
        note2_active = 0;
        analogWrite(notepin2, 0);

        // Check if already at song end
        if (k+1 == size2){
//          Serial.println("END2");
          end2 = 1;
        }
        else{
          note2_end = micros();
          wait_time2 = start_time2[k+1] - (start_time2[k] + duration2[k]); // consider hardcoding this to reduce cycle time
        }
      }
    }
//
//    if (!note2_active){
//      // Check if voice is already done, do nothing if True
//      if (end2){
//        k;
//      }
//      // Check if note needs to start
//      else if ((current_time - note2_end) >= wait_time2){
//        k++;
////        Serial.print("K: ");
////        Serial.println(k);
//        note2_active = 1;
//        digitalWrite(notepin2, HIGH);
//        elapsed2 = 0;
//        note2_start = micros();
//        usec2 = (1000000/melody2[k])/2;
//      }
//    }
//    else{
//      // Check if note needs to end      
//      if ((current_time - note2_start) >= duration2[k]){
//        note2_active = 0;
//        digitalWrite(notepin2, LOW);
//
//        // Check if already at song end
//        if (k+1 == size2){
////          Serial.println("END2");
//          end2 = 1;
//        }
//        else{
//          note2_end = micros();
//          wait_time2 = start_time2[k+1] - (start_time2[k] + duration2[k]); // consider hardcoding this to reduce cycle time
//        }
//      }

//      // If didn't end, check proper note state and set if needed
//      if (elapsed2 > usec2){
//        state2 = !state2;
//        digitalWrite(notepin2, state2);
//        elapsed2 = 0;
//      }      
//    }

    // If all voices are finished, break out of while loop and play song again
    if (end0 & end1 & end2){
      break;
    }

//    elapsed2 += main_cycle_usec;
    delayMicroseconds(main_cycle_usec);
  }

  digitalWrite(13, HIGH);
  delay(500);
  digitalWrite(13, LOW);
  delay(500);
  digitalWrite(13, HIGH);
  delay(500);
  digitalWrite(13, LOW);
  delay(500);
}
